M48
METRIC,TZ
T1C0.300
T2C0.400
T3C0.800
T4C1.000
T5C1.100
%
G90
G05
T1
X97505Y-62115
X97505Y-69735
X97505Y-77355
X97505Y-84975
X97505Y-92595
X97505Y-100215
X99300Y-106680
X99300Y-121920
X99300Y-137160
X99300Y-144780
X105125Y-62115
X105125Y-69735
X105125Y-77355
X105125Y-84975
X105125Y-100215
X106920Y-106680
X106920Y-114300
X106920Y-121920
X112745Y-62115
X112745Y-69735
X112745Y-77355
X112745Y-84975
X112745Y-100215
X114540Y-106680
X114540Y-114300
X114540Y-121920
X114540Y-129540
X114540Y-144780
X120365Y-62115
X120365Y-84975
X120365Y-100215
X122160Y-106680
X122160Y-121920
X122160Y-144780
X127985Y-62115
X127985Y-84975
X127985Y-92595
X127985Y-100215
X129780Y-106680
X129780Y-121920
X129780Y-137160
X129780Y-144780
X135605Y-62115
X135605Y-69735
X135605Y-77355
X135605Y-84975
X135605Y-92595
X135605Y-100215
X137400Y-106680
X137400Y-114300
X137400Y-121920
X137400Y-129540
X137400Y-137160
X137400Y-144780
X143225Y-62115
X143225Y-69735
X143225Y-84975
X143225Y-100215
X145020Y-106680
X145020Y-114300
X145020Y-121920
X145020Y-144780
X150845Y-62115
X150845Y-84975
X150845Y-100215
X152640Y-106680
X152640Y-121920
X152640Y-144780
X158465Y-62115
X158465Y-77355
X158465Y-84975
X158465Y-92595
X158465Y-100215
X160260Y-106680
X160260Y-121920
X160260Y-129540
X160260Y-137160
X160260Y-144780
X166085Y-84975
X166085Y-92595
X166085Y-100215
X167880Y-106680
X167880Y-121920
X167880Y-129540
X167880Y-137160
X167880Y-144780
X173705Y-62115
X173705Y-69735
X173705Y-84975
X173705Y-100215
X175500Y-106680
X175500Y-114300
X175500Y-121920
X175500Y-129540
X175500Y-137160
X175500Y-144780
T2
X108825Y-146685
X164180Y-60210
T3
X155925Y-95135
X166085Y-95135
X127985Y-95135
X138145Y-95135
X110205Y-87515
X120365Y-87515
X134860Y-111760
X145020Y-111760
X155925Y-77355
X166085Y-77355
X134860Y-119380
X145020Y-119380
X127985Y-77355
X138145Y-77355
X106920Y-111760
X117080Y-111760
X106920Y-129540
X117080Y-129540
X127985Y-69735
X138145Y-69735
X143225Y-74815
X143225Y-77355
X150845Y-74815
X150845Y-77355
X127985Y-87515
X138145Y-87515
X134860Y-129540
X145020Y-129540
X143225Y-92595
X143225Y-95135
X150845Y-92595
X150845Y-95135
X152640Y-119380
X162800Y-119380
X122160Y-129540
X122160Y-132080
X129780Y-129540
X129780Y-132080
X122160Y-111760
X122160Y-114300
X129780Y-111760
X129780Y-114300
X152640Y-137160
X162800Y-137160
X110205Y-69735
X120365Y-69735
X134860Y-137160
X145020Y-137160
T4
X172960Y-111760
X172960Y-114300
X99300Y-129540
X99300Y-132080
X100045Y-92595
X100045Y-95135
X173705Y-74815
X173705Y-77355
X172960Y-129540
X172960Y-132080
X100045Y-74815
X100045Y-77355
X173705Y-92595
X173705Y-95135
X99300Y-111760
X99300Y-114300
T5
X115285Y-77355
X117825Y-74855
X120365Y-77355
X152640Y-111760
X155180Y-114260
X157720Y-111760
X152640Y-129540
X155180Y-132040
X157720Y-129540
X158465Y-67195
X161005Y-64695
X163545Y-67195
X115285Y-95135
X117825Y-92635
X120365Y-95135
X109460Y-139700
X112000Y-142200
X114540Y-139700
T0
M30
