G04 #@! TF.GenerationSoftware,KiCad,Pcbnew,(5.1.5)-3*
G04 #@! TF.CreationDate,2020-02-02T20:29:06+09:00*
G04 #@! TF.ProjectId,Tape-LED_Blinky-fin,54617065-2d4c-4454-945f-426c696e6b79,rev?*
G04 #@! TF.SameCoordinates,Original*
G04 #@! TF.FileFunction,Legend,Top*
G04 #@! TF.FilePolarity,Positive*
%FSLAX46Y46*%
G04 Gerber Fmt 4.6, Leading zero omitted, Abs format (unit mm)*
G04 Created by KiCad (PCBNEW (5.1.5)-3) date 2020-02-02 20:29:06*
%MOMM*%
%LPD*%
G04 APERTURE LIST*
%ADD10C,0.150000*%
%ADD11C,0.100000*%
%ADD12C,0.120000*%
%ADD13R,0.802000X4.402000*%
%ADD14R,0.802000X3.302000*%
%ADD15C,1.702000*%
%ADD16O,1.702000X1.702000*%
%ADD17R,1.702000X1.702000*%
%ADD18R,2.007000X2.102000*%
%ADD19O,2.007000X2.102000*%
%ADD20R,1.802000X1.802000*%
%ADD21O,1.802000X1.802000*%
G04 APERTURE END LIST*
D10*
X96163571Y-77465952D02*
X96163571Y-76704047D01*
X95782619Y-77085000D02*
X96544523Y-77085000D01*
X96163571Y-75465952D02*
X96163571Y-74704047D01*
X171664047Y-100587619D02*
X171664047Y-101587619D01*
X171425952Y-101587619D01*
X171283095Y-101540000D01*
X171187857Y-101444761D01*
X171140238Y-101349523D01*
X171092619Y-101159047D01*
X171092619Y-101016190D01*
X171140238Y-100825714D01*
X171187857Y-100730476D01*
X171283095Y-100635238D01*
X171425952Y-100587619D01*
X171664047Y-100587619D01*
X170235476Y-101254285D02*
X170235476Y-100587619D01*
X170664047Y-101254285D02*
X170664047Y-100730476D01*
X170616428Y-100635238D01*
X170521190Y-100587619D01*
X170378333Y-100587619D01*
X170283095Y-100635238D01*
X170235476Y-100682857D01*
X169330714Y-100587619D02*
X169330714Y-101111428D01*
X169378333Y-101206666D01*
X169473571Y-101254285D01*
X169664047Y-101254285D01*
X169759285Y-101206666D01*
X169330714Y-100635238D02*
X169425952Y-100587619D01*
X169664047Y-100587619D01*
X169759285Y-100635238D01*
X169806904Y-100730476D01*
X169806904Y-100825714D01*
X169759285Y-100920952D01*
X169664047Y-100968571D01*
X169425952Y-100968571D01*
X169330714Y-101016190D01*
X168711666Y-100587619D02*
X168806904Y-100635238D01*
X168854523Y-100730476D01*
X168854523Y-101587619D01*
X167711666Y-101587619D02*
X167140238Y-101587619D01*
X167425952Y-100587619D02*
X167425952Y-101587619D01*
X166378333Y-100587619D02*
X166378333Y-101111428D01*
X166425952Y-101206666D01*
X166521190Y-101254285D01*
X166711666Y-101254285D01*
X166806904Y-101206666D01*
X166378333Y-100635238D02*
X166473571Y-100587619D01*
X166711666Y-100587619D01*
X166806904Y-100635238D01*
X166854523Y-100730476D01*
X166854523Y-100825714D01*
X166806904Y-100920952D01*
X166711666Y-100968571D01*
X166473571Y-100968571D01*
X166378333Y-101016190D01*
X165902142Y-101254285D02*
X165902142Y-100254285D01*
X165902142Y-101206666D02*
X165806904Y-101254285D01*
X165616428Y-101254285D01*
X165521190Y-101206666D01*
X165473571Y-101159047D01*
X165425952Y-101063809D01*
X165425952Y-100778095D01*
X165473571Y-100682857D01*
X165521190Y-100635238D01*
X165616428Y-100587619D01*
X165806904Y-100587619D01*
X165902142Y-100635238D01*
X164616428Y-100635238D02*
X164711666Y-100587619D01*
X164902142Y-100587619D01*
X164997380Y-100635238D01*
X165045000Y-100730476D01*
X165045000Y-101111428D01*
X164997380Y-101206666D01*
X164902142Y-101254285D01*
X164711666Y-101254285D01*
X164616428Y-101206666D01*
X164568809Y-101111428D01*
X164568809Y-101016190D01*
X165045000Y-100920952D01*
X164140238Y-100968571D02*
X163378333Y-100968571D01*
X162425952Y-100587619D02*
X162902142Y-100587619D01*
X162902142Y-101587619D01*
X162092619Y-101111428D02*
X161759285Y-101111428D01*
X161616428Y-100587619D02*
X162092619Y-100587619D01*
X162092619Y-101587619D01*
X161616428Y-101587619D01*
X161187857Y-100587619D02*
X161187857Y-101587619D01*
X160949761Y-101587619D01*
X160806904Y-101540000D01*
X160711666Y-101444761D01*
X160664047Y-101349523D01*
X160616428Y-101159047D01*
X160616428Y-101016190D01*
X160664047Y-100825714D01*
X160711666Y-100730476D01*
X160806904Y-100635238D01*
X160949761Y-100587619D01*
X161187857Y-100587619D01*
X159092619Y-101111428D02*
X158949761Y-101063809D01*
X158902142Y-101016190D01*
X158854523Y-100920952D01*
X158854523Y-100778095D01*
X158902142Y-100682857D01*
X158949761Y-100635238D01*
X159045000Y-100587619D01*
X159425952Y-100587619D01*
X159425952Y-101587619D01*
X159092619Y-101587619D01*
X158997380Y-101540000D01*
X158949761Y-101492380D01*
X158902142Y-101397142D01*
X158902142Y-101301904D01*
X158949761Y-101206666D01*
X158997380Y-101159047D01*
X159092619Y-101111428D01*
X159425952Y-101111428D01*
X158283095Y-100587619D02*
X158378333Y-100635238D01*
X158425952Y-100730476D01*
X158425952Y-101587619D01*
X157902142Y-100587619D02*
X157902142Y-101254285D01*
X157902142Y-101587619D02*
X157949761Y-101540000D01*
X157902142Y-101492380D01*
X157854523Y-101540000D01*
X157902142Y-101587619D01*
X157902142Y-101492380D01*
X157425952Y-101254285D02*
X157425952Y-100587619D01*
X157425952Y-101159047D02*
X157378333Y-101206666D01*
X157283095Y-101254285D01*
X157140238Y-101254285D01*
X157045000Y-101206666D01*
X156997380Y-101111428D01*
X156997380Y-100587619D01*
X156521190Y-100587619D02*
X156521190Y-101587619D01*
X156425952Y-100968571D02*
X156140238Y-100587619D01*
X156140238Y-101254285D02*
X156521190Y-100873333D01*
X155806904Y-101254285D02*
X155568809Y-100587619D01*
X155330714Y-101254285D02*
X155568809Y-100587619D01*
X155664047Y-100349523D01*
X155711666Y-100301904D01*
X155806904Y-100254285D01*
X168425952Y-98937619D02*
X168425952Y-99937619D01*
X168045000Y-99937619D01*
X167949761Y-99890000D01*
X167902142Y-99842380D01*
X167854523Y-99747142D01*
X167854523Y-99604285D01*
X167902142Y-99509047D01*
X167949761Y-99461428D01*
X168045000Y-99413809D01*
X168425952Y-99413809D01*
X167425952Y-98937619D02*
X167425952Y-99604285D01*
X167425952Y-99413809D02*
X167378333Y-99509047D01*
X167330714Y-99556666D01*
X167235476Y-99604285D01*
X167140238Y-99604285D01*
X166664047Y-98937619D02*
X166759285Y-98985238D01*
X166806904Y-99032857D01*
X166854523Y-99128095D01*
X166854523Y-99413809D01*
X166806904Y-99509047D01*
X166759285Y-99556666D01*
X166664047Y-99604285D01*
X166521190Y-99604285D01*
X166425952Y-99556666D01*
X166378333Y-99509047D01*
X166330714Y-99413809D01*
X166330714Y-99128095D01*
X166378333Y-99032857D01*
X166425952Y-98985238D01*
X166521190Y-98937619D01*
X166664047Y-98937619D01*
X166045000Y-99604285D02*
X165664047Y-99604285D01*
X165902142Y-99937619D02*
X165902142Y-99080476D01*
X165854523Y-98985238D01*
X165759285Y-98937619D01*
X165664047Y-98937619D01*
X165187857Y-98937619D02*
X165283095Y-98985238D01*
X165330714Y-99032857D01*
X165378333Y-99128095D01*
X165378333Y-99413809D01*
X165330714Y-99509047D01*
X165283095Y-99556666D01*
X165187857Y-99604285D01*
X165045000Y-99604285D01*
X164949761Y-99556666D01*
X164902142Y-99509047D01*
X164854523Y-99413809D01*
X164854523Y-99128095D01*
X164902142Y-99032857D01*
X164949761Y-98985238D01*
X165045000Y-98937619D01*
X165187857Y-98937619D01*
X164568809Y-99604285D02*
X164187857Y-99604285D01*
X164425952Y-99937619D02*
X164425952Y-99080476D01*
X164378333Y-98985238D01*
X164283095Y-98937619D01*
X164187857Y-98937619D01*
X163949761Y-99604285D02*
X163711666Y-98937619D01*
X163473571Y-99604285D02*
X163711666Y-98937619D01*
X163806904Y-98699523D01*
X163854523Y-98651904D01*
X163949761Y-98604285D01*
X163092619Y-99604285D02*
X163092619Y-98604285D01*
X163092619Y-99556666D02*
X162997380Y-99604285D01*
X162806904Y-99604285D01*
X162711666Y-99556666D01*
X162664047Y-99509047D01*
X162616428Y-99413809D01*
X162616428Y-99128095D01*
X162664047Y-99032857D01*
X162711666Y-98985238D01*
X162806904Y-98937619D01*
X162997380Y-98937619D01*
X163092619Y-98985238D01*
X161806904Y-98985238D02*
X161902142Y-98937619D01*
X162092619Y-98937619D01*
X162187857Y-98985238D01*
X162235476Y-99080476D01*
X162235476Y-99461428D01*
X162187857Y-99556666D01*
X162092619Y-99604285D01*
X161902142Y-99604285D01*
X161806904Y-99556666D01*
X161759285Y-99461428D01*
X161759285Y-99366190D01*
X162235476Y-99270952D01*
X160045000Y-98937619D02*
X160616428Y-98937619D01*
X160330714Y-98937619D02*
X160330714Y-99937619D01*
X160425952Y-99794761D01*
X160521190Y-99699523D01*
X160616428Y-99651904D01*
X159616428Y-99032857D02*
X159568809Y-98985238D01*
X159616428Y-98937619D01*
X159664047Y-98985238D01*
X159616428Y-99032857D01*
X159616428Y-98937619D01*
X158949761Y-99937619D02*
X158854523Y-99937619D01*
X158759285Y-99890000D01*
X158711666Y-99842380D01*
X158664047Y-99747142D01*
X158616428Y-99556666D01*
X158616428Y-99318571D01*
X158664047Y-99128095D01*
X158711666Y-99032857D01*
X158759285Y-98985238D01*
X158854523Y-98937619D01*
X158949761Y-98937619D01*
X159045000Y-98985238D01*
X159092619Y-99032857D01*
X159140238Y-99128095D01*
X159187857Y-99318571D01*
X159187857Y-99556666D01*
X159140238Y-99747142D01*
X159092619Y-99842380D01*
X159045000Y-99890000D01*
X158949761Y-99937619D01*
X96163571Y-95245952D02*
X96163571Y-94484047D01*
X95782619Y-94865000D02*
X96544523Y-94865000D01*
X96163571Y-93245952D02*
X96163571Y-92484047D01*
D11*
X99355000Y-103445000D02*
G75*
G02X94355000Y-98445000I0J5000000D01*
G01*
X178655000Y-61845000D02*
X178655000Y-98445000D01*
X94355000Y-61845000D02*
X94355000Y-98445000D01*
X178655000Y-98445000D02*
G75*
G02X173655000Y-103445000I-5000000J0D01*
G01*
D10*
X174824047Y-69282619D02*
X175300238Y-69282619D01*
X175300238Y-70282619D01*
X174490714Y-69806428D02*
X174157380Y-69806428D01*
X174014523Y-69282619D02*
X174490714Y-69282619D01*
X174490714Y-70282619D01*
X174014523Y-70282619D01*
X173585952Y-69282619D02*
X173585952Y-70282619D01*
X173347857Y-70282619D01*
X173205000Y-70235000D01*
X173109761Y-70139761D01*
X173062142Y-70044523D01*
X173014523Y-69854047D01*
X173014523Y-69711190D01*
X173062142Y-69520714D01*
X173109761Y-69425476D01*
X173205000Y-69330238D01*
X173347857Y-69282619D01*
X173585952Y-69282619D01*
X172062142Y-69282619D02*
X172633571Y-69282619D01*
X172347857Y-69282619D02*
X172347857Y-70282619D01*
X172443095Y-70139761D01*
X172538333Y-70044523D01*
X172633571Y-69996904D01*
X101164047Y-87062619D02*
X101640238Y-87062619D01*
X101640238Y-88062619D01*
X100830714Y-87586428D02*
X100497380Y-87586428D01*
X100354523Y-87062619D02*
X100830714Y-87062619D01*
X100830714Y-88062619D01*
X100354523Y-88062619D01*
X99925952Y-87062619D02*
X99925952Y-88062619D01*
X99687857Y-88062619D01*
X99545000Y-88015000D01*
X99449761Y-87919761D01*
X99402142Y-87824523D01*
X99354523Y-87634047D01*
X99354523Y-87491190D01*
X99402142Y-87300714D01*
X99449761Y-87205476D01*
X99545000Y-87110238D01*
X99687857Y-87062619D01*
X99925952Y-87062619D01*
X98735476Y-88062619D02*
X98640238Y-88062619D01*
X98545000Y-88015000D01*
X98497380Y-87967380D01*
X98449761Y-87872142D01*
X98402142Y-87681666D01*
X98402142Y-87443571D01*
X98449761Y-87253095D01*
X98497380Y-87157857D01*
X98545000Y-87110238D01*
X98640238Y-87062619D01*
X98735476Y-87062619D01*
X98830714Y-87110238D01*
X98878333Y-87157857D01*
X98925952Y-87253095D01*
X98973571Y-87443571D01*
X98973571Y-87681666D01*
X98925952Y-87872142D01*
X98878333Y-87967380D01*
X98830714Y-88015000D01*
X98735476Y-88062619D01*
X176745000Y-72608809D02*
X176792619Y-72513571D01*
X176792619Y-72370714D01*
X176745000Y-72227857D01*
X176649761Y-72132619D01*
X176554523Y-72085000D01*
X176364047Y-72037380D01*
X176221190Y-72037380D01*
X176030714Y-72085000D01*
X175935476Y-72132619D01*
X175840238Y-72227857D01*
X175792619Y-72370714D01*
X175792619Y-72465952D01*
X175840238Y-72608809D01*
X175887857Y-72656428D01*
X176221190Y-72656428D01*
X176221190Y-72465952D01*
X175792619Y-73085000D02*
X176792619Y-73085000D01*
X175792619Y-73656428D01*
X176792619Y-73656428D01*
X175792619Y-74132619D02*
X176792619Y-74132619D01*
X176792619Y-74370714D01*
X176745000Y-74513571D01*
X176649761Y-74608809D01*
X176554523Y-74656428D01*
X176364047Y-74704047D01*
X176221190Y-74704047D01*
X176030714Y-74656428D01*
X175935476Y-74608809D01*
X175840238Y-74513571D01*
X175792619Y-74370714D01*
X175792619Y-74132619D01*
X175840238Y-75846904D02*
X175792619Y-75989761D01*
X175792619Y-76227857D01*
X175840238Y-76323095D01*
X175887857Y-76370714D01*
X175983095Y-76418333D01*
X176078333Y-76418333D01*
X176173571Y-76370714D01*
X176221190Y-76323095D01*
X176268809Y-76227857D01*
X176316428Y-76037380D01*
X176364047Y-75942142D01*
X176411666Y-75894523D01*
X176506904Y-75846904D01*
X176602142Y-75846904D01*
X176697380Y-75894523D01*
X176745000Y-75942142D01*
X176792619Y-76037380D01*
X176792619Y-76275476D01*
X176745000Y-76418333D01*
X175792619Y-76846904D02*
X176459285Y-76846904D01*
X176792619Y-76846904D02*
X176745000Y-76799285D01*
X176697380Y-76846904D01*
X176745000Y-76894523D01*
X176792619Y-76846904D01*
X176697380Y-76846904D01*
X176459285Y-77751666D02*
X175649761Y-77751666D01*
X175554523Y-77704047D01*
X175506904Y-77656428D01*
X175459285Y-77561190D01*
X175459285Y-77418333D01*
X175506904Y-77323095D01*
X175840238Y-77751666D02*
X175792619Y-77656428D01*
X175792619Y-77465952D01*
X175840238Y-77370714D01*
X175887857Y-77323095D01*
X175983095Y-77275476D01*
X176268809Y-77275476D01*
X176364047Y-77323095D01*
X176411666Y-77370714D01*
X176459285Y-77465952D01*
X176459285Y-77656428D01*
X176411666Y-77751666D01*
X176459285Y-78227857D02*
X175792619Y-78227857D01*
X176364047Y-78227857D02*
X176411666Y-78275476D01*
X176459285Y-78370714D01*
X176459285Y-78513571D01*
X176411666Y-78608809D01*
X176316428Y-78656428D01*
X175792619Y-78656428D01*
X175792619Y-79561190D02*
X176316428Y-79561190D01*
X176411666Y-79513571D01*
X176459285Y-79418333D01*
X176459285Y-79227857D01*
X176411666Y-79132619D01*
X175840238Y-79561190D02*
X175792619Y-79465952D01*
X175792619Y-79227857D01*
X175840238Y-79132619D01*
X175935476Y-79085000D01*
X176030714Y-79085000D01*
X176125952Y-79132619D01*
X176173571Y-79227857D01*
X176173571Y-79465952D01*
X176221190Y-79561190D01*
X175792619Y-80180238D02*
X175840238Y-80085000D01*
X175935476Y-80037380D01*
X176792619Y-80037380D01*
X174824047Y-87062619D02*
X175300238Y-87062619D01*
X175300238Y-88062619D01*
X174490714Y-87586428D02*
X174157380Y-87586428D01*
X174014523Y-87062619D02*
X174490714Y-87062619D01*
X174490714Y-88062619D01*
X174014523Y-88062619D01*
X173585952Y-87062619D02*
X173585952Y-88062619D01*
X173347857Y-88062619D01*
X173205000Y-88015000D01*
X173109761Y-87919761D01*
X173062142Y-87824523D01*
X173014523Y-87634047D01*
X173014523Y-87491190D01*
X173062142Y-87300714D01*
X173109761Y-87205476D01*
X173205000Y-87110238D01*
X173347857Y-87062619D01*
X173585952Y-87062619D01*
X172395476Y-88062619D02*
X172300238Y-88062619D01*
X172205000Y-88015000D01*
X172157380Y-87967380D01*
X172109761Y-87872142D01*
X172062142Y-87681666D01*
X172062142Y-87443571D01*
X172109761Y-87253095D01*
X172157380Y-87157857D01*
X172205000Y-87110238D01*
X172300238Y-87062619D01*
X172395476Y-87062619D01*
X172490714Y-87110238D01*
X172538333Y-87157857D01*
X172585952Y-87253095D01*
X172633571Y-87443571D01*
X172633571Y-87681666D01*
X172585952Y-87872142D01*
X172538333Y-87967380D01*
X172490714Y-88015000D01*
X172395476Y-88062619D01*
X176745000Y-90388809D02*
X176792619Y-90293571D01*
X176792619Y-90150714D01*
X176745000Y-90007857D01*
X176649761Y-89912619D01*
X176554523Y-89865000D01*
X176364047Y-89817380D01*
X176221190Y-89817380D01*
X176030714Y-89865000D01*
X175935476Y-89912619D01*
X175840238Y-90007857D01*
X175792619Y-90150714D01*
X175792619Y-90245952D01*
X175840238Y-90388809D01*
X175887857Y-90436428D01*
X176221190Y-90436428D01*
X176221190Y-90245952D01*
X175792619Y-90865000D02*
X176792619Y-90865000D01*
X175792619Y-91436428D01*
X176792619Y-91436428D01*
X175792619Y-91912619D02*
X176792619Y-91912619D01*
X176792619Y-92150714D01*
X176745000Y-92293571D01*
X176649761Y-92388809D01*
X176554523Y-92436428D01*
X176364047Y-92484047D01*
X176221190Y-92484047D01*
X176030714Y-92436428D01*
X175935476Y-92388809D01*
X175840238Y-92293571D01*
X175792619Y-92150714D01*
X175792619Y-91912619D01*
X175840238Y-93626904D02*
X175792619Y-93769761D01*
X175792619Y-94007857D01*
X175840238Y-94103095D01*
X175887857Y-94150714D01*
X175983095Y-94198333D01*
X176078333Y-94198333D01*
X176173571Y-94150714D01*
X176221190Y-94103095D01*
X176268809Y-94007857D01*
X176316428Y-93817380D01*
X176364047Y-93722142D01*
X176411666Y-93674523D01*
X176506904Y-93626904D01*
X176602142Y-93626904D01*
X176697380Y-93674523D01*
X176745000Y-93722142D01*
X176792619Y-93817380D01*
X176792619Y-94055476D01*
X176745000Y-94198333D01*
X175792619Y-94626904D02*
X176459285Y-94626904D01*
X176792619Y-94626904D02*
X176745000Y-94579285D01*
X176697380Y-94626904D01*
X176745000Y-94674523D01*
X176792619Y-94626904D01*
X176697380Y-94626904D01*
X176459285Y-95531666D02*
X175649761Y-95531666D01*
X175554523Y-95484047D01*
X175506904Y-95436428D01*
X175459285Y-95341190D01*
X175459285Y-95198333D01*
X175506904Y-95103095D01*
X175840238Y-95531666D02*
X175792619Y-95436428D01*
X175792619Y-95245952D01*
X175840238Y-95150714D01*
X175887857Y-95103095D01*
X175983095Y-95055476D01*
X176268809Y-95055476D01*
X176364047Y-95103095D01*
X176411666Y-95150714D01*
X176459285Y-95245952D01*
X176459285Y-95436428D01*
X176411666Y-95531666D01*
X176459285Y-96007857D02*
X175792619Y-96007857D01*
X176364047Y-96007857D02*
X176411666Y-96055476D01*
X176459285Y-96150714D01*
X176459285Y-96293571D01*
X176411666Y-96388809D01*
X176316428Y-96436428D01*
X175792619Y-96436428D01*
X175792619Y-97341190D02*
X176316428Y-97341190D01*
X176411666Y-97293571D01*
X176459285Y-97198333D01*
X176459285Y-97007857D01*
X176411666Y-96912619D01*
X175840238Y-97341190D02*
X175792619Y-97245952D01*
X175792619Y-97007857D01*
X175840238Y-96912619D01*
X175935476Y-96865000D01*
X176030714Y-96865000D01*
X176125952Y-96912619D01*
X176173571Y-97007857D01*
X176173571Y-97245952D01*
X176221190Y-97341190D01*
X175792619Y-97960238D02*
X175840238Y-97865000D01*
X175935476Y-97817380D01*
X176792619Y-97817380D01*
X101164047Y-69282619D02*
X101640238Y-69282619D01*
X101640238Y-70282619D01*
X100830714Y-69806428D02*
X100497380Y-69806428D01*
X100354523Y-69282619D02*
X100830714Y-69282619D01*
X100830714Y-70282619D01*
X100354523Y-70282619D01*
X99925952Y-69282619D02*
X99925952Y-70282619D01*
X99687857Y-70282619D01*
X99545000Y-70235000D01*
X99449761Y-70139761D01*
X99402142Y-70044523D01*
X99354523Y-69854047D01*
X99354523Y-69711190D01*
X99402142Y-69520714D01*
X99449761Y-69425476D01*
X99545000Y-69330238D01*
X99687857Y-69282619D01*
X99925952Y-69282619D01*
X98402142Y-69282619D02*
X98973571Y-69282619D01*
X98687857Y-69282619D02*
X98687857Y-70282619D01*
X98783095Y-70139761D01*
X98878333Y-70044523D01*
X98973571Y-69996904D01*
X101340952Y-106307380D02*
X101340952Y-105307380D01*
X101579047Y-105307380D01*
X101721904Y-105355000D01*
X101817142Y-105450238D01*
X101864761Y-105545476D01*
X101912380Y-105735952D01*
X101912380Y-105878809D01*
X101864761Y-106069285D01*
X101817142Y-106164523D01*
X101721904Y-106259761D01*
X101579047Y-106307380D01*
X101340952Y-106307380D01*
X102769523Y-105640714D02*
X102769523Y-106307380D01*
X102340952Y-105640714D02*
X102340952Y-106164523D01*
X102388571Y-106259761D01*
X102483809Y-106307380D01*
X102626666Y-106307380D01*
X102721904Y-106259761D01*
X102769523Y-106212142D01*
X103674285Y-106307380D02*
X103674285Y-105783571D01*
X103626666Y-105688333D01*
X103531428Y-105640714D01*
X103340952Y-105640714D01*
X103245714Y-105688333D01*
X103674285Y-106259761D02*
X103579047Y-106307380D01*
X103340952Y-106307380D01*
X103245714Y-106259761D01*
X103198095Y-106164523D01*
X103198095Y-106069285D01*
X103245714Y-105974047D01*
X103340952Y-105926428D01*
X103579047Y-105926428D01*
X103674285Y-105878809D01*
X104293333Y-106307380D02*
X104198095Y-106259761D01*
X104150476Y-106164523D01*
X104150476Y-105307380D01*
X105293333Y-105307380D02*
X105864761Y-105307380D01*
X105579047Y-106307380D02*
X105579047Y-105307380D01*
X106626666Y-106307380D02*
X106626666Y-105783571D01*
X106579047Y-105688333D01*
X106483809Y-105640714D01*
X106293333Y-105640714D01*
X106198095Y-105688333D01*
X106626666Y-106259761D02*
X106531428Y-106307380D01*
X106293333Y-106307380D01*
X106198095Y-106259761D01*
X106150476Y-106164523D01*
X106150476Y-106069285D01*
X106198095Y-105974047D01*
X106293333Y-105926428D01*
X106531428Y-105926428D01*
X106626666Y-105878809D01*
X107102857Y-105640714D02*
X107102857Y-106640714D01*
X107102857Y-105688333D02*
X107198095Y-105640714D01*
X107388571Y-105640714D01*
X107483809Y-105688333D01*
X107531428Y-105735952D01*
X107579047Y-105831190D01*
X107579047Y-106116904D01*
X107531428Y-106212142D01*
X107483809Y-106259761D01*
X107388571Y-106307380D01*
X107198095Y-106307380D01*
X107102857Y-106259761D01*
X108388571Y-106259761D02*
X108293333Y-106307380D01*
X108102857Y-106307380D01*
X108007619Y-106259761D01*
X107959999Y-106164523D01*
X107959999Y-105783571D01*
X108007619Y-105688333D01*
X108102857Y-105640714D01*
X108293333Y-105640714D01*
X108388571Y-105688333D01*
X108436190Y-105783571D01*
X108436190Y-105878809D01*
X107959999Y-105974047D01*
X108864761Y-105926428D02*
X109626666Y-105926428D01*
X110579047Y-106307380D02*
X110102857Y-106307380D01*
X110102857Y-105307380D01*
X110912380Y-105783571D02*
X111245714Y-105783571D01*
X111388571Y-106307380D02*
X110912380Y-106307380D01*
X110912380Y-105307380D01*
X111388571Y-105307380D01*
X111817142Y-106307380D02*
X111817142Y-105307380D01*
X112055238Y-105307380D01*
X112198095Y-105355000D01*
X112293333Y-105450238D01*
X112340952Y-105545476D01*
X112388571Y-105735952D01*
X112388571Y-105878809D01*
X112340952Y-106069285D01*
X112293333Y-106164523D01*
X112198095Y-106259761D01*
X112055238Y-106307380D01*
X111817142Y-106307380D01*
X113912380Y-105783571D02*
X114055238Y-105831190D01*
X114102857Y-105878809D01*
X114150476Y-105974047D01*
X114150476Y-106116904D01*
X114102857Y-106212142D01*
X114055238Y-106259761D01*
X113959999Y-106307380D01*
X113579047Y-106307380D01*
X113579047Y-105307380D01*
X113912380Y-105307380D01*
X114007619Y-105355000D01*
X114055238Y-105402619D01*
X114102857Y-105497857D01*
X114102857Y-105593095D01*
X114055238Y-105688333D01*
X114007619Y-105735952D01*
X113912380Y-105783571D01*
X113579047Y-105783571D01*
X114721904Y-106307380D02*
X114626666Y-106259761D01*
X114579047Y-106164523D01*
X114579047Y-105307380D01*
X115102857Y-106307380D02*
X115102857Y-105640714D01*
X115102857Y-105307380D02*
X115055238Y-105355000D01*
X115102857Y-105402619D01*
X115150476Y-105355000D01*
X115102857Y-105307380D01*
X115102857Y-105402619D01*
X115579047Y-105640714D02*
X115579047Y-106307380D01*
X115579047Y-105735952D02*
X115626666Y-105688333D01*
X115721904Y-105640714D01*
X115864761Y-105640714D01*
X115959999Y-105688333D01*
X116007619Y-105783571D01*
X116007619Y-106307380D01*
X116483809Y-106307380D02*
X116483809Y-105307380D01*
X116579047Y-105926428D02*
X116864761Y-106307380D01*
X116864761Y-105640714D02*
X116483809Y-106021666D01*
X117198095Y-105640714D02*
X117436190Y-106307380D01*
X117674285Y-105640714D02*
X117436190Y-106307380D01*
X117340952Y-106545476D01*
X117293333Y-106593095D01*
X117198095Y-106640714D01*
X104579047Y-107957380D02*
X104579047Y-106957380D01*
X104960000Y-106957380D01*
X105055238Y-107005000D01*
X105102857Y-107052619D01*
X105150476Y-107147857D01*
X105150476Y-107290714D01*
X105102857Y-107385952D01*
X105055238Y-107433571D01*
X104960000Y-107481190D01*
X104579047Y-107481190D01*
X105579047Y-107957380D02*
X105579047Y-107290714D01*
X105579047Y-107481190D02*
X105626666Y-107385952D01*
X105674285Y-107338333D01*
X105769523Y-107290714D01*
X105864761Y-107290714D01*
X106340952Y-107957380D02*
X106245714Y-107909761D01*
X106198095Y-107862142D01*
X106150476Y-107766904D01*
X106150476Y-107481190D01*
X106198095Y-107385952D01*
X106245714Y-107338333D01*
X106340952Y-107290714D01*
X106483809Y-107290714D01*
X106579047Y-107338333D01*
X106626666Y-107385952D01*
X106674285Y-107481190D01*
X106674285Y-107766904D01*
X106626666Y-107862142D01*
X106579047Y-107909761D01*
X106483809Y-107957380D01*
X106340952Y-107957380D01*
X106960000Y-107290714D02*
X107340952Y-107290714D01*
X107102857Y-106957380D02*
X107102857Y-107814523D01*
X107150476Y-107909761D01*
X107245714Y-107957380D01*
X107340952Y-107957380D01*
X107817142Y-107957380D02*
X107721904Y-107909761D01*
X107674285Y-107862142D01*
X107626666Y-107766904D01*
X107626666Y-107481190D01*
X107674285Y-107385952D01*
X107721904Y-107338333D01*
X107817142Y-107290714D01*
X107960000Y-107290714D01*
X108055238Y-107338333D01*
X108102857Y-107385952D01*
X108150476Y-107481190D01*
X108150476Y-107766904D01*
X108102857Y-107862142D01*
X108055238Y-107909761D01*
X107960000Y-107957380D01*
X107817142Y-107957380D01*
X108436190Y-107290714D02*
X108817142Y-107290714D01*
X108579047Y-106957380D02*
X108579047Y-107814523D01*
X108626666Y-107909761D01*
X108721904Y-107957380D01*
X108817142Y-107957380D01*
X109055238Y-107290714D02*
X109293333Y-107957380D01*
X109531428Y-107290714D02*
X109293333Y-107957380D01*
X109198095Y-108195476D01*
X109150476Y-108243095D01*
X109055238Y-108290714D01*
X109912380Y-107290714D02*
X109912380Y-108290714D01*
X109912380Y-107338333D02*
X110007619Y-107290714D01*
X110198095Y-107290714D01*
X110293333Y-107338333D01*
X110340952Y-107385952D01*
X110388571Y-107481190D01*
X110388571Y-107766904D01*
X110340952Y-107862142D01*
X110293333Y-107909761D01*
X110198095Y-107957380D01*
X110007619Y-107957380D01*
X109912380Y-107909761D01*
X111198095Y-107909761D02*
X111102857Y-107957380D01*
X110912380Y-107957380D01*
X110817142Y-107909761D01*
X110769523Y-107814523D01*
X110769523Y-107433571D01*
X110817142Y-107338333D01*
X110912380Y-107290714D01*
X111102857Y-107290714D01*
X111198095Y-107338333D01*
X111245714Y-107433571D01*
X111245714Y-107528809D01*
X110769523Y-107624047D01*
X112960000Y-107957380D02*
X112388571Y-107957380D01*
X112674285Y-107957380D02*
X112674285Y-106957380D01*
X112579047Y-107100238D01*
X112483809Y-107195476D01*
X112388571Y-107243095D01*
X113388571Y-107862142D02*
X113436190Y-107909761D01*
X113388571Y-107957380D01*
X113340952Y-107909761D01*
X113388571Y-107862142D01*
X113388571Y-107957380D01*
X114055238Y-106957380D02*
X114150476Y-106957380D01*
X114245714Y-107005000D01*
X114293333Y-107052619D01*
X114340952Y-107147857D01*
X114388571Y-107338333D01*
X114388571Y-107576428D01*
X114340952Y-107766904D01*
X114293333Y-107862142D01*
X114245714Y-107909761D01*
X114150476Y-107957380D01*
X114055238Y-107957380D01*
X113960000Y-107909761D01*
X113912380Y-107862142D01*
X113864761Y-107766904D01*
X113817142Y-107576428D01*
X113817142Y-107338333D01*
X113864761Y-107147857D01*
X113912380Y-107052619D01*
X113960000Y-107005000D01*
X114055238Y-106957380D01*
D11*
X173650000Y-103450000D02*
G75*
G02X178650000Y-108450000I0J-5000000D01*
G01*
X94350000Y-108450000D02*
G75*
G02X99350000Y-103450000I5000000J0D01*
G01*
D10*
X176841428Y-111649047D02*
X176841428Y-112410952D01*
X177222380Y-112030000D02*
X176460476Y-112030000D01*
X176841428Y-113649047D02*
X176841428Y-114410952D01*
X176841428Y-129429047D02*
X176841428Y-130190952D01*
X177222380Y-129810000D02*
X176460476Y-129810000D01*
X176841428Y-131429047D02*
X176841428Y-132190952D01*
X96260000Y-116506190D02*
X96212380Y-116601428D01*
X96212380Y-116744285D01*
X96260000Y-116887142D01*
X96355238Y-116982380D01*
X96450476Y-117030000D01*
X96640952Y-117077619D01*
X96783809Y-117077619D01*
X96974285Y-117030000D01*
X97069523Y-116982380D01*
X97164761Y-116887142D01*
X97212380Y-116744285D01*
X97212380Y-116649047D01*
X97164761Y-116506190D01*
X97117142Y-116458571D01*
X96783809Y-116458571D01*
X96783809Y-116649047D01*
X97212380Y-116030000D02*
X96212380Y-116030000D01*
X97212380Y-115458571D01*
X96212380Y-115458571D01*
X97212380Y-114982380D02*
X96212380Y-114982380D01*
X96212380Y-114744285D01*
X96260000Y-114601428D01*
X96355238Y-114506190D01*
X96450476Y-114458571D01*
X96640952Y-114410952D01*
X96783809Y-114410952D01*
X96974285Y-114458571D01*
X97069523Y-114506190D01*
X97164761Y-114601428D01*
X97212380Y-114744285D01*
X97212380Y-114982380D01*
X97164761Y-113268095D02*
X97212380Y-113125238D01*
X97212380Y-112887142D01*
X97164761Y-112791904D01*
X97117142Y-112744285D01*
X97021904Y-112696666D01*
X96926666Y-112696666D01*
X96831428Y-112744285D01*
X96783809Y-112791904D01*
X96736190Y-112887142D01*
X96688571Y-113077619D01*
X96640952Y-113172857D01*
X96593333Y-113220476D01*
X96498095Y-113268095D01*
X96402857Y-113268095D01*
X96307619Y-113220476D01*
X96260000Y-113172857D01*
X96212380Y-113077619D01*
X96212380Y-112839523D01*
X96260000Y-112696666D01*
X97212380Y-112268095D02*
X96545714Y-112268095D01*
X96212380Y-112268095D02*
X96260000Y-112315714D01*
X96307619Y-112268095D01*
X96260000Y-112220476D01*
X96212380Y-112268095D01*
X96307619Y-112268095D01*
X96545714Y-111363333D02*
X97355238Y-111363333D01*
X97450476Y-111410952D01*
X97498095Y-111458571D01*
X97545714Y-111553809D01*
X97545714Y-111696666D01*
X97498095Y-111791904D01*
X97164761Y-111363333D02*
X97212380Y-111458571D01*
X97212380Y-111649047D01*
X97164761Y-111744285D01*
X97117142Y-111791904D01*
X97021904Y-111839523D01*
X96736190Y-111839523D01*
X96640952Y-111791904D01*
X96593333Y-111744285D01*
X96545714Y-111649047D01*
X96545714Y-111458571D01*
X96593333Y-111363333D01*
X96545714Y-110887142D02*
X97212380Y-110887142D01*
X96640952Y-110887142D02*
X96593333Y-110839523D01*
X96545714Y-110744285D01*
X96545714Y-110601428D01*
X96593333Y-110506190D01*
X96688571Y-110458571D01*
X97212380Y-110458571D01*
X97212380Y-109553809D02*
X96688571Y-109553809D01*
X96593333Y-109601428D01*
X96545714Y-109696666D01*
X96545714Y-109887142D01*
X96593333Y-109982380D01*
X97164761Y-109553809D02*
X97212380Y-109649047D01*
X97212380Y-109887142D01*
X97164761Y-109982380D01*
X97069523Y-110030000D01*
X96974285Y-110030000D01*
X96879047Y-109982380D01*
X96831428Y-109887142D01*
X96831428Y-109649047D01*
X96783809Y-109553809D01*
X97212380Y-108934761D02*
X97164761Y-109030000D01*
X97069523Y-109077619D01*
X96212380Y-109077619D01*
X96260000Y-134286190D02*
X96212380Y-134381428D01*
X96212380Y-134524285D01*
X96260000Y-134667142D01*
X96355238Y-134762380D01*
X96450476Y-134810000D01*
X96640952Y-134857619D01*
X96783809Y-134857619D01*
X96974285Y-134810000D01*
X97069523Y-134762380D01*
X97164761Y-134667142D01*
X97212380Y-134524285D01*
X97212380Y-134429047D01*
X97164761Y-134286190D01*
X97117142Y-134238571D01*
X96783809Y-134238571D01*
X96783809Y-134429047D01*
X97212380Y-133810000D02*
X96212380Y-133810000D01*
X97212380Y-133238571D01*
X96212380Y-133238571D01*
X97212380Y-132762380D02*
X96212380Y-132762380D01*
X96212380Y-132524285D01*
X96260000Y-132381428D01*
X96355238Y-132286190D01*
X96450476Y-132238571D01*
X96640952Y-132190952D01*
X96783809Y-132190952D01*
X96974285Y-132238571D01*
X97069523Y-132286190D01*
X97164761Y-132381428D01*
X97212380Y-132524285D01*
X97212380Y-132762380D01*
X97164761Y-131048095D02*
X97212380Y-130905238D01*
X97212380Y-130667142D01*
X97164761Y-130571904D01*
X97117142Y-130524285D01*
X97021904Y-130476666D01*
X96926666Y-130476666D01*
X96831428Y-130524285D01*
X96783809Y-130571904D01*
X96736190Y-130667142D01*
X96688571Y-130857619D01*
X96640952Y-130952857D01*
X96593333Y-131000476D01*
X96498095Y-131048095D01*
X96402857Y-131048095D01*
X96307619Y-131000476D01*
X96260000Y-130952857D01*
X96212380Y-130857619D01*
X96212380Y-130619523D01*
X96260000Y-130476666D01*
X97212380Y-130048095D02*
X96545714Y-130048095D01*
X96212380Y-130048095D02*
X96260000Y-130095714D01*
X96307619Y-130048095D01*
X96260000Y-130000476D01*
X96212380Y-130048095D01*
X96307619Y-130048095D01*
X96545714Y-129143333D02*
X97355238Y-129143333D01*
X97450476Y-129190952D01*
X97498095Y-129238571D01*
X97545714Y-129333809D01*
X97545714Y-129476666D01*
X97498095Y-129571904D01*
X97164761Y-129143333D02*
X97212380Y-129238571D01*
X97212380Y-129429047D01*
X97164761Y-129524285D01*
X97117142Y-129571904D01*
X97021904Y-129619523D01*
X96736190Y-129619523D01*
X96640952Y-129571904D01*
X96593333Y-129524285D01*
X96545714Y-129429047D01*
X96545714Y-129238571D01*
X96593333Y-129143333D01*
X96545714Y-128667142D02*
X97212380Y-128667142D01*
X96640952Y-128667142D02*
X96593333Y-128619523D01*
X96545714Y-128524285D01*
X96545714Y-128381428D01*
X96593333Y-128286190D01*
X96688571Y-128238571D01*
X97212380Y-128238571D01*
X97212380Y-127333809D02*
X96688571Y-127333809D01*
X96593333Y-127381428D01*
X96545714Y-127476666D01*
X96545714Y-127667142D01*
X96593333Y-127762380D01*
X97164761Y-127333809D02*
X97212380Y-127429047D01*
X97212380Y-127667142D01*
X97164761Y-127762380D01*
X97069523Y-127810000D01*
X96974285Y-127810000D01*
X96879047Y-127762380D01*
X96831428Y-127667142D01*
X96831428Y-127429047D01*
X96783809Y-127333809D01*
X97212380Y-126714761D02*
X97164761Y-126810000D01*
X97069523Y-126857619D01*
X96212380Y-126857619D01*
X171840952Y-119832380D02*
X171364761Y-119832380D01*
X171364761Y-118832380D01*
X172174285Y-119308571D02*
X172507619Y-119308571D01*
X172650476Y-119832380D02*
X172174285Y-119832380D01*
X172174285Y-118832380D01*
X172650476Y-118832380D01*
X173079047Y-119832380D02*
X173079047Y-118832380D01*
X173317142Y-118832380D01*
X173460000Y-118880000D01*
X173555238Y-118975238D01*
X173602857Y-119070476D01*
X173650476Y-119260952D01*
X173650476Y-119403809D01*
X173602857Y-119594285D01*
X173555238Y-119689523D01*
X173460000Y-119784761D01*
X173317142Y-119832380D01*
X173079047Y-119832380D01*
X174269523Y-118832380D02*
X174364761Y-118832380D01*
X174460000Y-118880000D01*
X174507619Y-118927619D01*
X174555238Y-119022857D01*
X174602857Y-119213333D01*
X174602857Y-119451428D01*
X174555238Y-119641904D01*
X174507619Y-119737142D01*
X174460000Y-119784761D01*
X174364761Y-119832380D01*
X174269523Y-119832380D01*
X174174285Y-119784761D01*
X174126666Y-119737142D01*
X174079047Y-119641904D01*
X174031428Y-119451428D01*
X174031428Y-119213333D01*
X174079047Y-119022857D01*
X174126666Y-118927619D01*
X174174285Y-118880000D01*
X174269523Y-118832380D01*
X171840952Y-137612380D02*
X171364761Y-137612380D01*
X171364761Y-136612380D01*
X172174285Y-137088571D02*
X172507619Y-137088571D01*
X172650476Y-137612380D02*
X172174285Y-137612380D01*
X172174285Y-136612380D01*
X172650476Y-136612380D01*
X173079047Y-137612380D02*
X173079047Y-136612380D01*
X173317142Y-136612380D01*
X173460000Y-136660000D01*
X173555238Y-136755238D01*
X173602857Y-136850476D01*
X173650476Y-137040952D01*
X173650476Y-137183809D01*
X173602857Y-137374285D01*
X173555238Y-137469523D01*
X173460000Y-137564761D01*
X173317142Y-137612380D01*
X173079047Y-137612380D01*
X174602857Y-137612380D02*
X174031428Y-137612380D01*
X174317142Y-137612380D02*
X174317142Y-136612380D01*
X174221904Y-136755238D01*
X174126666Y-136850476D01*
X174031428Y-136898095D01*
X98180952Y-137612380D02*
X97704761Y-137612380D01*
X97704761Y-136612380D01*
X98514285Y-137088571D02*
X98847619Y-137088571D01*
X98990476Y-137612380D02*
X98514285Y-137612380D01*
X98514285Y-136612380D01*
X98990476Y-136612380D01*
X99419047Y-137612380D02*
X99419047Y-136612380D01*
X99657142Y-136612380D01*
X99800000Y-136660000D01*
X99895238Y-136755238D01*
X99942857Y-136850476D01*
X99990476Y-137040952D01*
X99990476Y-137183809D01*
X99942857Y-137374285D01*
X99895238Y-137469523D01*
X99800000Y-137564761D01*
X99657142Y-137612380D01*
X99419047Y-137612380D01*
X100942857Y-137612380D02*
X100371428Y-137612380D01*
X100657142Y-137612380D02*
X100657142Y-136612380D01*
X100561904Y-136755238D01*
X100466666Y-136850476D01*
X100371428Y-136898095D01*
X98180952Y-119832380D02*
X97704761Y-119832380D01*
X97704761Y-118832380D01*
X98514285Y-119308571D02*
X98847619Y-119308571D01*
X98990476Y-119832380D02*
X98514285Y-119832380D01*
X98514285Y-118832380D01*
X98990476Y-118832380D01*
X99419047Y-119832380D02*
X99419047Y-118832380D01*
X99657142Y-118832380D01*
X99800000Y-118880000D01*
X99895238Y-118975238D01*
X99942857Y-119070476D01*
X99990476Y-119260952D01*
X99990476Y-119403809D01*
X99942857Y-119594285D01*
X99895238Y-119689523D01*
X99800000Y-119784761D01*
X99657142Y-119832380D01*
X99419047Y-119832380D01*
X100609523Y-118832380D02*
X100704761Y-118832380D01*
X100800000Y-118880000D01*
X100847619Y-118927619D01*
X100895238Y-119022857D01*
X100942857Y-119213333D01*
X100942857Y-119451428D01*
X100895238Y-119641904D01*
X100847619Y-119737142D01*
X100800000Y-119784761D01*
X100704761Y-119832380D01*
X100609523Y-119832380D01*
X100514285Y-119784761D01*
X100466666Y-119737142D01*
X100419047Y-119641904D01*
X100371428Y-119451428D01*
X100371428Y-119213333D01*
X100419047Y-119022857D01*
X100466666Y-118927619D01*
X100514285Y-118880000D01*
X100609523Y-118832380D01*
D11*
X178650000Y-145050000D02*
X178650000Y-108450000D01*
X94350000Y-145050000D02*
X94350000Y-108450000D01*
X167455000Y-60895000D02*
X167455000Y-53945000D01*
X165555000Y-60895000D02*
X165555000Y-53945000D01*
X178655000Y-61845000D02*
X178655000Y-53945000D01*
X178155000Y-53445000D02*
X167955000Y-53445000D01*
X94355000Y-61845000D02*
X94355000Y-53945000D01*
X165055000Y-53445000D02*
X94855000Y-53445000D01*
X178655000Y-53945000D02*
X178155000Y-53445000D01*
X167455000Y-53945000D02*
X167955000Y-53445000D01*
X165555000Y-53945000D02*
X165055000Y-53445000D01*
X94355000Y-53945000D02*
X94855000Y-53445000D01*
X167455000Y-60895000D02*
G75*
G02X165555000Y-60895000I-950000J0D01*
G01*
D12*
X118555000Y-71105000D02*
X118555000Y-68365000D01*
X118555000Y-68365000D02*
X112015000Y-68365000D01*
X112015000Y-68365000D02*
X112015000Y-71105000D01*
X112015000Y-71105000D02*
X118555000Y-71105000D01*
X119325000Y-69735000D02*
X118555000Y-69735000D01*
X111245000Y-69735000D02*
X112015000Y-69735000D01*
X146035000Y-96465000D02*
G75*
G02X148035000Y-96465000I1000000J0D01*
G01*
X148035000Y-96465000D02*
X149685000Y-96465000D01*
X149685000Y-96465000D02*
X149685000Y-91265000D01*
X149685000Y-91265000D02*
X144385000Y-91265000D01*
X144385000Y-91265000D02*
X144385000Y-96465000D01*
X144385000Y-96465000D02*
X146035000Y-96465000D01*
X166125000Y-70465000D02*
X155885000Y-70465000D01*
X166125000Y-65824000D02*
X155885000Y-65824000D01*
X166125000Y-70465000D02*
X166125000Y-65824000D01*
X155885000Y-70465000D02*
X155885000Y-65824000D01*
X166125000Y-68955000D02*
X155885000Y-68955000D01*
X162855000Y-70465000D02*
X162855000Y-68955000D01*
X159154000Y-70465000D02*
X159154000Y-68955000D01*
X98715000Y-78685000D02*
X101375000Y-78685000D01*
X98715000Y-76085000D02*
X98715000Y-78685000D01*
X101375000Y-76085000D02*
X101375000Y-78685000D01*
X98715000Y-76085000D02*
X101375000Y-76085000D01*
X98715000Y-74815000D02*
X98715000Y-73485000D01*
X98715000Y-73485000D02*
X100045000Y-73485000D01*
X122945000Y-80625000D02*
X112705000Y-80625000D01*
X122945000Y-75984000D02*
X112705000Y-75984000D01*
X122945000Y-80625000D02*
X122945000Y-75984000D01*
X112705000Y-80625000D02*
X112705000Y-75984000D01*
X122945000Y-79115000D02*
X112705000Y-79115000D01*
X119675000Y-80625000D02*
X119675000Y-79115000D01*
X115974000Y-80625000D02*
X115974000Y-79115000D01*
X157735000Y-75985000D02*
X157735000Y-78725000D01*
X157735000Y-78725000D02*
X164275000Y-78725000D01*
X164275000Y-78725000D02*
X164275000Y-75985000D01*
X164275000Y-75985000D02*
X157735000Y-75985000D01*
X156965000Y-77355000D02*
X157735000Y-77355000D01*
X165045000Y-77355000D02*
X164275000Y-77355000D01*
X98715000Y-96465000D02*
X101375000Y-96465000D01*
X98715000Y-93865000D02*
X98715000Y-96465000D01*
X101375000Y-93865000D02*
X101375000Y-96465000D01*
X98715000Y-93865000D02*
X101375000Y-93865000D01*
X98715000Y-92595000D02*
X98715000Y-91265000D01*
X98715000Y-91265000D02*
X100045000Y-91265000D01*
X157735000Y-93765000D02*
X157735000Y-96505000D01*
X157735000Y-96505000D02*
X164275000Y-96505000D01*
X164275000Y-96505000D02*
X164275000Y-93765000D01*
X164275000Y-93765000D02*
X157735000Y-93765000D01*
X156965000Y-95135000D02*
X157735000Y-95135000D01*
X165045000Y-95135000D02*
X164275000Y-95135000D01*
X122945000Y-98405000D02*
X112705000Y-98405000D01*
X122945000Y-93764000D02*
X112705000Y-93764000D01*
X122945000Y-98405000D02*
X122945000Y-93764000D01*
X112705000Y-98405000D02*
X112705000Y-93764000D01*
X122945000Y-96895000D02*
X112705000Y-96895000D01*
X119675000Y-98405000D02*
X119675000Y-96895000D01*
X115974000Y-98405000D02*
X115974000Y-96895000D01*
X129795000Y-68365000D02*
X129795000Y-71105000D01*
X129795000Y-71105000D02*
X136335000Y-71105000D01*
X136335000Y-71105000D02*
X136335000Y-68365000D01*
X136335000Y-68365000D02*
X129795000Y-68365000D01*
X129025000Y-69735000D02*
X129795000Y-69735000D01*
X137105000Y-69735000D02*
X136335000Y-69735000D01*
X146035000Y-78685000D02*
G75*
G02X148035000Y-78685000I1000000J0D01*
G01*
X148035000Y-78685000D02*
X149685000Y-78685000D01*
X149685000Y-78685000D02*
X149685000Y-73485000D01*
X149685000Y-73485000D02*
X144385000Y-73485000D01*
X144385000Y-73485000D02*
X144385000Y-78685000D01*
X144385000Y-78685000D02*
X146035000Y-78685000D01*
X172375000Y-96465000D02*
X175035000Y-96465000D01*
X172375000Y-93865000D02*
X172375000Y-96465000D01*
X175035000Y-93865000D02*
X175035000Y-96465000D01*
X172375000Y-93865000D02*
X175035000Y-93865000D01*
X172375000Y-92595000D02*
X172375000Y-91265000D01*
X172375000Y-91265000D02*
X173705000Y-91265000D01*
X129795000Y-75985000D02*
X129795000Y-78725000D01*
X129795000Y-78725000D02*
X136335000Y-78725000D01*
X136335000Y-78725000D02*
X136335000Y-75985000D01*
X136335000Y-75985000D02*
X129795000Y-75985000D01*
X129025000Y-77355000D02*
X129795000Y-77355000D01*
X137105000Y-77355000D02*
X136335000Y-77355000D01*
X172375000Y-78685000D02*
X175035000Y-78685000D01*
X172375000Y-76085000D02*
X172375000Y-78685000D01*
X175035000Y-76085000D02*
X175035000Y-78685000D01*
X172375000Y-76085000D02*
X175035000Y-76085000D01*
X172375000Y-74815000D02*
X172375000Y-73485000D01*
X172375000Y-73485000D02*
X173705000Y-73485000D01*
X129795000Y-93765000D02*
X129795000Y-96505000D01*
X129795000Y-96505000D02*
X136335000Y-96505000D01*
X136335000Y-96505000D02*
X136335000Y-93765000D01*
X136335000Y-93765000D02*
X129795000Y-93765000D01*
X129025000Y-95135000D02*
X129795000Y-95135000D01*
X137105000Y-95135000D02*
X136335000Y-95135000D01*
X129795000Y-86145000D02*
X129795000Y-88885000D01*
X129795000Y-88885000D02*
X136335000Y-88885000D01*
X136335000Y-88885000D02*
X136335000Y-86145000D01*
X136335000Y-86145000D02*
X129795000Y-86145000D01*
X129025000Y-87515000D02*
X129795000Y-87515000D01*
X137105000Y-87515000D02*
X136335000Y-87515000D01*
X118555000Y-88885000D02*
X118555000Y-86145000D01*
X118555000Y-86145000D02*
X112015000Y-86145000D01*
X112015000Y-86145000D02*
X112015000Y-88885000D01*
X112015000Y-88885000D02*
X118555000Y-88885000D01*
X119325000Y-87515000D02*
X118555000Y-87515000D01*
X111245000Y-87515000D02*
X112015000Y-87515000D01*
X128620000Y-110430000D02*
X126970000Y-110430000D01*
X128620000Y-115630000D02*
X128620000Y-110430000D01*
X123320000Y-115630000D02*
X128620000Y-115630000D01*
X123320000Y-110430000D02*
X123320000Y-115630000D01*
X124970000Y-110430000D02*
X123320000Y-110430000D01*
X126970000Y-110430000D02*
G75*
G02X124970000Y-110430000I-1000000J0D01*
G01*
X161760000Y-119380000D02*
X160990000Y-119380000D01*
X153680000Y-119380000D02*
X154450000Y-119380000D01*
X160990000Y-118010000D02*
X154450000Y-118010000D01*
X160990000Y-120750000D02*
X160990000Y-118010000D01*
X154450000Y-120750000D02*
X160990000Y-120750000D01*
X154450000Y-118010000D02*
X154450000Y-120750000D01*
X135900000Y-119380000D02*
X136670000Y-119380000D01*
X143980000Y-119380000D02*
X143210000Y-119380000D01*
X136670000Y-120750000D02*
X143210000Y-120750000D01*
X136670000Y-118010000D02*
X136670000Y-120750000D01*
X143210000Y-118010000D02*
X136670000Y-118010000D01*
X143210000Y-120750000D02*
X143210000Y-118010000D01*
X107960000Y-111760000D02*
X108730000Y-111760000D01*
X116040000Y-111760000D02*
X115270000Y-111760000D01*
X108730000Y-113130000D02*
X115270000Y-113130000D01*
X108730000Y-110390000D02*
X108730000Y-113130000D01*
X115270000Y-110390000D02*
X108730000Y-110390000D01*
X115270000Y-113130000D02*
X115270000Y-110390000D01*
X135900000Y-111760000D02*
X136670000Y-111760000D01*
X143980000Y-111760000D02*
X143210000Y-111760000D01*
X136670000Y-113130000D02*
X143210000Y-113130000D01*
X136670000Y-110390000D02*
X136670000Y-113130000D01*
X143210000Y-110390000D02*
X136670000Y-110390000D01*
X143210000Y-113130000D02*
X143210000Y-110390000D01*
X157031000Y-108490000D02*
X157031000Y-110000000D01*
X153330000Y-108490000D02*
X153330000Y-110000000D01*
X150060000Y-110000000D02*
X160300000Y-110000000D01*
X160300000Y-108490000D02*
X160300000Y-113131000D01*
X150060000Y-108490000D02*
X150060000Y-113131000D01*
X150060000Y-113131000D02*
X160300000Y-113131000D01*
X150060000Y-108490000D02*
X160300000Y-108490000D01*
X100630000Y-115630000D02*
X99300000Y-115630000D01*
X100630000Y-114300000D02*
X100630000Y-115630000D01*
X100630000Y-113030000D02*
X97970000Y-113030000D01*
X97970000Y-113030000D02*
X97970000Y-110430000D01*
X100630000Y-113030000D02*
X100630000Y-110430000D01*
X100630000Y-110430000D02*
X97970000Y-110430000D01*
X174290000Y-115630000D02*
X172960000Y-115630000D01*
X174290000Y-114300000D02*
X174290000Y-115630000D01*
X174290000Y-113030000D02*
X171630000Y-113030000D01*
X171630000Y-113030000D02*
X171630000Y-110430000D01*
X174290000Y-113030000D02*
X174290000Y-110430000D01*
X174290000Y-110430000D02*
X171630000Y-110430000D01*
X128620000Y-128210000D02*
X126970000Y-128210000D01*
X128620000Y-133410000D02*
X128620000Y-128210000D01*
X123320000Y-133410000D02*
X128620000Y-133410000D01*
X123320000Y-128210000D02*
X123320000Y-133410000D01*
X124970000Y-128210000D02*
X123320000Y-128210000D01*
X126970000Y-128210000D02*
G75*
G02X124970000Y-128210000I-1000000J0D01*
G01*
D11*
X105550000Y-146000000D02*
G75*
G02X107450000Y-146000000I950000J0D01*
G01*
X178650000Y-152950000D02*
X178150000Y-153450000D01*
X107450000Y-152950000D02*
X107950000Y-153450000D01*
X105550000Y-152950000D02*
X105050000Y-153450000D01*
X94350000Y-152950000D02*
X94850000Y-153450000D01*
X107950000Y-153450000D02*
X178150000Y-153450000D01*
X178650000Y-145050000D02*
X178650000Y-152950000D01*
X94850000Y-153450000D02*
X105050000Y-153450000D01*
X94350000Y-145050000D02*
X94350000Y-152950000D01*
X107450000Y-146000000D02*
X107450000Y-152950000D01*
X105550000Y-146000000D02*
X105550000Y-152950000D01*
D12*
X113851000Y-136430000D02*
X113851000Y-137940000D01*
X110150000Y-136430000D02*
X110150000Y-137940000D01*
X106880000Y-137940000D02*
X117120000Y-137940000D01*
X117120000Y-136430000D02*
X117120000Y-141071000D01*
X106880000Y-136430000D02*
X106880000Y-141071000D01*
X106880000Y-141071000D02*
X117120000Y-141071000D01*
X106880000Y-136430000D02*
X117120000Y-136430000D01*
X161760000Y-137160000D02*
X160990000Y-137160000D01*
X153680000Y-137160000D02*
X154450000Y-137160000D01*
X160990000Y-135790000D02*
X154450000Y-135790000D01*
X160990000Y-138530000D02*
X160990000Y-135790000D01*
X154450000Y-138530000D02*
X160990000Y-138530000D01*
X154450000Y-135790000D02*
X154450000Y-138530000D01*
X135900000Y-137160000D02*
X136670000Y-137160000D01*
X143980000Y-137160000D02*
X143210000Y-137160000D01*
X136670000Y-138530000D02*
X143210000Y-138530000D01*
X136670000Y-135790000D02*
X136670000Y-138530000D01*
X143210000Y-135790000D02*
X136670000Y-135790000D01*
X143210000Y-138530000D02*
X143210000Y-135790000D01*
X135900000Y-129540000D02*
X136670000Y-129540000D01*
X143980000Y-129540000D02*
X143210000Y-129540000D01*
X136670000Y-130910000D02*
X143210000Y-130910000D01*
X136670000Y-128170000D02*
X136670000Y-130910000D01*
X143210000Y-128170000D02*
X136670000Y-128170000D01*
X143210000Y-130910000D02*
X143210000Y-128170000D01*
X107960000Y-129540000D02*
X108730000Y-129540000D01*
X116040000Y-129540000D02*
X115270000Y-129540000D01*
X108730000Y-130910000D02*
X115270000Y-130910000D01*
X108730000Y-128170000D02*
X108730000Y-130910000D01*
X115270000Y-128170000D02*
X108730000Y-128170000D01*
X115270000Y-130910000D02*
X115270000Y-128170000D01*
X157031000Y-126270000D02*
X157031000Y-127780000D01*
X153330000Y-126270000D02*
X153330000Y-127780000D01*
X150060000Y-127780000D02*
X160300000Y-127780000D01*
X160300000Y-126270000D02*
X160300000Y-130911000D01*
X150060000Y-126270000D02*
X150060000Y-130911000D01*
X150060000Y-130911000D02*
X160300000Y-130911000D01*
X150060000Y-126270000D02*
X160300000Y-126270000D01*
X100630000Y-133410000D02*
X99300000Y-133410000D01*
X100630000Y-132080000D02*
X100630000Y-133410000D01*
X100630000Y-130810000D02*
X97970000Y-130810000D01*
X97970000Y-130810000D02*
X97970000Y-128210000D01*
X100630000Y-130810000D02*
X100630000Y-128210000D01*
X100630000Y-128210000D02*
X97970000Y-128210000D01*
X174290000Y-133410000D02*
X172960000Y-133410000D01*
X174290000Y-132080000D02*
X174290000Y-133410000D01*
X174290000Y-130810000D02*
X171630000Y-130810000D01*
X171630000Y-130810000D02*
X171630000Y-128210000D01*
X174290000Y-130810000D02*
X174290000Y-128210000D01*
X174290000Y-128210000D02*
X171630000Y-128210000D01*
D10*
X172671666Y-59847380D02*
X172671666Y-60561666D01*
X172624047Y-60704523D01*
X172528809Y-60799761D01*
X172385952Y-60847380D01*
X172290714Y-60847380D01*
X173100238Y-59942619D02*
X173147857Y-59895000D01*
X173243095Y-59847380D01*
X173481190Y-59847380D01*
X173576428Y-59895000D01*
X173624047Y-59942619D01*
X173671666Y-60037857D01*
X173671666Y-60133095D01*
X173624047Y-60275952D01*
X173052619Y-60847380D01*
X173671666Y-60847380D01*
X115118333Y-72557380D02*
X114785000Y-72081190D01*
X114546904Y-72557380D02*
X114546904Y-71557380D01*
X114927857Y-71557380D01*
X115023095Y-71605000D01*
X115070714Y-71652619D01*
X115118333Y-71747857D01*
X115118333Y-71890714D01*
X115070714Y-71985952D01*
X115023095Y-72033571D01*
X114927857Y-72081190D01*
X114546904Y-72081190D01*
X115975476Y-71890714D02*
X115975476Y-72557380D01*
X115737380Y-71509761D02*
X115499285Y-72224047D01*
X116118333Y-72224047D01*
X146273095Y-96917380D02*
X146273095Y-97726904D01*
X146320714Y-97822142D01*
X146368333Y-97869761D01*
X146463571Y-97917380D01*
X146654047Y-97917380D01*
X146749285Y-97869761D01*
X146796904Y-97822142D01*
X146844523Y-97726904D01*
X146844523Y-96917380D01*
X147749285Y-97250714D02*
X147749285Y-97917380D01*
X147511190Y-96869761D02*
X147273095Y-97584047D01*
X147892142Y-97584047D01*
X160243095Y-70917380D02*
X160243095Y-71726904D01*
X160290714Y-71822142D01*
X160338333Y-71869761D01*
X160433571Y-71917380D01*
X160624047Y-71917380D01*
X160719285Y-71869761D01*
X160766904Y-71822142D01*
X160814523Y-71726904D01*
X160814523Y-70917380D01*
X161814523Y-71917380D02*
X161243095Y-71917380D01*
X161528809Y-71917380D02*
X161528809Y-70917380D01*
X161433571Y-71060238D01*
X161338333Y-71155476D01*
X161243095Y-71203095D01*
X99306904Y-72937380D02*
X99306904Y-71937380D01*
X99545000Y-71937380D01*
X99687857Y-71985000D01*
X99783095Y-72080238D01*
X99830714Y-72175476D01*
X99878333Y-72365952D01*
X99878333Y-72508809D01*
X99830714Y-72699285D01*
X99783095Y-72794523D01*
X99687857Y-72889761D01*
X99545000Y-72937380D01*
X99306904Y-72937380D01*
X100830714Y-72937380D02*
X100259285Y-72937380D01*
X100545000Y-72937380D02*
X100545000Y-71937380D01*
X100449761Y-72080238D01*
X100354523Y-72175476D01*
X100259285Y-72223095D01*
X117729761Y-82172619D02*
X117634523Y-82125000D01*
X117539285Y-82029761D01*
X117396428Y-81886904D01*
X117301190Y-81839285D01*
X117205952Y-81839285D01*
X117253571Y-82077380D02*
X117158333Y-82029761D01*
X117063095Y-81934523D01*
X117015476Y-81744047D01*
X117015476Y-81410714D01*
X117063095Y-81220238D01*
X117158333Y-81125000D01*
X117253571Y-81077380D01*
X117444047Y-81077380D01*
X117539285Y-81125000D01*
X117634523Y-81220238D01*
X117682142Y-81410714D01*
X117682142Y-81744047D01*
X117634523Y-81934523D01*
X117539285Y-82029761D01*
X117444047Y-82077380D01*
X117253571Y-82077380D01*
X118634523Y-82077380D02*
X118063095Y-82077380D01*
X118348809Y-82077380D02*
X118348809Y-81077380D01*
X118253571Y-81220238D01*
X118158333Y-81315476D01*
X118063095Y-81363095D01*
X160838333Y-75437380D02*
X160505000Y-74961190D01*
X160266904Y-75437380D02*
X160266904Y-74437380D01*
X160647857Y-74437380D01*
X160743095Y-74485000D01*
X160790714Y-74532619D01*
X160838333Y-74627857D01*
X160838333Y-74770714D01*
X160790714Y-74865952D01*
X160743095Y-74913571D01*
X160647857Y-74961190D01*
X160266904Y-74961190D01*
X161790714Y-75437380D02*
X161219285Y-75437380D01*
X161505000Y-75437380D02*
X161505000Y-74437380D01*
X161409761Y-74580238D01*
X161314523Y-74675476D01*
X161219285Y-74723095D01*
X99306904Y-90717380D02*
X99306904Y-89717380D01*
X99545000Y-89717380D01*
X99687857Y-89765000D01*
X99783095Y-89860238D01*
X99830714Y-89955476D01*
X99878333Y-90145952D01*
X99878333Y-90288809D01*
X99830714Y-90479285D01*
X99783095Y-90574523D01*
X99687857Y-90669761D01*
X99545000Y-90717380D01*
X99306904Y-90717380D01*
X100259285Y-89812619D02*
X100306904Y-89765000D01*
X100402142Y-89717380D01*
X100640238Y-89717380D01*
X100735476Y-89765000D01*
X100783095Y-89812619D01*
X100830714Y-89907857D01*
X100830714Y-90003095D01*
X100783095Y-90145952D01*
X100211666Y-90717380D01*
X100830714Y-90717380D01*
X160838333Y-93217380D02*
X160505000Y-92741190D01*
X160266904Y-93217380D02*
X160266904Y-92217380D01*
X160647857Y-92217380D01*
X160743095Y-92265000D01*
X160790714Y-92312619D01*
X160838333Y-92407857D01*
X160838333Y-92550714D01*
X160790714Y-92645952D01*
X160743095Y-92693571D01*
X160647857Y-92741190D01*
X160266904Y-92741190D01*
X161695476Y-92217380D02*
X161505000Y-92217380D01*
X161409761Y-92265000D01*
X161362142Y-92312619D01*
X161266904Y-92455476D01*
X161219285Y-92645952D01*
X161219285Y-93026904D01*
X161266904Y-93122142D01*
X161314523Y-93169761D01*
X161409761Y-93217380D01*
X161600238Y-93217380D01*
X161695476Y-93169761D01*
X161743095Y-93122142D01*
X161790714Y-93026904D01*
X161790714Y-92788809D01*
X161743095Y-92693571D01*
X161695476Y-92645952D01*
X161600238Y-92598333D01*
X161409761Y-92598333D01*
X161314523Y-92645952D01*
X161266904Y-92693571D01*
X161219285Y-92788809D01*
X117729761Y-99952619D02*
X117634523Y-99905000D01*
X117539285Y-99809761D01*
X117396428Y-99666904D01*
X117301190Y-99619285D01*
X117205952Y-99619285D01*
X117253571Y-99857380D02*
X117158333Y-99809761D01*
X117063095Y-99714523D01*
X117015476Y-99524047D01*
X117015476Y-99190714D01*
X117063095Y-99000238D01*
X117158333Y-98905000D01*
X117253571Y-98857380D01*
X117444047Y-98857380D01*
X117539285Y-98905000D01*
X117634523Y-99000238D01*
X117682142Y-99190714D01*
X117682142Y-99524047D01*
X117634523Y-99714523D01*
X117539285Y-99809761D01*
X117444047Y-99857380D01*
X117253571Y-99857380D01*
X118063095Y-98952619D02*
X118110714Y-98905000D01*
X118205952Y-98857380D01*
X118444047Y-98857380D01*
X118539285Y-98905000D01*
X118586904Y-98952619D01*
X118634523Y-99047857D01*
X118634523Y-99143095D01*
X118586904Y-99285952D01*
X118015476Y-99857380D01*
X118634523Y-99857380D01*
X132898333Y-67817380D02*
X132565000Y-67341190D01*
X132326904Y-67817380D02*
X132326904Y-66817380D01*
X132707857Y-66817380D01*
X132803095Y-66865000D01*
X132850714Y-66912619D01*
X132898333Y-67007857D01*
X132898333Y-67150714D01*
X132850714Y-67245952D01*
X132803095Y-67293571D01*
X132707857Y-67341190D01*
X132326904Y-67341190D01*
X133231666Y-66817380D02*
X133850714Y-66817380D01*
X133517380Y-67198333D01*
X133660238Y-67198333D01*
X133755476Y-67245952D01*
X133803095Y-67293571D01*
X133850714Y-67388809D01*
X133850714Y-67626904D01*
X133803095Y-67722142D01*
X133755476Y-67769761D01*
X133660238Y-67817380D01*
X133374523Y-67817380D01*
X133279285Y-67769761D01*
X133231666Y-67722142D01*
X146273095Y-79137380D02*
X146273095Y-79946904D01*
X146320714Y-80042142D01*
X146368333Y-80089761D01*
X146463571Y-80137380D01*
X146654047Y-80137380D01*
X146749285Y-80089761D01*
X146796904Y-80042142D01*
X146844523Y-79946904D01*
X146844523Y-79137380D01*
X147273095Y-79232619D02*
X147320714Y-79185000D01*
X147415952Y-79137380D01*
X147654047Y-79137380D01*
X147749285Y-79185000D01*
X147796904Y-79232619D01*
X147844523Y-79327857D01*
X147844523Y-79423095D01*
X147796904Y-79565952D01*
X147225476Y-80137380D01*
X147844523Y-80137380D01*
X173371666Y-89717380D02*
X173371666Y-90431666D01*
X173324047Y-90574523D01*
X173228809Y-90669761D01*
X173085952Y-90717380D01*
X172990714Y-90717380D01*
X173752619Y-89717380D02*
X174371666Y-89717380D01*
X174038333Y-90098333D01*
X174181190Y-90098333D01*
X174276428Y-90145952D01*
X174324047Y-90193571D01*
X174371666Y-90288809D01*
X174371666Y-90526904D01*
X174324047Y-90622142D01*
X174276428Y-90669761D01*
X174181190Y-90717380D01*
X173895476Y-90717380D01*
X173800238Y-90669761D01*
X173752619Y-90622142D01*
X132898333Y-75437380D02*
X132565000Y-74961190D01*
X132326904Y-75437380D02*
X132326904Y-74437380D01*
X132707857Y-74437380D01*
X132803095Y-74485000D01*
X132850714Y-74532619D01*
X132898333Y-74627857D01*
X132898333Y-74770714D01*
X132850714Y-74865952D01*
X132803095Y-74913571D01*
X132707857Y-74961190D01*
X132326904Y-74961190D01*
X133279285Y-74532619D02*
X133326904Y-74485000D01*
X133422142Y-74437380D01*
X133660238Y-74437380D01*
X133755476Y-74485000D01*
X133803095Y-74532619D01*
X133850714Y-74627857D01*
X133850714Y-74723095D01*
X133803095Y-74865952D01*
X133231666Y-75437380D01*
X133850714Y-75437380D01*
X173371666Y-71937380D02*
X173371666Y-72651666D01*
X173324047Y-72794523D01*
X173228809Y-72889761D01*
X173085952Y-72937380D01*
X172990714Y-72937380D01*
X174371666Y-72937380D02*
X173800238Y-72937380D01*
X174085952Y-72937380D02*
X174085952Y-71937380D01*
X173990714Y-72080238D01*
X173895476Y-72175476D01*
X173800238Y-72223095D01*
X132898333Y-93217380D02*
X132565000Y-92741190D01*
X132326904Y-93217380D02*
X132326904Y-92217380D01*
X132707857Y-92217380D01*
X132803095Y-92265000D01*
X132850714Y-92312619D01*
X132898333Y-92407857D01*
X132898333Y-92550714D01*
X132850714Y-92645952D01*
X132803095Y-92693571D01*
X132707857Y-92741190D01*
X132326904Y-92741190D01*
X133803095Y-92217380D02*
X133326904Y-92217380D01*
X133279285Y-92693571D01*
X133326904Y-92645952D01*
X133422142Y-92598333D01*
X133660238Y-92598333D01*
X133755476Y-92645952D01*
X133803095Y-92693571D01*
X133850714Y-92788809D01*
X133850714Y-93026904D01*
X133803095Y-93122142D01*
X133755476Y-93169761D01*
X133660238Y-93217380D01*
X133422142Y-93217380D01*
X133326904Y-93169761D01*
X133279285Y-93122142D01*
X132898333Y-85597380D02*
X132565000Y-85121190D01*
X132326904Y-85597380D02*
X132326904Y-84597380D01*
X132707857Y-84597380D01*
X132803095Y-84645000D01*
X132850714Y-84692619D01*
X132898333Y-84787857D01*
X132898333Y-84930714D01*
X132850714Y-85025952D01*
X132803095Y-85073571D01*
X132707857Y-85121190D01*
X132326904Y-85121190D01*
X133231666Y-84597380D02*
X133898333Y-84597380D01*
X133469761Y-85597380D01*
X115118333Y-90337380D02*
X114785000Y-89861190D01*
X114546904Y-90337380D02*
X114546904Y-89337380D01*
X114927857Y-89337380D01*
X115023095Y-89385000D01*
X115070714Y-89432619D01*
X115118333Y-89527857D01*
X115118333Y-89670714D01*
X115070714Y-89765952D01*
X115023095Y-89813571D01*
X114927857Y-89861190D01*
X114546904Y-89861190D01*
X115689761Y-89765952D02*
X115594523Y-89718333D01*
X115546904Y-89670714D01*
X115499285Y-89575476D01*
X115499285Y-89527857D01*
X115546904Y-89432619D01*
X115594523Y-89385000D01*
X115689761Y-89337380D01*
X115880238Y-89337380D01*
X115975476Y-89385000D01*
X116023095Y-89432619D01*
X116070714Y-89527857D01*
X116070714Y-89575476D01*
X116023095Y-89670714D01*
X115975476Y-89718333D01*
X115880238Y-89765952D01*
X115689761Y-89765952D01*
X115594523Y-89813571D01*
X115546904Y-89861190D01*
X115499285Y-89956428D01*
X115499285Y-90146904D01*
X115546904Y-90242142D01*
X115594523Y-90289761D01*
X115689761Y-90337380D01*
X115880238Y-90337380D01*
X115975476Y-90289761D01*
X116023095Y-90242142D01*
X116070714Y-90146904D01*
X116070714Y-89956428D01*
X116023095Y-89861190D01*
X115975476Y-89813571D01*
X115880238Y-89765952D01*
X125208095Y-108882380D02*
X125208095Y-109691904D01*
X125255714Y-109787142D01*
X125303333Y-109834761D01*
X125398571Y-109882380D01*
X125589047Y-109882380D01*
X125684285Y-109834761D01*
X125731904Y-109787142D01*
X125779523Y-109691904D01*
X125779523Y-108882380D01*
X126684285Y-109215714D02*
X126684285Y-109882380D01*
X126446190Y-108834761D02*
X126208095Y-109549047D01*
X126827142Y-109549047D01*
X157553333Y-117462380D02*
X157220000Y-116986190D01*
X156981904Y-117462380D02*
X156981904Y-116462380D01*
X157362857Y-116462380D01*
X157458095Y-116510000D01*
X157505714Y-116557619D01*
X157553333Y-116652857D01*
X157553333Y-116795714D01*
X157505714Y-116890952D01*
X157458095Y-116938571D01*
X157362857Y-116986190D01*
X156981904Y-116986190D01*
X158124761Y-116890952D02*
X158029523Y-116843333D01*
X157981904Y-116795714D01*
X157934285Y-116700476D01*
X157934285Y-116652857D01*
X157981904Y-116557619D01*
X158029523Y-116510000D01*
X158124761Y-116462380D01*
X158315238Y-116462380D01*
X158410476Y-116510000D01*
X158458095Y-116557619D01*
X158505714Y-116652857D01*
X158505714Y-116700476D01*
X158458095Y-116795714D01*
X158410476Y-116843333D01*
X158315238Y-116890952D01*
X158124761Y-116890952D01*
X158029523Y-116938571D01*
X157981904Y-116986190D01*
X157934285Y-117081428D01*
X157934285Y-117271904D01*
X157981904Y-117367142D01*
X158029523Y-117414761D01*
X158124761Y-117462380D01*
X158315238Y-117462380D01*
X158410476Y-117414761D01*
X158458095Y-117367142D01*
X158505714Y-117271904D01*
X158505714Y-117081428D01*
X158458095Y-116986190D01*
X158410476Y-116938571D01*
X158315238Y-116890952D01*
X139773333Y-122202380D02*
X139440000Y-121726190D01*
X139201904Y-122202380D02*
X139201904Y-121202380D01*
X139582857Y-121202380D01*
X139678095Y-121250000D01*
X139725714Y-121297619D01*
X139773333Y-121392857D01*
X139773333Y-121535714D01*
X139725714Y-121630952D01*
X139678095Y-121678571D01*
X139582857Y-121726190D01*
X139201904Y-121726190D01*
X140106666Y-121202380D02*
X140773333Y-121202380D01*
X140344761Y-122202380D01*
X111833333Y-114582380D02*
X111500000Y-114106190D01*
X111261904Y-114582380D02*
X111261904Y-113582380D01*
X111642857Y-113582380D01*
X111738095Y-113630000D01*
X111785714Y-113677619D01*
X111833333Y-113772857D01*
X111833333Y-113915714D01*
X111785714Y-114010952D01*
X111738095Y-114058571D01*
X111642857Y-114106190D01*
X111261904Y-114106190D01*
X112690476Y-113582380D02*
X112500000Y-113582380D01*
X112404761Y-113630000D01*
X112357142Y-113677619D01*
X112261904Y-113820476D01*
X112214285Y-114010952D01*
X112214285Y-114391904D01*
X112261904Y-114487142D01*
X112309523Y-114534761D01*
X112404761Y-114582380D01*
X112595238Y-114582380D01*
X112690476Y-114534761D01*
X112738095Y-114487142D01*
X112785714Y-114391904D01*
X112785714Y-114153809D01*
X112738095Y-114058571D01*
X112690476Y-114010952D01*
X112595238Y-113963333D01*
X112404761Y-113963333D01*
X112309523Y-114010952D01*
X112261904Y-114058571D01*
X112214285Y-114153809D01*
X139773333Y-114582380D02*
X139440000Y-114106190D01*
X139201904Y-114582380D02*
X139201904Y-113582380D01*
X139582857Y-113582380D01*
X139678095Y-113630000D01*
X139725714Y-113677619D01*
X139773333Y-113772857D01*
X139773333Y-113915714D01*
X139725714Y-114010952D01*
X139678095Y-114058571D01*
X139582857Y-114106190D01*
X139201904Y-114106190D01*
X140678095Y-113582380D02*
X140201904Y-113582380D01*
X140154285Y-114058571D01*
X140201904Y-114010952D01*
X140297142Y-113963333D01*
X140535238Y-113963333D01*
X140630476Y-114010952D01*
X140678095Y-114058571D01*
X140725714Y-114153809D01*
X140725714Y-114391904D01*
X140678095Y-114487142D01*
X140630476Y-114534761D01*
X140535238Y-114582380D01*
X140297142Y-114582380D01*
X140201904Y-114534761D01*
X140154285Y-114487142D01*
X155084761Y-108037619D02*
X154989523Y-107990000D01*
X154894285Y-107894761D01*
X154751428Y-107751904D01*
X154656190Y-107704285D01*
X154560952Y-107704285D01*
X154608571Y-107942380D02*
X154513333Y-107894761D01*
X154418095Y-107799523D01*
X154370476Y-107609047D01*
X154370476Y-107275714D01*
X154418095Y-107085238D01*
X154513333Y-106990000D01*
X154608571Y-106942380D01*
X154799047Y-106942380D01*
X154894285Y-106990000D01*
X154989523Y-107085238D01*
X155037142Y-107275714D01*
X155037142Y-107609047D01*
X154989523Y-107799523D01*
X154894285Y-107894761D01*
X154799047Y-107942380D01*
X154608571Y-107942380D01*
X155418095Y-107037619D02*
X155465714Y-106990000D01*
X155560952Y-106942380D01*
X155799047Y-106942380D01*
X155894285Y-106990000D01*
X155941904Y-107037619D01*
X155989523Y-107132857D01*
X155989523Y-107228095D01*
X155941904Y-107370952D01*
X155370476Y-107942380D01*
X155989523Y-107942380D01*
X98966666Y-116082380D02*
X98966666Y-116796666D01*
X98919047Y-116939523D01*
X98823809Y-117034761D01*
X98680952Y-117082380D01*
X98585714Y-117082380D01*
X99347619Y-116082380D02*
X99966666Y-116082380D01*
X99633333Y-116463333D01*
X99776190Y-116463333D01*
X99871428Y-116510952D01*
X99919047Y-116558571D01*
X99966666Y-116653809D01*
X99966666Y-116891904D01*
X99919047Y-116987142D01*
X99871428Y-117034761D01*
X99776190Y-117082380D01*
X99490476Y-117082380D01*
X99395238Y-117034761D01*
X99347619Y-116987142D01*
X172221904Y-117082380D02*
X172221904Y-116082380D01*
X172460000Y-116082380D01*
X172602857Y-116130000D01*
X172698095Y-116225238D01*
X172745714Y-116320476D01*
X172793333Y-116510952D01*
X172793333Y-116653809D01*
X172745714Y-116844285D01*
X172698095Y-116939523D01*
X172602857Y-117034761D01*
X172460000Y-117082380D01*
X172221904Y-117082380D01*
X173174285Y-116177619D02*
X173221904Y-116130000D01*
X173317142Y-116082380D01*
X173555238Y-116082380D01*
X173650476Y-116130000D01*
X173698095Y-116177619D01*
X173745714Y-116272857D01*
X173745714Y-116368095D01*
X173698095Y-116510952D01*
X173126666Y-117082380D01*
X173745714Y-117082380D01*
X125208095Y-126662380D02*
X125208095Y-127471904D01*
X125255714Y-127567142D01*
X125303333Y-127614761D01*
X125398571Y-127662380D01*
X125589047Y-127662380D01*
X125684285Y-127614761D01*
X125731904Y-127567142D01*
X125779523Y-127471904D01*
X125779523Y-126662380D01*
X126208095Y-126757619D02*
X126255714Y-126710000D01*
X126350952Y-126662380D01*
X126589047Y-126662380D01*
X126684285Y-126710000D01*
X126731904Y-126757619D01*
X126779523Y-126852857D01*
X126779523Y-126948095D01*
X126731904Y-127090952D01*
X126160476Y-127662380D01*
X126779523Y-127662380D01*
X99666666Y-145952380D02*
X99666666Y-146666666D01*
X99619047Y-146809523D01*
X99523809Y-146904761D01*
X99380952Y-146952380D01*
X99285714Y-146952380D01*
X100095238Y-146047619D02*
X100142857Y-146000000D01*
X100238095Y-145952380D01*
X100476190Y-145952380D01*
X100571428Y-146000000D01*
X100619047Y-146047619D01*
X100666666Y-146142857D01*
X100666666Y-146238095D01*
X100619047Y-146380952D01*
X100047619Y-146952380D01*
X100666666Y-146952380D01*
X111238095Y-134882380D02*
X111238095Y-135691904D01*
X111285714Y-135787142D01*
X111333333Y-135834761D01*
X111428571Y-135882380D01*
X111619047Y-135882380D01*
X111714285Y-135834761D01*
X111761904Y-135787142D01*
X111809523Y-135691904D01*
X111809523Y-134882380D01*
X112809523Y-135882380D02*
X112238095Y-135882380D01*
X112523809Y-135882380D02*
X112523809Y-134882380D01*
X112428571Y-135025238D01*
X112333333Y-135120476D01*
X112238095Y-135168095D01*
X157553333Y-135242380D02*
X157220000Y-134766190D01*
X156981904Y-135242380D02*
X156981904Y-134242380D01*
X157362857Y-134242380D01*
X157458095Y-134290000D01*
X157505714Y-134337619D01*
X157553333Y-134432857D01*
X157553333Y-134575714D01*
X157505714Y-134670952D01*
X157458095Y-134718571D01*
X157362857Y-134766190D01*
X156981904Y-134766190D01*
X158410476Y-134575714D02*
X158410476Y-135242380D01*
X158172380Y-134194761D02*
X157934285Y-134909047D01*
X158553333Y-134909047D01*
X139773333Y-139982380D02*
X139440000Y-139506190D01*
X139201904Y-139982380D02*
X139201904Y-138982380D01*
X139582857Y-138982380D01*
X139678095Y-139030000D01*
X139725714Y-139077619D01*
X139773333Y-139172857D01*
X139773333Y-139315714D01*
X139725714Y-139410952D01*
X139678095Y-139458571D01*
X139582857Y-139506190D01*
X139201904Y-139506190D01*
X140106666Y-138982380D02*
X140725714Y-138982380D01*
X140392380Y-139363333D01*
X140535238Y-139363333D01*
X140630476Y-139410952D01*
X140678095Y-139458571D01*
X140725714Y-139553809D01*
X140725714Y-139791904D01*
X140678095Y-139887142D01*
X140630476Y-139934761D01*
X140535238Y-139982380D01*
X140249523Y-139982380D01*
X140154285Y-139934761D01*
X140106666Y-139887142D01*
X139773333Y-132362380D02*
X139440000Y-131886190D01*
X139201904Y-132362380D02*
X139201904Y-131362380D01*
X139582857Y-131362380D01*
X139678095Y-131410000D01*
X139725714Y-131457619D01*
X139773333Y-131552857D01*
X139773333Y-131695714D01*
X139725714Y-131790952D01*
X139678095Y-131838571D01*
X139582857Y-131886190D01*
X139201904Y-131886190D01*
X140154285Y-131457619D02*
X140201904Y-131410000D01*
X140297142Y-131362380D01*
X140535238Y-131362380D01*
X140630476Y-131410000D01*
X140678095Y-131457619D01*
X140725714Y-131552857D01*
X140725714Y-131648095D01*
X140678095Y-131790952D01*
X140106666Y-132362380D01*
X140725714Y-132362380D01*
X111833333Y-132362380D02*
X111500000Y-131886190D01*
X111261904Y-132362380D02*
X111261904Y-131362380D01*
X111642857Y-131362380D01*
X111738095Y-131410000D01*
X111785714Y-131457619D01*
X111833333Y-131552857D01*
X111833333Y-131695714D01*
X111785714Y-131790952D01*
X111738095Y-131838571D01*
X111642857Y-131886190D01*
X111261904Y-131886190D01*
X112785714Y-132362380D02*
X112214285Y-132362380D01*
X112500000Y-132362380D02*
X112500000Y-131362380D01*
X112404761Y-131505238D01*
X112309523Y-131600476D01*
X112214285Y-131648095D01*
X155084761Y-125817619D02*
X154989523Y-125770000D01*
X154894285Y-125674761D01*
X154751428Y-125531904D01*
X154656190Y-125484285D01*
X154560952Y-125484285D01*
X154608571Y-125722380D02*
X154513333Y-125674761D01*
X154418095Y-125579523D01*
X154370476Y-125389047D01*
X154370476Y-125055714D01*
X154418095Y-124865238D01*
X154513333Y-124770000D01*
X154608571Y-124722380D01*
X154799047Y-124722380D01*
X154894285Y-124770000D01*
X154989523Y-124865238D01*
X155037142Y-125055714D01*
X155037142Y-125389047D01*
X154989523Y-125579523D01*
X154894285Y-125674761D01*
X154799047Y-125722380D01*
X154608571Y-125722380D01*
X155989523Y-125722380D02*
X155418095Y-125722380D01*
X155703809Y-125722380D02*
X155703809Y-124722380D01*
X155608571Y-124865238D01*
X155513333Y-124960476D01*
X155418095Y-125008095D01*
X98966666Y-133862380D02*
X98966666Y-134576666D01*
X98919047Y-134719523D01*
X98823809Y-134814761D01*
X98680952Y-134862380D01*
X98585714Y-134862380D01*
X99966666Y-134862380D02*
X99395238Y-134862380D01*
X99680952Y-134862380D02*
X99680952Y-133862380D01*
X99585714Y-134005238D01*
X99490476Y-134100476D01*
X99395238Y-134148095D01*
X172221904Y-134862380D02*
X172221904Y-133862380D01*
X172460000Y-133862380D01*
X172602857Y-133910000D01*
X172698095Y-134005238D01*
X172745714Y-134100476D01*
X172793333Y-134290952D01*
X172793333Y-134433809D01*
X172745714Y-134624285D01*
X172698095Y-134719523D01*
X172602857Y-134814761D01*
X172460000Y-134862380D01*
X172221904Y-134862380D01*
X173745714Y-134862380D02*
X173174285Y-134862380D01*
X173460000Y-134862380D02*
X173460000Y-133862380D01*
X173364761Y-134005238D01*
X173269523Y-134100476D01*
X173174285Y-134148095D01*
%LPC*%
D13*
X128005000Y-56895000D03*
X129005000Y-56895000D03*
X130005000Y-56895000D03*
X131005000Y-56895000D03*
X132005000Y-56895000D03*
X133005000Y-56895000D03*
X134005000Y-56895000D03*
X135005000Y-56895000D03*
X136005000Y-56895000D03*
X137005000Y-56895000D03*
X138005000Y-56895000D03*
X139005000Y-56895000D03*
X140005000Y-56895000D03*
X141005000Y-56895000D03*
X142005000Y-56895000D03*
X143005000Y-56895000D03*
X144005000Y-56895000D03*
X145005000Y-56895000D03*
X146005000Y-56895000D03*
X147005000Y-56895000D03*
X148005000Y-56895000D03*
X149005000Y-56895000D03*
X150005000Y-56895000D03*
X151005000Y-56895000D03*
X152005000Y-56895000D03*
X153005000Y-56895000D03*
X154005000Y-56895000D03*
X155005000Y-56895000D03*
X156005000Y-56895000D03*
X157005000Y-56895000D03*
X158005000Y-56895000D03*
X178005000Y-56895000D03*
X177005000Y-56895000D03*
X176005000Y-56895000D03*
X175005000Y-56895000D03*
X174005000Y-56895000D03*
X173005000Y-56895000D03*
X172005000Y-56895000D03*
X171005000Y-56895000D03*
X170005000Y-56895000D03*
X169005000Y-56895000D03*
X168005000Y-56895000D03*
X163005000Y-56895000D03*
X162005000Y-56895000D03*
X161005000Y-56895000D03*
X160005000Y-56895000D03*
X159005000Y-56895000D03*
X165005000Y-56895000D03*
X164005000Y-56895000D03*
X127005000Y-56895000D03*
X126005000Y-56895000D03*
X125005000Y-56895000D03*
X124005000Y-56895000D03*
X123005000Y-56895000D03*
X122005000Y-56895000D03*
X121005000Y-56895000D03*
X120005000Y-56895000D03*
X119005000Y-56895000D03*
X118005000Y-56895000D03*
X117005000Y-56895000D03*
X116005000Y-56895000D03*
X115005000Y-56895000D03*
X114005000Y-56895000D03*
X113005000Y-56895000D03*
X112005000Y-56895000D03*
X111005000Y-56895000D03*
X110005000Y-56895000D03*
X109005000Y-56895000D03*
X108005000Y-56895000D03*
X107005000Y-56895000D03*
X106005000Y-56895000D03*
X105005000Y-56895000D03*
X104005000Y-56895000D03*
X103005000Y-56895000D03*
X102005000Y-56895000D03*
X101005000Y-56895000D03*
X100005000Y-56895000D03*
X99005000Y-56895000D03*
X98005000Y-56895000D03*
X97005000Y-56895000D03*
D14*
X96005000Y-57445000D03*
D13*
X95005000Y-56895000D03*
D15*
X120365000Y-69735000D03*
D16*
X110205000Y-69735000D03*
D17*
X150845000Y-95135000D03*
D16*
X143225000Y-92595000D03*
X150845000Y-92595000D03*
X143225000Y-95135000D03*
D18*
X163545000Y-67195000D03*
D19*
X161005000Y-64695000D03*
X158465000Y-67195000D03*
D20*
X100045000Y-74815000D03*
D21*
X100045000Y-77355000D03*
D18*
X120365000Y-77355000D03*
D19*
X117825000Y-74855000D03*
X115285000Y-77355000D03*
D15*
X155925000Y-77355000D03*
D16*
X166085000Y-77355000D03*
D20*
X100045000Y-92595000D03*
D21*
X100045000Y-95135000D03*
D15*
X155925000Y-95135000D03*
D16*
X166085000Y-95135000D03*
D18*
X120365000Y-95135000D03*
D19*
X117825000Y-92635000D03*
X115285000Y-95135000D03*
D15*
X127985000Y-69735000D03*
D16*
X138145000Y-69735000D03*
D17*
X150845000Y-77355000D03*
D16*
X143225000Y-74815000D03*
X150845000Y-74815000D03*
X143225000Y-77355000D03*
D20*
X173705000Y-92595000D03*
D21*
X173705000Y-95135000D03*
D15*
X127985000Y-77355000D03*
D16*
X138145000Y-77355000D03*
D20*
X173705000Y-74815000D03*
D21*
X173705000Y-77355000D03*
D15*
X127985000Y-95135000D03*
D16*
X138145000Y-95135000D03*
D15*
X127985000Y-87515000D03*
D16*
X138145000Y-87515000D03*
D15*
X120365000Y-87515000D03*
D16*
X110205000Y-87515000D03*
X129780000Y-111760000D03*
X122160000Y-114300000D03*
X129780000Y-114300000D03*
D17*
X122160000Y-111760000D03*
D16*
X162800000Y-119380000D03*
D15*
X152640000Y-119380000D03*
D16*
X134860000Y-119380000D03*
D15*
X145020000Y-119380000D03*
D16*
X106920000Y-111760000D03*
D15*
X117080000Y-111760000D03*
D16*
X134860000Y-111760000D03*
D15*
X145020000Y-111760000D03*
D19*
X157720000Y-111760000D03*
X155180000Y-114260000D03*
D18*
X152640000Y-111760000D03*
D21*
X99300000Y-111760000D03*
D20*
X99300000Y-114300000D03*
D21*
X172960000Y-111760000D03*
D20*
X172960000Y-114300000D03*
D16*
X129780000Y-129540000D03*
X122160000Y-132080000D03*
X129780000Y-132080000D03*
D17*
X122160000Y-129540000D03*
D13*
X178000000Y-150000000D03*
D14*
X177000000Y-149450000D03*
D13*
X176000000Y-150000000D03*
X175000000Y-150000000D03*
X174000000Y-150000000D03*
X173000000Y-150000000D03*
X172000000Y-150000000D03*
X171000000Y-150000000D03*
X170000000Y-150000000D03*
X169000000Y-150000000D03*
X168000000Y-150000000D03*
X167000000Y-150000000D03*
X166000000Y-150000000D03*
X165000000Y-150000000D03*
X164000000Y-150000000D03*
X163000000Y-150000000D03*
X162000000Y-150000000D03*
X161000000Y-150000000D03*
X160000000Y-150000000D03*
X159000000Y-150000000D03*
X158000000Y-150000000D03*
X157000000Y-150000000D03*
X156000000Y-150000000D03*
X155000000Y-150000000D03*
X154000000Y-150000000D03*
X153000000Y-150000000D03*
X152000000Y-150000000D03*
X151000000Y-150000000D03*
X150000000Y-150000000D03*
X149000000Y-150000000D03*
X148000000Y-150000000D03*
X147000000Y-150000000D03*
X146000000Y-150000000D03*
X109000000Y-150000000D03*
X108000000Y-150000000D03*
X114000000Y-150000000D03*
X113000000Y-150000000D03*
X112000000Y-150000000D03*
X111000000Y-150000000D03*
X110000000Y-150000000D03*
X105000000Y-150000000D03*
X104000000Y-150000000D03*
X103000000Y-150000000D03*
X102000000Y-150000000D03*
X101000000Y-150000000D03*
X100000000Y-150000000D03*
X99000000Y-150000000D03*
X98000000Y-150000000D03*
X97000000Y-150000000D03*
X96000000Y-150000000D03*
X95000000Y-150000000D03*
X115000000Y-150000000D03*
X116000000Y-150000000D03*
X117000000Y-150000000D03*
X118000000Y-150000000D03*
X119000000Y-150000000D03*
X120000000Y-150000000D03*
X121000000Y-150000000D03*
X122000000Y-150000000D03*
X123000000Y-150000000D03*
X124000000Y-150000000D03*
X125000000Y-150000000D03*
X126000000Y-150000000D03*
X127000000Y-150000000D03*
X128000000Y-150000000D03*
X129000000Y-150000000D03*
X130000000Y-150000000D03*
X131000000Y-150000000D03*
X132000000Y-150000000D03*
X133000000Y-150000000D03*
X134000000Y-150000000D03*
X135000000Y-150000000D03*
X136000000Y-150000000D03*
X137000000Y-150000000D03*
X138000000Y-150000000D03*
X139000000Y-150000000D03*
X140000000Y-150000000D03*
X141000000Y-150000000D03*
X142000000Y-150000000D03*
X143000000Y-150000000D03*
X144000000Y-150000000D03*
X145000000Y-150000000D03*
D19*
X114540000Y-139700000D03*
X112000000Y-142200000D03*
D18*
X109460000Y-139700000D03*
D16*
X162800000Y-137160000D03*
D15*
X152640000Y-137160000D03*
D16*
X134860000Y-137160000D03*
D15*
X145020000Y-137160000D03*
D16*
X134860000Y-129540000D03*
D15*
X145020000Y-129540000D03*
D16*
X106920000Y-129540000D03*
D15*
X117080000Y-129540000D03*
D19*
X157720000Y-129540000D03*
X155180000Y-132040000D03*
D18*
X152640000Y-129540000D03*
D21*
X99300000Y-129540000D03*
D20*
X99300000Y-132080000D03*
D21*
X172960000Y-129540000D03*
D20*
X172960000Y-132080000D03*
M02*
