G04 #@! TF.GenerationSoftware,KiCad,Pcbnew,(5.1.5)-3*
G04 #@! TF.CreationDate,2020-02-02T20:29:06+09:00*
G04 #@! TF.ProjectId,Tape-LED_Blinky-fin,54617065-2d4c-4454-945f-426c696e6b79,rev?*
G04 #@! TF.SameCoordinates,Original*
G04 #@! TF.FileFunction,Profile,NP*
%FSLAX46Y46*%
G04 Gerber Fmt 4.6, Leading zero omitted, Abs format (unit mm)*
G04 Created by KiCad (PCBNEW (5.1.5)-3) date 2020-02-02 20:29:06*
%MOMM*%
%LPD*%
G04 APERTURE LIST*
%ADD10C,0.100000*%
G04 APERTURE END LIST*
D10*
X99355000Y-103445000D02*
G75*
G02X94355000Y-98445000I0J5000000D01*
G01*
X178655000Y-61845000D02*
X178655000Y-98445000D01*
X94355000Y-61845000D02*
X94355000Y-98445000D01*
X178655000Y-98445000D02*
G75*
G02X173655000Y-103445000I-5000000J0D01*
G01*
X173650000Y-103450000D02*
G75*
G02X178650000Y-108450000I0J-5000000D01*
G01*
X94350000Y-108450000D02*
G75*
G02X99350000Y-103450000I5000000J0D01*
G01*
X178650000Y-145050000D02*
X178650000Y-108450000D01*
X94350000Y-145050000D02*
X94350000Y-108450000D01*
X167455000Y-60895000D02*
X167455000Y-53945000D01*
X165555000Y-60895000D02*
X165555000Y-53945000D01*
X178655000Y-61845000D02*
X178655000Y-53945000D01*
X178155000Y-53445000D02*
X167955000Y-53445000D01*
X94355000Y-61845000D02*
X94355000Y-53945000D01*
X165055000Y-53445000D02*
X94855000Y-53445000D01*
X178655000Y-53945000D02*
X178155000Y-53445000D01*
X167455000Y-53945000D02*
X167955000Y-53445000D01*
X165555000Y-53945000D02*
X165055000Y-53445000D01*
X94355000Y-53945000D02*
X94855000Y-53445000D01*
X167455000Y-60895000D02*
G75*
G02X165555000Y-60895000I-950000J0D01*
G01*
X105550000Y-146000000D02*
G75*
G02X107450000Y-146000000I950000J0D01*
G01*
X178650000Y-152950000D02*
X178150000Y-153450000D01*
X107450000Y-152950000D02*
X107950000Y-153450000D01*
X105550000Y-152950000D02*
X105050000Y-153450000D01*
X94350000Y-152950000D02*
X94850000Y-153450000D01*
X107950000Y-153450000D02*
X178150000Y-153450000D01*
X178650000Y-145050000D02*
X178650000Y-152950000D01*
X94850000Y-153450000D02*
X105050000Y-153450000D01*
X94350000Y-145050000D02*
X94350000Y-152950000D01*
X107450000Y-146000000D02*
X107450000Y-152950000D01*
X105550000Y-146000000D02*
X105550000Y-152950000D01*
M02*
