G04 #@! TF.GenerationSoftware,KiCad,Pcbnew,(5.1.5)-3*
G04 #@! TF.CreationDate,2020-02-02T20:29:06+09:00*
G04 #@! TF.ProjectId,Tape-LED_Blinky-fin,54617065-2d4c-4454-945f-426c696e6b79,rev?*
G04 #@! TF.SameCoordinates,Original*
G04 #@! TF.FileFunction,Legend,Bot*
G04 #@! TF.FilePolarity,Positive*
%FSLAX46Y46*%
G04 Gerber Fmt 4.6, Leading zero omitted, Abs format (unit mm)*
G04 Created by KiCad (PCBNEW (5.1.5)-3) date 2020-02-02 20:29:06*
%MOMM*%
%LPD*%
G04 APERTURE LIST*
%ADD10C,0.150000*%
%ADD11C,0.120000*%
%ADD12C,0.100000*%
%ADD13R,0.802000X4.402000*%
%ADD14R,0.802000X3.302000*%
%ADD15C,1.702000*%
%ADD16O,1.702000X1.702000*%
%ADD17R,1.702000X1.702000*%
%ADD18R,2.007000X2.102000*%
%ADD19O,2.007000X2.102000*%
%ADD20R,1.802000X1.802000*%
%ADD21O,1.802000X1.802000*%
G04 APERTURE END LIST*
D10*
X197014285Y-102404761D02*
X196347619Y-104404761D01*
X195680952Y-102404761D01*
X195014285Y-103642857D02*
X193490476Y-103642857D01*
X191395238Y-104214285D02*
X191490476Y-104309523D01*
X191776190Y-104404761D01*
X191966666Y-104404761D01*
X192252380Y-104309523D01*
X192442857Y-104119047D01*
X192538095Y-103928571D01*
X192633333Y-103547619D01*
X192633333Y-103261904D01*
X192538095Y-102880952D01*
X192442857Y-102690476D01*
X192252380Y-102500000D01*
X191966666Y-102404761D01*
X191776190Y-102404761D01*
X191490476Y-102500000D01*
X191395238Y-102595238D01*
X190538095Y-102404761D02*
X190538095Y-104023809D01*
X190442857Y-104214285D01*
X190347619Y-104309523D01*
X190157142Y-104404761D01*
X189776190Y-104404761D01*
X189585714Y-104309523D01*
X189490476Y-104214285D01*
X189395238Y-104023809D01*
X189395238Y-102404761D01*
X188728571Y-102404761D02*
X187585714Y-102404761D01*
X188157142Y-104404761D02*
X188157142Y-102404761D01*
D11*
X99350000Y-103450000D02*
X79650000Y-103450000D01*
X173650000Y-103450000D02*
X185600000Y-103450000D01*
X99350000Y-103450000D02*
X173650000Y-103450000D01*
D10*
X96306428Y-77465952D02*
X96306428Y-76704047D01*
X96687380Y-77085000D02*
X95925476Y-77085000D01*
X96306428Y-75465952D02*
X96306428Y-74704047D01*
X96306428Y-95245952D02*
X96306428Y-94484047D01*
X96687380Y-94865000D02*
X95925476Y-94865000D01*
X96306428Y-93245952D02*
X96306428Y-92484047D01*
X108942142Y-64202619D02*
X108942142Y-65202619D01*
X108704047Y-65202619D01*
X108561190Y-65155000D01*
X108465952Y-65059761D01*
X108418333Y-64964523D01*
X108370714Y-64774047D01*
X108370714Y-64631190D01*
X108418333Y-64440714D01*
X108465952Y-64345476D01*
X108561190Y-64250238D01*
X108704047Y-64202619D01*
X108942142Y-64202619D01*
X107561190Y-64250238D02*
X107656428Y-64202619D01*
X107846904Y-64202619D01*
X107942142Y-64250238D01*
X107989761Y-64345476D01*
X107989761Y-64726428D01*
X107942142Y-64821666D01*
X107846904Y-64869285D01*
X107656428Y-64869285D01*
X107561190Y-64821666D01*
X107513571Y-64726428D01*
X107513571Y-64631190D01*
X107989761Y-64535952D01*
X107132619Y-64250238D02*
X107037380Y-64202619D01*
X106846904Y-64202619D01*
X106751666Y-64250238D01*
X106704047Y-64345476D01*
X106704047Y-64393095D01*
X106751666Y-64488333D01*
X106846904Y-64535952D01*
X106989761Y-64535952D01*
X107085000Y-64583571D01*
X107132619Y-64678809D01*
X107132619Y-64726428D01*
X107085000Y-64821666D01*
X106989761Y-64869285D01*
X106846904Y-64869285D01*
X106751666Y-64821666D01*
X106275476Y-64202619D02*
X106275476Y-64869285D01*
X106275476Y-65202619D02*
X106323095Y-65155000D01*
X106275476Y-65107380D01*
X106227857Y-65155000D01*
X106275476Y-65202619D01*
X106275476Y-65107380D01*
X105799285Y-64869285D02*
X105799285Y-64202619D01*
X105799285Y-64774047D02*
X105751666Y-64821666D01*
X105656428Y-64869285D01*
X105513571Y-64869285D01*
X105418333Y-64821666D01*
X105370714Y-64726428D01*
X105370714Y-64202619D01*
X104465952Y-64869285D02*
X104465952Y-64059761D01*
X104513571Y-63964523D01*
X104561190Y-63916904D01*
X104656428Y-63869285D01*
X104799285Y-63869285D01*
X104894523Y-63916904D01*
X104465952Y-64250238D02*
X104561190Y-64202619D01*
X104751666Y-64202619D01*
X104846904Y-64250238D01*
X104894523Y-64297857D01*
X104942142Y-64393095D01*
X104942142Y-64678809D01*
X104894523Y-64774047D01*
X104846904Y-64821666D01*
X104751666Y-64869285D01*
X104561190Y-64869285D01*
X104465952Y-64821666D01*
X103608809Y-64250238D02*
X103704047Y-64202619D01*
X103894523Y-64202619D01*
X103989761Y-64250238D01*
X104037380Y-64345476D01*
X104037380Y-64726428D01*
X103989761Y-64821666D01*
X103894523Y-64869285D01*
X103704047Y-64869285D01*
X103608809Y-64821666D01*
X103561190Y-64726428D01*
X103561190Y-64631190D01*
X104037380Y-64535952D01*
X102704047Y-64202619D02*
X102704047Y-65202619D01*
X102704047Y-64250238D02*
X102799285Y-64202619D01*
X102989761Y-64202619D01*
X103085000Y-64250238D01*
X103132619Y-64297857D01*
X103180238Y-64393095D01*
X103180238Y-64678809D01*
X103132619Y-64774047D01*
X103085000Y-64821666D01*
X102989761Y-64869285D01*
X102799285Y-64869285D01*
X102704047Y-64821666D01*
X101465952Y-64202619D02*
X101465952Y-65202619D01*
X101465952Y-64821666D02*
X101370714Y-64869285D01*
X101180238Y-64869285D01*
X101085000Y-64821666D01*
X101037380Y-64774047D01*
X100989761Y-64678809D01*
X100989761Y-64393095D01*
X101037380Y-64297857D01*
X101085000Y-64250238D01*
X101180238Y-64202619D01*
X101370714Y-64202619D01*
X101465952Y-64250238D01*
X100656428Y-64869285D02*
X100418333Y-64202619D01*
X100180238Y-64869285D02*
X100418333Y-64202619D01*
X100513571Y-63964523D01*
X100561190Y-63916904D01*
X100656428Y-63869285D01*
X99180238Y-65202619D02*
X98608809Y-65202619D01*
X98894523Y-64202619D02*
X98894523Y-65202619D01*
X98275476Y-64202619D02*
X98275476Y-65202619D01*
X97704047Y-64202619D01*
X97704047Y-65202619D01*
X97227857Y-64202619D02*
X97227857Y-65202619D01*
X96656428Y-64202619D02*
X97085000Y-64774047D01*
X96656428Y-65202619D02*
X97227857Y-64631190D01*
X96227857Y-64297857D02*
X96180238Y-64250238D01*
X96227857Y-64202619D01*
X96275476Y-64250238D01*
X96227857Y-64297857D01*
X96227857Y-64202619D01*
D12*
X99355000Y-103445000D02*
G75*
G02X94355000Y-98445000I0J5000000D01*
G01*
X178655000Y-61845000D02*
X178655000Y-98445000D01*
X94355000Y-61845000D02*
X94355000Y-98445000D01*
X178655000Y-98445000D02*
G75*
G02X173655000Y-103445000I-5000000J0D01*
G01*
D10*
X175745000Y-72608809D02*
X175697380Y-72513571D01*
X175697380Y-72370714D01*
X175745000Y-72227857D01*
X175840238Y-72132619D01*
X175935476Y-72085000D01*
X176125952Y-72037380D01*
X176268809Y-72037380D01*
X176459285Y-72085000D01*
X176554523Y-72132619D01*
X176649761Y-72227857D01*
X176697380Y-72370714D01*
X176697380Y-72465952D01*
X176649761Y-72608809D01*
X176602142Y-72656428D01*
X176268809Y-72656428D01*
X176268809Y-72465952D01*
X176697380Y-73085000D02*
X175697380Y-73085000D01*
X176697380Y-73656428D01*
X175697380Y-73656428D01*
X176697380Y-74132619D02*
X175697380Y-74132619D01*
X175697380Y-74370714D01*
X175745000Y-74513571D01*
X175840238Y-74608809D01*
X175935476Y-74656428D01*
X176125952Y-74704047D01*
X176268809Y-74704047D01*
X176459285Y-74656428D01*
X176554523Y-74608809D01*
X176649761Y-74513571D01*
X176697380Y-74370714D01*
X176697380Y-74132619D01*
X176649761Y-75846904D02*
X176697380Y-75989761D01*
X176697380Y-76227857D01*
X176649761Y-76323095D01*
X176602142Y-76370714D01*
X176506904Y-76418333D01*
X176411666Y-76418333D01*
X176316428Y-76370714D01*
X176268809Y-76323095D01*
X176221190Y-76227857D01*
X176173571Y-76037380D01*
X176125952Y-75942142D01*
X176078333Y-75894523D01*
X175983095Y-75846904D01*
X175887857Y-75846904D01*
X175792619Y-75894523D01*
X175745000Y-75942142D01*
X175697380Y-76037380D01*
X175697380Y-76275476D01*
X175745000Y-76418333D01*
X176697380Y-76846904D02*
X176030714Y-76846904D01*
X175697380Y-76846904D02*
X175745000Y-76799285D01*
X175792619Y-76846904D01*
X175745000Y-76894523D01*
X175697380Y-76846904D01*
X175792619Y-76846904D01*
X176030714Y-77751666D02*
X176840238Y-77751666D01*
X176935476Y-77704047D01*
X176983095Y-77656428D01*
X177030714Y-77561190D01*
X177030714Y-77418333D01*
X176983095Y-77323095D01*
X176649761Y-77751666D02*
X176697380Y-77656428D01*
X176697380Y-77465952D01*
X176649761Y-77370714D01*
X176602142Y-77323095D01*
X176506904Y-77275476D01*
X176221190Y-77275476D01*
X176125952Y-77323095D01*
X176078333Y-77370714D01*
X176030714Y-77465952D01*
X176030714Y-77656428D01*
X176078333Y-77751666D01*
X176030714Y-78227857D02*
X176697380Y-78227857D01*
X176125952Y-78227857D02*
X176078333Y-78275476D01*
X176030714Y-78370714D01*
X176030714Y-78513571D01*
X176078333Y-78608809D01*
X176173571Y-78656428D01*
X176697380Y-78656428D01*
X176697380Y-79561190D02*
X176173571Y-79561190D01*
X176078333Y-79513571D01*
X176030714Y-79418333D01*
X176030714Y-79227857D01*
X176078333Y-79132619D01*
X176649761Y-79561190D02*
X176697380Y-79465952D01*
X176697380Y-79227857D01*
X176649761Y-79132619D01*
X176554523Y-79085000D01*
X176459285Y-79085000D01*
X176364047Y-79132619D01*
X176316428Y-79227857D01*
X176316428Y-79465952D01*
X176268809Y-79561190D01*
X176697380Y-80180238D02*
X176649761Y-80085000D01*
X176554523Y-80037380D01*
X175697380Y-80037380D01*
X175745000Y-90388809D02*
X175697380Y-90293571D01*
X175697380Y-90150714D01*
X175745000Y-90007857D01*
X175840238Y-89912619D01*
X175935476Y-89865000D01*
X176125952Y-89817380D01*
X176268809Y-89817380D01*
X176459285Y-89865000D01*
X176554523Y-89912619D01*
X176649761Y-90007857D01*
X176697380Y-90150714D01*
X176697380Y-90245952D01*
X176649761Y-90388809D01*
X176602142Y-90436428D01*
X176268809Y-90436428D01*
X176268809Y-90245952D01*
X176697380Y-90865000D02*
X175697380Y-90865000D01*
X176697380Y-91436428D01*
X175697380Y-91436428D01*
X176697380Y-91912619D02*
X175697380Y-91912619D01*
X175697380Y-92150714D01*
X175745000Y-92293571D01*
X175840238Y-92388809D01*
X175935476Y-92436428D01*
X176125952Y-92484047D01*
X176268809Y-92484047D01*
X176459285Y-92436428D01*
X176554523Y-92388809D01*
X176649761Y-92293571D01*
X176697380Y-92150714D01*
X176697380Y-91912619D01*
X176649761Y-93626904D02*
X176697380Y-93769761D01*
X176697380Y-94007857D01*
X176649761Y-94103095D01*
X176602142Y-94150714D01*
X176506904Y-94198333D01*
X176411666Y-94198333D01*
X176316428Y-94150714D01*
X176268809Y-94103095D01*
X176221190Y-94007857D01*
X176173571Y-93817380D01*
X176125952Y-93722142D01*
X176078333Y-93674523D01*
X175983095Y-93626904D01*
X175887857Y-93626904D01*
X175792619Y-93674523D01*
X175745000Y-93722142D01*
X175697380Y-93817380D01*
X175697380Y-94055476D01*
X175745000Y-94198333D01*
X176697380Y-94626904D02*
X176030714Y-94626904D01*
X175697380Y-94626904D02*
X175745000Y-94579285D01*
X175792619Y-94626904D01*
X175745000Y-94674523D01*
X175697380Y-94626904D01*
X175792619Y-94626904D01*
X176030714Y-95531666D02*
X176840238Y-95531666D01*
X176935476Y-95484047D01*
X176983095Y-95436428D01*
X177030714Y-95341190D01*
X177030714Y-95198333D01*
X176983095Y-95103095D01*
X176649761Y-95531666D02*
X176697380Y-95436428D01*
X176697380Y-95245952D01*
X176649761Y-95150714D01*
X176602142Y-95103095D01*
X176506904Y-95055476D01*
X176221190Y-95055476D01*
X176125952Y-95103095D01*
X176078333Y-95150714D01*
X176030714Y-95245952D01*
X176030714Y-95436428D01*
X176078333Y-95531666D01*
X176030714Y-96007857D02*
X176697380Y-96007857D01*
X176125952Y-96007857D02*
X176078333Y-96055476D01*
X176030714Y-96150714D01*
X176030714Y-96293571D01*
X176078333Y-96388809D01*
X176173571Y-96436428D01*
X176697380Y-96436428D01*
X176697380Y-97341190D02*
X176173571Y-97341190D01*
X176078333Y-97293571D01*
X176030714Y-97198333D01*
X176030714Y-97007857D01*
X176078333Y-96912619D01*
X176649761Y-97341190D02*
X176697380Y-97245952D01*
X176697380Y-97007857D01*
X176649761Y-96912619D01*
X176554523Y-96865000D01*
X176459285Y-96865000D01*
X176364047Y-96912619D01*
X176316428Y-97007857D01*
X176316428Y-97245952D01*
X176268809Y-97341190D01*
X176697380Y-97960238D02*
X176649761Y-97865000D01*
X176554523Y-97817380D01*
X175697380Y-97817380D01*
X164062857Y-142692380D02*
X164062857Y-141692380D01*
X164300952Y-141692380D01*
X164443809Y-141740000D01*
X164539047Y-141835238D01*
X164586666Y-141930476D01*
X164634285Y-142120952D01*
X164634285Y-142263809D01*
X164586666Y-142454285D01*
X164539047Y-142549523D01*
X164443809Y-142644761D01*
X164300952Y-142692380D01*
X164062857Y-142692380D01*
X165443809Y-142644761D02*
X165348571Y-142692380D01*
X165158095Y-142692380D01*
X165062857Y-142644761D01*
X165015238Y-142549523D01*
X165015238Y-142168571D01*
X165062857Y-142073333D01*
X165158095Y-142025714D01*
X165348571Y-142025714D01*
X165443809Y-142073333D01*
X165491428Y-142168571D01*
X165491428Y-142263809D01*
X165015238Y-142359047D01*
X165872380Y-142644761D02*
X165967619Y-142692380D01*
X166158095Y-142692380D01*
X166253333Y-142644761D01*
X166300952Y-142549523D01*
X166300952Y-142501904D01*
X166253333Y-142406666D01*
X166158095Y-142359047D01*
X166015238Y-142359047D01*
X165920000Y-142311428D01*
X165872380Y-142216190D01*
X165872380Y-142168571D01*
X165920000Y-142073333D01*
X166015238Y-142025714D01*
X166158095Y-142025714D01*
X166253333Y-142073333D01*
X166729523Y-142692380D02*
X166729523Y-142025714D01*
X166729523Y-141692380D02*
X166681904Y-141740000D01*
X166729523Y-141787619D01*
X166777142Y-141740000D01*
X166729523Y-141692380D01*
X166729523Y-141787619D01*
X167205714Y-142025714D02*
X167205714Y-142692380D01*
X167205714Y-142120952D02*
X167253333Y-142073333D01*
X167348571Y-142025714D01*
X167491428Y-142025714D01*
X167586666Y-142073333D01*
X167634285Y-142168571D01*
X167634285Y-142692380D01*
X168539047Y-142025714D02*
X168539047Y-142835238D01*
X168491428Y-142930476D01*
X168443809Y-142978095D01*
X168348571Y-143025714D01*
X168205714Y-143025714D01*
X168110476Y-142978095D01*
X168539047Y-142644761D02*
X168443809Y-142692380D01*
X168253333Y-142692380D01*
X168158095Y-142644761D01*
X168110476Y-142597142D01*
X168062857Y-142501904D01*
X168062857Y-142216190D01*
X168110476Y-142120952D01*
X168158095Y-142073333D01*
X168253333Y-142025714D01*
X168443809Y-142025714D01*
X168539047Y-142073333D01*
X169396190Y-142644761D02*
X169300952Y-142692380D01*
X169110476Y-142692380D01*
X169015238Y-142644761D01*
X168967619Y-142549523D01*
X168967619Y-142168571D01*
X169015238Y-142073333D01*
X169110476Y-142025714D01*
X169300952Y-142025714D01*
X169396190Y-142073333D01*
X169443809Y-142168571D01*
X169443809Y-142263809D01*
X168967619Y-142359047D01*
X170300952Y-142692380D02*
X170300952Y-141692380D01*
X170300952Y-142644761D02*
X170205714Y-142692380D01*
X170015238Y-142692380D01*
X169920000Y-142644761D01*
X169872380Y-142597142D01*
X169824761Y-142501904D01*
X169824761Y-142216190D01*
X169872380Y-142120952D01*
X169920000Y-142073333D01*
X170015238Y-142025714D01*
X170205714Y-142025714D01*
X170300952Y-142073333D01*
X171539047Y-142692380D02*
X171539047Y-141692380D01*
X171539047Y-142073333D02*
X171634285Y-142025714D01*
X171824761Y-142025714D01*
X171920000Y-142073333D01*
X171967619Y-142120952D01*
X172015238Y-142216190D01*
X172015238Y-142501904D01*
X171967619Y-142597142D01*
X171920000Y-142644761D01*
X171824761Y-142692380D01*
X171634285Y-142692380D01*
X171539047Y-142644761D01*
X172348571Y-142025714D02*
X172586666Y-142692380D01*
X172824761Y-142025714D02*
X172586666Y-142692380D01*
X172491428Y-142930476D01*
X172443809Y-142978095D01*
X172348571Y-143025714D01*
X173824761Y-141692380D02*
X174396190Y-141692380D01*
X174110476Y-142692380D02*
X174110476Y-141692380D01*
X174729523Y-142692380D02*
X174729523Y-141692380D01*
X175300952Y-142692380D01*
X175300952Y-141692380D01*
X175777142Y-142692380D02*
X175777142Y-141692380D01*
X176348571Y-142692380D02*
X175920000Y-142120952D01*
X176348571Y-141692380D02*
X175777142Y-142263809D01*
X176777142Y-142597142D02*
X176824761Y-142644761D01*
X176777142Y-142692380D01*
X176729523Y-142644761D01*
X176777142Y-142597142D01*
X176777142Y-142692380D01*
D12*
X173650000Y-103450000D02*
G75*
G02X178650000Y-108450000I0J-5000000D01*
G01*
X94350000Y-108450000D02*
G75*
G02X99350000Y-103450000I5000000J0D01*
G01*
D10*
X176698571Y-111649047D02*
X176698571Y-112410952D01*
X176317619Y-112030000D02*
X177079523Y-112030000D01*
X176698571Y-113649047D02*
X176698571Y-114410952D01*
X176698571Y-129429047D02*
X176698571Y-130190952D01*
X176317619Y-129810000D02*
X177079523Y-129810000D01*
X176698571Y-131429047D02*
X176698571Y-132190952D01*
X97260000Y-134286190D02*
X97307619Y-134381428D01*
X97307619Y-134524285D01*
X97260000Y-134667142D01*
X97164761Y-134762380D01*
X97069523Y-134810000D01*
X96879047Y-134857619D01*
X96736190Y-134857619D01*
X96545714Y-134810000D01*
X96450476Y-134762380D01*
X96355238Y-134667142D01*
X96307619Y-134524285D01*
X96307619Y-134429047D01*
X96355238Y-134286190D01*
X96402857Y-134238571D01*
X96736190Y-134238571D01*
X96736190Y-134429047D01*
X96307619Y-133810000D02*
X97307619Y-133810000D01*
X96307619Y-133238571D01*
X97307619Y-133238571D01*
X96307619Y-132762380D02*
X97307619Y-132762380D01*
X97307619Y-132524285D01*
X97260000Y-132381428D01*
X97164761Y-132286190D01*
X97069523Y-132238571D01*
X96879047Y-132190952D01*
X96736190Y-132190952D01*
X96545714Y-132238571D01*
X96450476Y-132286190D01*
X96355238Y-132381428D01*
X96307619Y-132524285D01*
X96307619Y-132762380D01*
X96355238Y-131048095D02*
X96307619Y-130905238D01*
X96307619Y-130667142D01*
X96355238Y-130571904D01*
X96402857Y-130524285D01*
X96498095Y-130476666D01*
X96593333Y-130476666D01*
X96688571Y-130524285D01*
X96736190Y-130571904D01*
X96783809Y-130667142D01*
X96831428Y-130857619D01*
X96879047Y-130952857D01*
X96926666Y-131000476D01*
X97021904Y-131048095D01*
X97117142Y-131048095D01*
X97212380Y-131000476D01*
X97260000Y-130952857D01*
X97307619Y-130857619D01*
X97307619Y-130619523D01*
X97260000Y-130476666D01*
X96307619Y-130048095D02*
X96974285Y-130048095D01*
X97307619Y-130048095D02*
X97260000Y-130095714D01*
X97212380Y-130048095D01*
X97260000Y-130000476D01*
X97307619Y-130048095D01*
X97212380Y-130048095D01*
X96974285Y-129143333D02*
X96164761Y-129143333D01*
X96069523Y-129190952D01*
X96021904Y-129238571D01*
X95974285Y-129333809D01*
X95974285Y-129476666D01*
X96021904Y-129571904D01*
X96355238Y-129143333D02*
X96307619Y-129238571D01*
X96307619Y-129429047D01*
X96355238Y-129524285D01*
X96402857Y-129571904D01*
X96498095Y-129619523D01*
X96783809Y-129619523D01*
X96879047Y-129571904D01*
X96926666Y-129524285D01*
X96974285Y-129429047D01*
X96974285Y-129238571D01*
X96926666Y-129143333D01*
X96974285Y-128667142D02*
X96307619Y-128667142D01*
X96879047Y-128667142D02*
X96926666Y-128619523D01*
X96974285Y-128524285D01*
X96974285Y-128381428D01*
X96926666Y-128286190D01*
X96831428Y-128238571D01*
X96307619Y-128238571D01*
X96307619Y-127333809D02*
X96831428Y-127333809D01*
X96926666Y-127381428D01*
X96974285Y-127476666D01*
X96974285Y-127667142D01*
X96926666Y-127762380D01*
X96355238Y-127333809D02*
X96307619Y-127429047D01*
X96307619Y-127667142D01*
X96355238Y-127762380D01*
X96450476Y-127810000D01*
X96545714Y-127810000D01*
X96640952Y-127762380D01*
X96688571Y-127667142D01*
X96688571Y-127429047D01*
X96736190Y-127333809D01*
X96307619Y-126714761D02*
X96355238Y-126810000D01*
X96450476Y-126857619D01*
X97307619Y-126857619D01*
X97260000Y-116506190D02*
X97307619Y-116601428D01*
X97307619Y-116744285D01*
X97260000Y-116887142D01*
X97164761Y-116982380D01*
X97069523Y-117030000D01*
X96879047Y-117077619D01*
X96736190Y-117077619D01*
X96545714Y-117030000D01*
X96450476Y-116982380D01*
X96355238Y-116887142D01*
X96307619Y-116744285D01*
X96307619Y-116649047D01*
X96355238Y-116506190D01*
X96402857Y-116458571D01*
X96736190Y-116458571D01*
X96736190Y-116649047D01*
X96307619Y-116030000D02*
X97307619Y-116030000D01*
X96307619Y-115458571D01*
X97307619Y-115458571D01*
X96307619Y-114982380D02*
X97307619Y-114982380D01*
X97307619Y-114744285D01*
X97260000Y-114601428D01*
X97164761Y-114506190D01*
X97069523Y-114458571D01*
X96879047Y-114410952D01*
X96736190Y-114410952D01*
X96545714Y-114458571D01*
X96450476Y-114506190D01*
X96355238Y-114601428D01*
X96307619Y-114744285D01*
X96307619Y-114982380D01*
X96355238Y-113268095D02*
X96307619Y-113125238D01*
X96307619Y-112887142D01*
X96355238Y-112791904D01*
X96402857Y-112744285D01*
X96498095Y-112696666D01*
X96593333Y-112696666D01*
X96688571Y-112744285D01*
X96736190Y-112791904D01*
X96783809Y-112887142D01*
X96831428Y-113077619D01*
X96879047Y-113172857D01*
X96926666Y-113220476D01*
X97021904Y-113268095D01*
X97117142Y-113268095D01*
X97212380Y-113220476D01*
X97260000Y-113172857D01*
X97307619Y-113077619D01*
X97307619Y-112839523D01*
X97260000Y-112696666D01*
X96307619Y-112268095D02*
X96974285Y-112268095D01*
X97307619Y-112268095D02*
X97260000Y-112315714D01*
X97212380Y-112268095D01*
X97260000Y-112220476D01*
X97307619Y-112268095D01*
X97212380Y-112268095D01*
X96974285Y-111363333D02*
X96164761Y-111363333D01*
X96069523Y-111410952D01*
X96021904Y-111458571D01*
X95974285Y-111553809D01*
X95974285Y-111696666D01*
X96021904Y-111791904D01*
X96355238Y-111363333D02*
X96307619Y-111458571D01*
X96307619Y-111649047D01*
X96355238Y-111744285D01*
X96402857Y-111791904D01*
X96498095Y-111839523D01*
X96783809Y-111839523D01*
X96879047Y-111791904D01*
X96926666Y-111744285D01*
X96974285Y-111649047D01*
X96974285Y-111458571D01*
X96926666Y-111363333D01*
X96974285Y-110887142D02*
X96307619Y-110887142D01*
X96879047Y-110887142D02*
X96926666Y-110839523D01*
X96974285Y-110744285D01*
X96974285Y-110601428D01*
X96926666Y-110506190D01*
X96831428Y-110458571D01*
X96307619Y-110458571D01*
X96307619Y-109553809D02*
X96831428Y-109553809D01*
X96926666Y-109601428D01*
X96974285Y-109696666D01*
X96974285Y-109887142D01*
X96926666Y-109982380D01*
X96355238Y-109553809D02*
X96307619Y-109649047D01*
X96307619Y-109887142D01*
X96355238Y-109982380D01*
X96450476Y-110030000D01*
X96545714Y-110030000D01*
X96640952Y-109982380D01*
X96688571Y-109887142D01*
X96688571Y-109649047D01*
X96736190Y-109553809D01*
X96307619Y-108934761D02*
X96355238Y-109030000D01*
X96450476Y-109077619D01*
X97307619Y-109077619D01*
D12*
X178650000Y-145050000D02*
X178650000Y-108450000D01*
X94350000Y-145050000D02*
X94350000Y-108450000D01*
X167455000Y-60895000D02*
X167455000Y-53945000D01*
X165555000Y-60895000D02*
X165555000Y-53945000D01*
X178655000Y-61845000D02*
X178655000Y-53945000D01*
X178155000Y-53445000D02*
X167955000Y-53445000D01*
X94355000Y-61845000D02*
X94355000Y-53945000D01*
X165055000Y-53445000D02*
X94855000Y-53445000D01*
X178655000Y-53945000D02*
X178155000Y-53445000D01*
X167455000Y-53945000D02*
X167955000Y-53445000D01*
X165555000Y-53945000D02*
X165055000Y-53445000D01*
X94355000Y-53945000D02*
X94855000Y-53445000D01*
X167455000Y-60895000D02*
G75*
G02X165555000Y-60895000I-950000J0D01*
G01*
X105550000Y-146000000D02*
G75*
G02X107450000Y-146000000I950000J0D01*
G01*
X178650000Y-152950000D02*
X178150000Y-153450000D01*
X107450000Y-152950000D02*
X107950000Y-153450000D01*
X105550000Y-152950000D02*
X105050000Y-153450000D01*
X94350000Y-152950000D02*
X94850000Y-153450000D01*
X107950000Y-153450000D02*
X178150000Y-153450000D01*
X178650000Y-145050000D02*
X178650000Y-152950000D01*
X94850000Y-153450000D02*
X105050000Y-153450000D01*
X94350000Y-145050000D02*
X94350000Y-152950000D01*
X107450000Y-146000000D02*
X107450000Y-152950000D01*
X105550000Y-146000000D02*
X105550000Y-152950000D01*
%LPC*%
D13*
X136005000Y-56895000D03*
X137005000Y-56895000D03*
X138005000Y-56895000D03*
X139005000Y-56895000D03*
X140005000Y-56895000D03*
X141005000Y-56895000D03*
X142005000Y-56895000D03*
X143005000Y-56895000D03*
X144005000Y-56895000D03*
X145005000Y-56895000D03*
X146005000Y-56895000D03*
X147005000Y-56895000D03*
X148005000Y-56895000D03*
X149005000Y-56895000D03*
X150005000Y-56895000D03*
X151005000Y-56895000D03*
X152005000Y-56895000D03*
X153005000Y-56895000D03*
X154005000Y-56895000D03*
X155005000Y-56895000D03*
X156005000Y-56895000D03*
X157005000Y-56895000D03*
X158005000Y-56895000D03*
D14*
X178005000Y-57445000D03*
D13*
X177005000Y-56895000D03*
X176005000Y-56895000D03*
X175005000Y-56895000D03*
X174005000Y-56895000D03*
X173005000Y-56895000D03*
X172005000Y-56895000D03*
X171005000Y-56895000D03*
X170005000Y-56895000D03*
X169005000Y-56895000D03*
X168005000Y-56895000D03*
X163005000Y-56895000D03*
X162005000Y-56895000D03*
X161005000Y-56895000D03*
X160005000Y-56895000D03*
X159005000Y-56895000D03*
X165005000Y-56895000D03*
X164005000Y-56895000D03*
X135005000Y-56895000D03*
X134005000Y-56895000D03*
X133005000Y-56895000D03*
X132005000Y-56895000D03*
X131005000Y-56895000D03*
X130005000Y-56895000D03*
X129005000Y-56895000D03*
X128005000Y-56895000D03*
X127005000Y-56895000D03*
X126005000Y-56895000D03*
X125005000Y-56895000D03*
X124005000Y-56895000D03*
X123005000Y-56895000D03*
X122005000Y-56895000D03*
X121005000Y-56895000D03*
X120005000Y-56895000D03*
X119005000Y-56895000D03*
X118005000Y-56895000D03*
X117005000Y-56895000D03*
X116005000Y-56895000D03*
X115005000Y-56895000D03*
X114005000Y-56895000D03*
X113005000Y-56895000D03*
X112005000Y-56895000D03*
X111005000Y-56895000D03*
X110005000Y-56895000D03*
X109005000Y-56895000D03*
X108005000Y-56895000D03*
X107005000Y-56895000D03*
X106005000Y-56895000D03*
X105005000Y-56895000D03*
X104005000Y-56895000D03*
X103005000Y-56895000D03*
X102005000Y-56895000D03*
X101005000Y-56895000D03*
X100005000Y-56895000D03*
X99005000Y-56895000D03*
X98005000Y-56895000D03*
X97005000Y-56895000D03*
X96005000Y-56895000D03*
X95005000Y-56895000D03*
D15*
X120365000Y-69735000D03*
D16*
X110205000Y-69735000D03*
D17*
X150845000Y-95135000D03*
D16*
X143225000Y-92595000D03*
X150845000Y-92595000D03*
X143225000Y-95135000D03*
D18*
X163545000Y-67195000D03*
D19*
X161005000Y-64695000D03*
X158465000Y-67195000D03*
D20*
X100045000Y-74815000D03*
D21*
X100045000Y-77355000D03*
D18*
X120365000Y-77355000D03*
D19*
X117825000Y-74855000D03*
X115285000Y-77355000D03*
D15*
X155925000Y-77355000D03*
D16*
X166085000Y-77355000D03*
D20*
X100045000Y-92595000D03*
D21*
X100045000Y-95135000D03*
D15*
X155925000Y-95135000D03*
D16*
X166085000Y-95135000D03*
D18*
X120365000Y-95135000D03*
D19*
X117825000Y-92635000D03*
X115285000Y-95135000D03*
D15*
X127985000Y-69735000D03*
D16*
X138145000Y-69735000D03*
D17*
X150845000Y-77355000D03*
D16*
X143225000Y-74815000D03*
X150845000Y-74815000D03*
X143225000Y-77355000D03*
D20*
X173705000Y-92595000D03*
D21*
X173705000Y-95135000D03*
D15*
X127985000Y-77355000D03*
D16*
X138145000Y-77355000D03*
D20*
X173705000Y-74815000D03*
D21*
X173705000Y-77355000D03*
D15*
X127985000Y-95135000D03*
D16*
X138145000Y-95135000D03*
D15*
X127985000Y-87515000D03*
D16*
X138145000Y-87515000D03*
D15*
X120365000Y-87515000D03*
D16*
X110205000Y-87515000D03*
X129780000Y-111760000D03*
X122160000Y-114300000D03*
X129780000Y-114300000D03*
D17*
X122160000Y-111760000D03*
D16*
X162800000Y-119380000D03*
D15*
X152640000Y-119380000D03*
D16*
X134860000Y-119380000D03*
D15*
X145020000Y-119380000D03*
D16*
X106920000Y-111760000D03*
D15*
X117080000Y-111760000D03*
D16*
X134860000Y-111760000D03*
D15*
X145020000Y-111760000D03*
D19*
X157720000Y-111760000D03*
X155180000Y-114260000D03*
D18*
X152640000Y-111760000D03*
D21*
X99300000Y-111760000D03*
D20*
X99300000Y-114300000D03*
D21*
X172960000Y-111760000D03*
D20*
X172960000Y-114300000D03*
D16*
X129780000Y-129540000D03*
X122160000Y-132080000D03*
X129780000Y-132080000D03*
D17*
X122160000Y-129540000D03*
D13*
X178000000Y-150000000D03*
X177000000Y-150000000D03*
X176000000Y-150000000D03*
X175000000Y-150000000D03*
X174000000Y-150000000D03*
X173000000Y-150000000D03*
X172000000Y-150000000D03*
X171000000Y-150000000D03*
X170000000Y-150000000D03*
X169000000Y-150000000D03*
X168000000Y-150000000D03*
X167000000Y-150000000D03*
X166000000Y-150000000D03*
X165000000Y-150000000D03*
X164000000Y-150000000D03*
X163000000Y-150000000D03*
X162000000Y-150000000D03*
X161000000Y-150000000D03*
X160000000Y-150000000D03*
X159000000Y-150000000D03*
X158000000Y-150000000D03*
X157000000Y-150000000D03*
X156000000Y-150000000D03*
X155000000Y-150000000D03*
X154000000Y-150000000D03*
X153000000Y-150000000D03*
X152000000Y-150000000D03*
X151000000Y-150000000D03*
X150000000Y-150000000D03*
X149000000Y-150000000D03*
X148000000Y-150000000D03*
X147000000Y-150000000D03*
X146000000Y-150000000D03*
X145000000Y-150000000D03*
X144000000Y-150000000D03*
X143000000Y-150000000D03*
X142000000Y-150000000D03*
X141000000Y-150000000D03*
X140000000Y-150000000D03*
X139000000Y-150000000D03*
X138000000Y-150000000D03*
X109000000Y-150000000D03*
X108000000Y-150000000D03*
X114000000Y-150000000D03*
X113000000Y-150000000D03*
X112000000Y-150000000D03*
X111000000Y-150000000D03*
X110000000Y-150000000D03*
X105000000Y-150000000D03*
X104000000Y-150000000D03*
X103000000Y-150000000D03*
X102000000Y-150000000D03*
X101000000Y-150000000D03*
X100000000Y-150000000D03*
X99000000Y-150000000D03*
X98000000Y-150000000D03*
X97000000Y-150000000D03*
X96000000Y-150000000D03*
D14*
X95000000Y-149450000D03*
D13*
X115000000Y-150000000D03*
X116000000Y-150000000D03*
X117000000Y-150000000D03*
X118000000Y-150000000D03*
X119000000Y-150000000D03*
X120000000Y-150000000D03*
X121000000Y-150000000D03*
X122000000Y-150000000D03*
X123000000Y-150000000D03*
X124000000Y-150000000D03*
X125000000Y-150000000D03*
X126000000Y-150000000D03*
X127000000Y-150000000D03*
X128000000Y-150000000D03*
X129000000Y-150000000D03*
X130000000Y-150000000D03*
X131000000Y-150000000D03*
X132000000Y-150000000D03*
X133000000Y-150000000D03*
X134000000Y-150000000D03*
X135000000Y-150000000D03*
X136000000Y-150000000D03*
X137000000Y-150000000D03*
D19*
X114540000Y-139700000D03*
X112000000Y-142200000D03*
D18*
X109460000Y-139700000D03*
D16*
X162800000Y-137160000D03*
D15*
X152640000Y-137160000D03*
D16*
X134860000Y-137160000D03*
D15*
X145020000Y-137160000D03*
D16*
X134860000Y-129540000D03*
D15*
X145020000Y-129540000D03*
D16*
X106920000Y-129540000D03*
D15*
X117080000Y-129540000D03*
D19*
X157720000Y-129540000D03*
X155180000Y-132040000D03*
D18*
X152640000Y-129540000D03*
D21*
X99300000Y-129540000D03*
D20*
X99300000Y-132080000D03*
D21*
X172960000Y-129540000D03*
D20*
X172960000Y-132080000D03*
M02*
