G04 #@! TF.GenerationSoftware,KiCad,Pcbnew,(5.1.5)-3*
G04 #@! TF.CreationDate,2020-02-02T20:29:06+09:00*
G04 #@! TF.ProjectId,Tape-LED_Blinky-fin,54617065-2d4c-4454-945f-426c696e6b79,rev?*
G04 #@! TF.SameCoordinates,Original*
G04 #@! TF.FileFunction,Soldermask,Top*
G04 #@! TF.FilePolarity,Negative*
%FSLAX46Y46*%
G04 Gerber Fmt 4.6, Leading zero omitted, Abs format (unit mm)*
G04 Created by KiCad (PCBNEW (5.1.5)-3) date 2020-02-02 20:29:06*
%MOMM*%
%LPD*%
G04 APERTURE LIST*
%ADD10C,0.100000*%
G04 APERTURE END LIST*
D10*
X99355000Y-103445000D02*
G75*
G02X94355000Y-98445000I0J5000000D01*
G01*
X178655000Y-61845000D02*
X178655000Y-98445000D01*
X94355000Y-61845000D02*
X94355000Y-98445000D01*
X178655000Y-98445000D02*
G75*
G02X173655000Y-103445000I-5000000J0D01*
G01*
X173650000Y-103450000D02*
G75*
G02X178650000Y-108450000I0J-5000000D01*
G01*
X94350000Y-108450000D02*
G75*
G02X99350000Y-103450000I5000000J0D01*
G01*
X178650000Y-145050000D02*
X178650000Y-108450000D01*
X94350000Y-145050000D02*
X94350000Y-108450000D01*
G36*
X178401000Y-152201000D02*
G01*
X177599000Y-152201000D01*
X177599000Y-151225999D01*
X177596598Y-151201613D01*
X177589485Y-151178164D01*
X177577934Y-151156553D01*
X177562389Y-151137611D01*
X177543447Y-151122066D01*
X177521836Y-151110515D01*
X177498387Y-151103402D01*
X177474001Y-151101000D01*
X176525999Y-151101000D01*
X176501613Y-151103402D01*
X176478164Y-151110515D01*
X176456553Y-151122066D01*
X176437611Y-151137611D01*
X176422066Y-151156553D01*
X176410515Y-151178164D01*
X176403402Y-151201613D01*
X176401000Y-151225999D01*
X176401000Y-152201000D01*
X107599000Y-152201000D01*
X107599000Y-147799000D01*
X178401000Y-147799000D01*
X178401000Y-152201000D01*
G37*
G36*
X105401000Y-152201000D02*
G01*
X94599000Y-152201000D01*
X94599000Y-147799000D01*
X105401000Y-147799000D01*
X105401000Y-152201000D01*
G37*
G36*
X112196719Y-141163520D02*
G01*
X112385880Y-141220901D01*
X112385883Y-141220902D01*
X112478333Y-141270318D01*
X112560212Y-141314083D01*
X112713015Y-141439485D01*
X112838417Y-141592288D01*
X112931599Y-141766619D01*
X112988980Y-141955780D01*
X113003500Y-142103206D01*
X113003500Y-142296793D01*
X112988980Y-142444219D01*
X112931599Y-142633380D01*
X112931598Y-142633383D01*
X112882182Y-142725833D01*
X112838417Y-142807712D01*
X112713015Y-142960515D01*
X112560212Y-143085917D01*
X112385881Y-143179099D01*
X112196720Y-143236480D01*
X112000000Y-143255855D01*
X111803281Y-143236480D01*
X111614120Y-143179099D01*
X111439788Y-143085917D01*
X111286985Y-142960515D01*
X111161583Y-142807712D01*
X111068401Y-142633381D01*
X111011020Y-142444220D01*
X110996500Y-142296794D01*
X110996500Y-142103207D01*
X111011020Y-141955781D01*
X111068401Y-141766620D01*
X111068402Y-141766617D01*
X111117818Y-141674167D01*
X111161583Y-141592288D01*
X111286985Y-141439485D01*
X111439788Y-141314083D01*
X111614119Y-141220901D01*
X111803280Y-141163520D01*
X112000000Y-141144145D01*
X112196719Y-141163520D01*
G37*
G36*
X114736719Y-138663520D02*
G01*
X114925880Y-138720901D01*
X114925883Y-138720902D01*
X115018333Y-138770318D01*
X115100212Y-138814083D01*
X115253015Y-138939485D01*
X115378417Y-139092288D01*
X115471599Y-139266619D01*
X115528980Y-139455780D01*
X115543500Y-139603206D01*
X115543500Y-139796793D01*
X115528980Y-139944219D01*
X115471599Y-140133380D01*
X115471598Y-140133383D01*
X115422182Y-140225833D01*
X115378417Y-140307712D01*
X115253015Y-140460515D01*
X115100212Y-140585917D01*
X114925881Y-140679099D01*
X114736720Y-140736480D01*
X114540000Y-140755855D01*
X114343281Y-140736480D01*
X114154120Y-140679099D01*
X113979788Y-140585917D01*
X113826985Y-140460515D01*
X113701583Y-140307712D01*
X113608401Y-140133381D01*
X113551020Y-139944220D01*
X113536500Y-139796794D01*
X113536500Y-139603207D01*
X113551020Y-139455781D01*
X113608401Y-139266620D01*
X113608402Y-139266617D01*
X113657818Y-139174167D01*
X113701583Y-139092288D01*
X113826985Y-138939485D01*
X113979788Y-138814083D01*
X114154119Y-138720901D01*
X114343280Y-138663520D01*
X114540000Y-138644145D01*
X114736719Y-138663520D01*
G37*
G36*
X110463500Y-140751000D02*
G01*
X108456500Y-140751000D01*
X108456500Y-138649000D01*
X110463500Y-138649000D01*
X110463500Y-140751000D01*
G37*
G36*
X152888228Y-136341703D02*
G01*
X153043100Y-136405853D01*
X153182481Y-136498985D01*
X153301015Y-136617519D01*
X153394147Y-136756900D01*
X153458297Y-136911772D01*
X153491000Y-137076184D01*
X153491000Y-137243816D01*
X153458297Y-137408228D01*
X153394147Y-137563100D01*
X153301015Y-137702481D01*
X153182481Y-137821015D01*
X153043100Y-137914147D01*
X152888228Y-137978297D01*
X152723816Y-138011000D01*
X152556184Y-138011000D01*
X152391772Y-137978297D01*
X152236900Y-137914147D01*
X152097519Y-137821015D01*
X151978985Y-137702481D01*
X151885853Y-137563100D01*
X151821703Y-137408228D01*
X151789000Y-137243816D01*
X151789000Y-137076184D01*
X151821703Y-136911772D01*
X151885853Y-136756900D01*
X151978985Y-136617519D01*
X152097519Y-136498985D01*
X152236900Y-136405853D01*
X152391772Y-136341703D01*
X152556184Y-136309000D01*
X152723816Y-136309000D01*
X152888228Y-136341703D01*
G37*
G36*
X135108228Y-136341703D02*
G01*
X135263100Y-136405853D01*
X135402481Y-136498985D01*
X135521015Y-136617519D01*
X135614147Y-136756900D01*
X135678297Y-136911772D01*
X135711000Y-137076184D01*
X135711000Y-137243816D01*
X135678297Y-137408228D01*
X135614147Y-137563100D01*
X135521015Y-137702481D01*
X135402481Y-137821015D01*
X135263100Y-137914147D01*
X135108228Y-137978297D01*
X134943816Y-138011000D01*
X134776184Y-138011000D01*
X134611772Y-137978297D01*
X134456900Y-137914147D01*
X134317519Y-137821015D01*
X134198985Y-137702481D01*
X134105853Y-137563100D01*
X134041703Y-137408228D01*
X134009000Y-137243816D01*
X134009000Y-137076184D01*
X134041703Y-136911772D01*
X134105853Y-136756900D01*
X134198985Y-136617519D01*
X134317519Y-136498985D01*
X134456900Y-136405853D01*
X134611772Y-136341703D01*
X134776184Y-136309000D01*
X134943816Y-136309000D01*
X135108228Y-136341703D01*
G37*
G36*
X145268228Y-136341703D02*
G01*
X145423100Y-136405853D01*
X145562481Y-136498985D01*
X145681015Y-136617519D01*
X145774147Y-136756900D01*
X145838297Y-136911772D01*
X145871000Y-137076184D01*
X145871000Y-137243816D01*
X145838297Y-137408228D01*
X145774147Y-137563100D01*
X145681015Y-137702481D01*
X145562481Y-137821015D01*
X145423100Y-137914147D01*
X145268228Y-137978297D01*
X145103816Y-138011000D01*
X144936184Y-138011000D01*
X144771772Y-137978297D01*
X144616900Y-137914147D01*
X144477519Y-137821015D01*
X144358985Y-137702481D01*
X144265853Y-137563100D01*
X144201703Y-137408228D01*
X144169000Y-137243816D01*
X144169000Y-137076184D01*
X144201703Y-136911772D01*
X144265853Y-136756900D01*
X144358985Y-136617519D01*
X144477519Y-136498985D01*
X144616900Y-136405853D01*
X144771772Y-136341703D01*
X144936184Y-136309000D01*
X145103816Y-136309000D01*
X145268228Y-136341703D01*
G37*
G36*
X163048228Y-136341703D02*
G01*
X163203100Y-136405853D01*
X163342481Y-136498985D01*
X163461015Y-136617519D01*
X163554147Y-136756900D01*
X163618297Y-136911772D01*
X163651000Y-137076184D01*
X163651000Y-137243816D01*
X163618297Y-137408228D01*
X163554147Y-137563100D01*
X163461015Y-137702481D01*
X163342481Y-137821015D01*
X163203100Y-137914147D01*
X163048228Y-137978297D01*
X162883816Y-138011000D01*
X162716184Y-138011000D01*
X162551772Y-137978297D01*
X162396900Y-137914147D01*
X162257519Y-137821015D01*
X162138985Y-137702481D01*
X162045853Y-137563100D01*
X161981703Y-137408228D01*
X161949000Y-137243816D01*
X161949000Y-137076184D01*
X161981703Y-136911772D01*
X162045853Y-136756900D01*
X162138985Y-136617519D01*
X162257519Y-136498985D01*
X162396900Y-136405853D01*
X162551772Y-136341703D01*
X162716184Y-136309000D01*
X162883816Y-136309000D01*
X163048228Y-136341703D01*
G37*
G36*
X155376719Y-131003520D02*
G01*
X155565880Y-131060901D01*
X155565883Y-131060902D01*
X155658333Y-131110318D01*
X155740212Y-131154083D01*
X155893015Y-131279485D01*
X156018417Y-131432288D01*
X156111599Y-131606619D01*
X156168980Y-131795780D01*
X156183500Y-131943206D01*
X156183500Y-132136793D01*
X156168980Y-132284219D01*
X156111599Y-132473380D01*
X156111598Y-132473383D01*
X156106404Y-132483100D01*
X156018417Y-132647712D01*
X155893015Y-132800515D01*
X155740212Y-132925917D01*
X155565881Y-133019099D01*
X155376720Y-133076480D01*
X155180000Y-133095855D01*
X154983281Y-133076480D01*
X154794120Y-133019099D01*
X154619788Y-132925917D01*
X154466985Y-132800515D01*
X154341583Y-132647712D01*
X154248401Y-132473381D01*
X154191020Y-132284220D01*
X154176500Y-132136794D01*
X154176500Y-131943207D01*
X154191020Y-131795781D01*
X154248401Y-131606620D01*
X154248402Y-131606617D01*
X154297818Y-131514167D01*
X154341583Y-131432288D01*
X154466985Y-131279485D01*
X154619788Y-131154083D01*
X154794119Y-131060901D01*
X154983280Y-131003520D01*
X155180000Y-130984145D01*
X155376719Y-131003520D01*
G37*
G36*
X173861000Y-132981000D02*
G01*
X172059000Y-132981000D01*
X172059000Y-131179000D01*
X173861000Y-131179000D01*
X173861000Y-132981000D01*
G37*
G36*
X100201000Y-132981000D02*
G01*
X98399000Y-132981000D01*
X98399000Y-131179000D01*
X100201000Y-131179000D01*
X100201000Y-132981000D01*
G37*
G36*
X130028228Y-131261703D02*
G01*
X130183100Y-131325853D01*
X130322481Y-131418985D01*
X130441015Y-131537519D01*
X130534147Y-131676900D01*
X130598297Y-131831772D01*
X130631000Y-131996184D01*
X130631000Y-132163816D01*
X130598297Y-132328228D01*
X130534147Y-132483100D01*
X130441015Y-132622481D01*
X130322481Y-132741015D01*
X130183100Y-132834147D01*
X130028228Y-132898297D01*
X129863816Y-132931000D01*
X129696184Y-132931000D01*
X129531772Y-132898297D01*
X129376900Y-132834147D01*
X129237519Y-132741015D01*
X129118985Y-132622481D01*
X129025853Y-132483100D01*
X128961703Y-132328228D01*
X128929000Y-132163816D01*
X128929000Y-131996184D01*
X128961703Y-131831772D01*
X129025853Y-131676900D01*
X129118985Y-131537519D01*
X129237519Y-131418985D01*
X129376900Y-131325853D01*
X129531772Y-131261703D01*
X129696184Y-131229000D01*
X129863816Y-131229000D01*
X130028228Y-131261703D01*
G37*
G36*
X122408228Y-131261703D02*
G01*
X122563100Y-131325853D01*
X122702481Y-131418985D01*
X122821015Y-131537519D01*
X122914147Y-131676900D01*
X122978297Y-131831772D01*
X123011000Y-131996184D01*
X123011000Y-132163816D01*
X122978297Y-132328228D01*
X122914147Y-132483100D01*
X122821015Y-132622481D01*
X122702481Y-132741015D01*
X122563100Y-132834147D01*
X122408228Y-132898297D01*
X122243816Y-132931000D01*
X122076184Y-132931000D01*
X121911772Y-132898297D01*
X121756900Y-132834147D01*
X121617519Y-132741015D01*
X121498985Y-132622481D01*
X121405853Y-132483100D01*
X121341703Y-132328228D01*
X121309000Y-132163816D01*
X121309000Y-131996184D01*
X121341703Y-131831772D01*
X121405853Y-131676900D01*
X121498985Y-131537519D01*
X121617519Y-131418985D01*
X121756900Y-131325853D01*
X121911772Y-131261703D01*
X122076184Y-131229000D01*
X122243816Y-131229000D01*
X122408228Y-131261703D01*
G37*
G36*
X157916719Y-128503520D02*
G01*
X158105880Y-128560901D01*
X158105883Y-128560902D01*
X158198333Y-128610318D01*
X158280212Y-128654083D01*
X158433015Y-128779485D01*
X158558417Y-128932288D01*
X158651599Y-129106619D01*
X158708980Y-129295780D01*
X158723500Y-129443206D01*
X158723500Y-129636793D01*
X158708980Y-129784219D01*
X158660785Y-129943097D01*
X158651598Y-129973383D01*
X158602182Y-130065833D01*
X158558417Y-130147712D01*
X158433015Y-130300515D01*
X158280212Y-130425917D01*
X158105881Y-130519099D01*
X157916720Y-130576480D01*
X157720000Y-130595855D01*
X157523281Y-130576480D01*
X157334120Y-130519099D01*
X157159788Y-130425917D01*
X157006985Y-130300515D01*
X156881583Y-130147712D01*
X156788401Y-129973381D01*
X156731020Y-129784220D01*
X156716500Y-129636794D01*
X156716500Y-129443207D01*
X156731020Y-129295781D01*
X156788401Y-129106620D01*
X156788402Y-129106617D01*
X156846716Y-128997520D01*
X156881583Y-128932288D01*
X157006985Y-128779485D01*
X157159788Y-128654083D01*
X157334119Y-128560901D01*
X157523280Y-128503520D01*
X157720000Y-128484145D01*
X157916719Y-128503520D01*
G37*
G36*
X153643500Y-130591000D02*
G01*
X151636500Y-130591000D01*
X151636500Y-128489000D01*
X153643500Y-128489000D01*
X153643500Y-130591000D01*
G37*
G36*
X99413512Y-128643927D02*
G01*
X99562812Y-128673624D01*
X99726784Y-128741544D01*
X99874354Y-128840147D01*
X99999853Y-128965646D01*
X100098456Y-129113216D01*
X100166376Y-129277188D01*
X100196073Y-129426488D01*
X100201000Y-129451258D01*
X100201000Y-129628742D01*
X100199398Y-129636794D01*
X100166376Y-129802812D01*
X100098456Y-129966784D01*
X99999853Y-130114354D01*
X99874354Y-130239853D01*
X99726784Y-130338456D01*
X99562812Y-130406376D01*
X99413512Y-130436073D01*
X99388742Y-130441000D01*
X99211258Y-130441000D01*
X99186488Y-130436073D01*
X99037188Y-130406376D01*
X98873216Y-130338456D01*
X98725646Y-130239853D01*
X98600147Y-130114354D01*
X98501544Y-129966784D01*
X98433624Y-129802812D01*
X98400602Y-129636794D01*
X98399000Y-129628742D01*
X98399000Y-129451258D01*
X98403927Y-129426488D01*
X98433624Y-129277188D01*
X98501544Y-129113216D01*
X98600147Y-128965646D01*
X98725646Y-128840147D01*
X98873216Y-128741544D01*
X99037188Y-128673624D01*
X99186488Y-128643927D01*
X99211258Y-128639000D01*
X99388742Y-128639000D01*
X99413512Y-128643927D01*
G37*
G36*
X173073512Y-128643927D02*
G01*
X173222812Y-128673624D01*
X173386784Y-128741544D01*
X173534354Y-128840147D01*
X173659853Y-128965646D01*
X173758456Y-129113216D01*
X173826376Y-129277188D01*
X173856073Y-129426488D01*
X173861000Y-129451258D01*
X173861000Y-129628742D01*
X173859398Y-129636794D01*
X173826376Y-129802812D01*
X173758456Y-129966784D01*
X173659853Y-130114354D01*
X173534354Y-130239853D01*
X173386784Y-130338456D01*
X173222812Y-130406376D01*
X173073512Y-130436073D01*
X173048742Y-130441000D01*
X172871258Y-130441000D01*
X172846488Y-130436073D01*
X172697188Y-130406376D01*
X172533216Y-130338456D01*
X172385646Y-130239853D01*
X172260147Y-130114354D01*
X172161544Y-129966784D01*
X172093624Y-129802812D01*
X172060602Y-129636794D01*
X172059000Y-129628742D01*
X172059000Y-129451258D01*
X172063927Y-129426488D01*
X172093624Y-129277188D01*
X172161544Y-129113216D01*
X172260147Y-128965646D01*
X172385646Y-128840147D01*
X172533216Y-128741544D01*
X172697188Y-128673624D01*
X172846488Y-128643927D01*
X172871258Y-128639000D01*
X173048742Y-128639000D01*
X173073512Y-128643927D01*
G37*
G36*
X117328228Y-128721703D02*
G01*
X117483100Y-128785853D01*
X117622481Y-128878985D01*
X117741015Y-128997519D01*
X117834147Y-129136900D01*
X117898297Y-129291772D01*
X117931000Y-129456184D01*
X117931000Y-129623816D01*
X117898297Y-129788228D01*
X117834147Y-129943100D01*
X117741015Y-130082481D01*
X117622481Y-130201015D01*
X117483100Y-130294147D01*
X117328228Y-130358297D01*
X117163816Y-130391000D01*
X116996184Y-130391000D01*
X116831772Y-130358297D01*
X116676900Y-130294147D01*
X116537519Y-130201015D01*
X116418985Y-130082481D01*
X116325853Y-129943100D01*
X116261703Y-129788228D01*
X116229000Y-129623816D01*
X116229000Y-129456184D01*
X116261703Y-129291772D01*
X116325853Y-129136900D01*
X116418985Y-128997519D01*
X116537519Y-128878985D01*
X116676900Y-128785853D01*
X116831772Y-128721703D01*
X116996184Y-128689000D01*
X117163816Y-128689000D01*
X117328228Y-128721703D01*
G37*
G36*
X135108228Y-128721703D02*
G01*
X135263100Y-128785853D01*
X135402481Y-128878985D01*
X135521015Y-128997519D01*
X135614147Y-129136900D01*
X135678297Y-129291772D01*
X135711000Y-129456184D01*
X135711000Y-129623816D01*
X135678297Y-129788228D01*
X135614147Y-129943100D01*
X135521015Y-130082481D01*
X135402481Y-130201015D01*
X135263100Y-130294147D01*
X135108228Y-130358297D01*
X134943816Y-130391000D01*
X134776184Y-130391000D01*
X134611772Y-130358297D01*
X134456900Y-130294147D01*
X134317519Y-130201015D01*
X134198985Y-130082481D01*
X134105853Y-129943100D01*
X134041703Y-129788228D01*
X134009000Y-129623816D01*
X134009000Y-129456184D01*
X134041703Y-129291772D01*
X134105853Y-129136900D01*
X134198985Y-128997519D01*
X134317519Y-128878985D01*
X134456900Y-128785853D01*
X134611772Y-128721703D01*
X134776184Y-128689000D01*
X134943816Y-128689000D01*
X135108228Y-128721703D01*
G37*
G36*
X107168228Y-128721703D02*
G01*
X107323100Y-128785853D01*
X107462481Y-128878985D01*
X107581015Y-128997519D01*
X107674147Y-129136900D01*
X107738297Y-129291772D01*
X107771000Y-129456184D01*
X107771000Y-129623816D01*
X107738297Y-129788228D01*
X107674147Y-129943100D01*
X107581015Y-130082481D01*
X107462481Y-130201015D01*
X107323100Y-130294147D01*
X107168228Y-130358297D01*
X107003816Y-130391000D01*
X106836184Y-130391000D01*
X106671772Y-130358297D01*
X106516900Y-130294147D01*
X106377519Y-130201015D01*
X106258985Y-130082481D01*
X106165853Y-129943100D01*
X106101703Y-129788228D01*
X106069000Y-129623816D01*
X106069000Y-129456184D01*
X106101703Y-129291772D01*
X106165853Y-129136900D01*
X106258985Y-128997519D01*
X106377519Y-128878985D01*
X106516900Y-128785853D01*
X106671772Y-128721703D01*
X106836184Y-128689000D01*
X107003816Y-128689000D01*
X107168228Y-128721703D01*
G37*
G36*
X145268228Y-128721703D02*
G01*
X145423100Y-128785853D01*
X145562481Y-128878985D01*
X145681015Y-128997519D01*
X145774147Y-129136900D01*
X145838297Y-129291772D01*
X145871000Y-129456184D01*
X145871000Y-129623816D01*
X145838297Y-129788228D01*
X145774147Y-129943100D01*
X145681015Y-130082481D01*
X145562481Y-130201015D01*
X145423100Y-130294147D01*
X145268228Y-130358297D01*
X145103816Y-130391000D01*
X144936184Y-130391000D01*
X144771772Y-130358297D01*
X144616900Y-130294147D01*
X144477519Y-130201015D01*
X144358985Y-130082481D01*
X144265853Y-129943100D01*
X144201703Y-129788228D01*
X144169000Y-129623816D01*
X144169000Y-129456184D01*
X144201703Y-129291772D01*
X144265853Y-129136900D01*
X144358985Y-128997519D01*
X144477519Y-128878985D01*
X144616900Y-128785853D01*
X144771772Y-128721703D01*
X144936184Y-128689000D01*
X145103816Y-128689000D01*
X145268228Y-128721703D01*
G37*
G36*
X130028228Y-128721703D02*
G01*
X130183100Y-128785853D01*
X130322481Y-128878985D01*
X130441015Y-128997519D01*
X130534147Y-129136900D01*
X130598297Y-129291772D01*
X130631000Y-129456184D01*
X130631000Y-129623816D01*
X130598297Y-129788228D01*
X130534147Y-129943100D01*
X130441015Y-130082481D01*
X130322481Y-130201015D01*
X130183100Y-130294147D01*
X130028228Y-130358297D01*
X129863816Y-130391000D01*
X129696184Y-130391000D01*
X129531772Y-130358297D01*
X129376900Y-130294147D01*
X129237519Y-130201015D01*
X129118985Y-130082481D01*
X129025853Y-129943100D01*
X128961703Y-129788228D01*
X128929000Y-129623816D01*
X128929000Y-129456184D01*
X128961703Y-129291772D01*
X129025853Y-129136900D01*
X129118985Y-128997519D01*
X129237519Y-128878985D01*
X129376900Y-128785853D01*
X129531772Y-128721703D01*
X129696184Y-128689000D01*
X129863816Y-128689000D01*
X130028228Y-128721703D01*
G37*
G36*
X123011000Y-130391000D02*
G01*
X121309000Y-130391000D01*
X121309000Y-128689000D01*
X123011000Y-128689000D01*
X123011000Y-130391000D01*
G37*
G36*
X145268228Y-118561703D02*
G01*
X145423100Y-118625853D01*
X145562481Y-118718985D01*
X145681015Y-118837519D01*
X145774147Y-118976900D01*
X145838297Y-119131772D01*
X145871000Y-119296184D01*
X145871000Y-119463816D01*
X145838297Y-119628228D01*
X145774147Y-119783100D01*
X145681015Y-119922481D01*
X145562481Y-120041015D01*
X145423100Y-120134147D01*
X145268228Y-120198297D01*
X145103816Y-120231000D01*
X144936184Y-120231000D01*
X144771772Y-120198297D01*
X144616900Y-120134147D01*
X144477519Y-120041015D01*
X144358985Y-119922481D01*
X144265853Y-119783100D01*
X144201703Y-119628228D01*
X144169000Y-119463816D01*
X144169000Y-119296184D01*
X144201703Y-119131772D01*
X144265853Y-118976900D01*
X144358985Y-118837519D01*
X144477519Y-118718985D01*
X144616900Y-118625853D01*
X144771772Y-118561703D01*
X144936184Y-118529000D01*
X145103816Y-118529000D01*
X145268228Y-118561703D01*
G37*
G36*
X163048228Y-118561703D02*
G01*
X163203100Y-118625853D01*
X163342481Y-118718985D01*
X163461015Y-118837519D01*
X163554147Y-118976900D01*
X163618297Y-119131772D01*
X163651000Y-119296184D01*
X163651000Y-119463816D01*
X163618297Y-119628228D01*
X163554147Y-119783100D01*
X163461015Y-119922481D01*
X163342481Y-120041015D01*
X163203100Y-120134147D01*
X163048228Y-120198297D01*
X162883816Y-120231000D01*
X162716184Y-120231000D01*
X162551772Y-120198297D01*
X162396900Y-120134147D01*
X162257519Y-120041015D01*
X162138985Y-119922481D01*
X162045853Y-119783100D01*
X161981703Y-119628228D01*
X161949000Y-119463816D01*
X161949000Y-119296184D01*
X161981703Y-119131772D01*
X162045853Y-118976900D01*
X162138985Y-118837519D01*
X162257519Y-118718985D01*
X162396900Y-118625853D01*
X162551772Y-118561703D01*
X162716184Y-118529000D01*
X162883816Y-118529000D01*
X163048228Y-118561703D01*
G37*
G36*
X152888228Y-118561703D02*
G01*
X153043100Y-118625853D01*
X153182481Y-118718985D01*
X153301015Y-118837519D01*
X153394147Y-118976900D01*
X153458297Y-119131772D01*
X153491000Y-119296184D01*
X153491000Y-119463816D01*
X153458297Y-119628228D01*
X153394147Y-119783100D01*
X153301015Y-119922481D01*
X153182481Y-120041015D01*
X153043100Y-120134147D01*
X152888228Y-120198297D01*
X152723816Y-120231000D01*
X152556184Y-120231000D01*
X152391772Y-120198297D01*
X152236900Y-120134147D01*
X152097519Y-120041015D01*
X151978985Y-119922481D01*
X151885853Y-119783100D01*
X151821703Y-119628228D01*
X151789000Y-119463816D01*
X151789000Y-119296184D01*
X151821703Y-119131772D01*
X151885853Y-118976900D01*
X151978985Y-118837519D01*
X152097519Y-118718985D01*
X152236900Y-118625853D01*
X152391772Y-118561703D01*
X152556184Y-118529000D01*
X152723816Y-118529000D01*
X152888228Y-118561703D01*
G37*
G36*
X135108228Y-118561703D02*
G01*
X135263100Y-118625853D01*
X135402481Y-118718985D01*
X135521015Y-118837519D01*
X135614147Y-118976900D01*
X135678297Y-119131772D01*
X135711000Y-119296184D01*
X135711000Y-119463816D01*
X135678297Y-119628228D01*
X135614147Y-119783100D01*
X135521015Y-119922481D01*
X135402481Y-120041015D01*
X135263100Y-120134147D01*
X135108228Y-120198297D01*
X134943816Y-120231000D01*
X134776184Y-120231000D01*
X134611772Y-120198297D01*
X134456900Y-120134147D01*
X134317519Y-120041015D01*
X134198985Y-119922481D01*
X134105853Y-119783100D01*
X134041703Y-119628228D01*
X134009000Y-119463816D01*
X134009000Y-119296184D01*
X134041703Y-119131772D01*
X134105853Y-118976900D01*
X134198985Y-118837519D01*
X134317519Y-118718985D01*
X134456900Y-118625853D01*
X134611772Y-118561703D01*
X134776184Y-118529000D01*
X134943816Y-118529000D01*
X135108228Y-118561703D01*
G37*
G36*
X155376719Y-113223520D02*
G01*
X155565880Y-113280901D01*
X155565883Y-113280902D01*
X155658333Y-113330318D01*
X155740212Y-113374083D01*
X155893015Y-113499485D01*
X156018417Y-113652288D01*
X156111599Y-113826619D01*
X156168980Y-114015780D01*
X156183500Y-114163206D01*
X156183500Y-114356793D01*
X156168980Y-114504219D01*
X156111599Y-114693380D01*
X156111598Y-114693383D01*
X156106404Y-114703100D01*
X156018417Y-114867712D01*
X155893015Y-115020515D01*
X155740212Y-115145917D01*
X155565881Y-115239099D01*
X155376720Y-115296480D01*
X155180000Y-115315855D01*
X154983281Y-115296480D01*
X154794120Y-115239099D01*
X154619788Y-115145917D01*
X154466985Y-115020515D01*
X154341583Y-114867712D01*
X154248401Y-114693381D01*
X154191020Y-114504220D01*
X154176500Y-114356794D01*
X154176500Y-114163207D01*
X154191020Y-114015781D01*
X154248401Y-113826620D01*
X154248402Y-113826617D01*
X154297818Y-113734167D01*
X154341583Y-113652288D01*
X154466985Y-113499485D01*
X154619788Y-113374083D01*
X154794119Y-113280901D01*
X154983280Y-113223520D01*
X155180000Y-113204145D01*
X155376719Y-113223520D01*
G37*
G36*
X173861000Y-115201000D02*
G01*
X172059000Y-115201000D01*
X172059000Y-113399000D01*
X173861000Y-113399000D01*
X173861000Y-115201000D01*
G37*
G36*
X100201000Y-115201000D02*
G01*
X98399000Y-115201000D01*
X98399000Y-113399000D01*
X100201000Y-113399000D01*
X100201000Y-115201000D01*
G37*
G36*
X130028228Y-113481703D02*
G01*
X130183100Y-113545853D01*
X130322481Y-113638985D01*
X130441015Y-113757519D01*
X130534147Y-113896900D01*
X130598297Y-114051772D01*
X130631000Y-114216184D01*
X130631000Y-114383816D01*
X130598297Y-114548228D01*
X130534147Y-114703100D01*
X130441015Y-114842481D01*
X130322481Y-114961015D01*
X130183100Y-115054147D01*
X130028228Y-115118297D01*
X129863816Y-115151000D01*
X129696184Y-115151000D01*
X129531772Y-115118297D01*
X129376900Y-115054147D01*
X129237519Y-114961015D01*
X129118985Y-114842481D01*
X129025853Y-114703100D01*
X128961703Y-114548228D01*
X128929000Y-114383816D01*
X128929000Y-114216184D01*
X128961703Y-114051772D01*
X129025853Y-113896900D01*
X129118985Y-113757519D01*
X129237519Y-113638985D01*
X129376900Y-113545853D01*
X129531772Y-113481703D01*
X129696184Y-113449000D01*
X129863816Y-113449000D01*
X130028228Y-113481703D01*
G37*
G36*
X122408228Y-113481703D02*
G01*
X122563100Y-113545853D01*
X122702481Y-113638985D01*
X122821015Y-113757519D01*
X122914147Y-113896900D01*
X122978297Y-114051772D01*
X123011000Y-114216184D01*
X123011000Y-114383816D01*
X122978297Y-114548228D01*
X122914147Y-114703100D01*
X122821015Y-114842481D01*
X122702481Y-114961015D01*
X122563100Y-115054147D01*
X122408228Y-115118297D01*
X122243816Y-115151000D01*
X122076184Y-115151000D01*
X121911772Y-115118297D01*
X121756900Y-115054147D01*
X121617519Y-114961015D01*
X121498985Y-114842481D01*
X121405853Y-114703100D01*
X121341703Y-114548228D01*
X121309000Y-114383816D01*
X121309000Y-114216184D01*
X121341703Y-114051772D01*
X121405853Y-113896900D01*
X121498985Y-113757519D01*
X121617519Y-113638985D01*
X121756900Y-113545853D01*
X121911772Y-113481703D01*
X122076184Y-113449000D01*
X122243816Y-113449000D01*
X122408228Y-113481703D01*
G37*
G36*
X157916719Y-110723520D02*
G01*
X158105880Y-110780901D01*
X158105883Y-110780902D01*
X158198333Y-110830318D01*
X158280212Y-110874083D01*
X158433015Y-110999485D01*
X158558417Y-111152288D01*
X158651599Y-111326619D01*
X158708980Y-111515780D01*
X158723500Y-111663206D01*
X158723500Y-111856793D01*
X158708980Y-112004219D01*
X158660785Y-112163097D01*
X158651598Y-112193383D01*
X158602182Y-112285833D01*
X158558417Y-112367712D01*
X158433015Y-112520515D01*
X158280212Y-112645917D01*
X158105881Y-112739099D01*
X157916720Y-112796480D01*
X157720000Y-112815855D01*
X157523281Y-112796480D01*
X157334120Y-112739099D01*
X157159788Y-112645917D01*
X157006985Y-112520515D01*
X156881583Y-112367712D01*
X156788401Y-112193381D01*
X156731020Y-112004220D01*
X156716500Y-111856794D01*
X156716500Y-111663207D01*
X156731020Y-111515781D01*
X156788401Y-111326620D01*
X156788402Y-111326617D01*
X156846716Y-111217520D01*
X156881583Y-111152288D01*
X157006985Y-110999485D01*
X157159788Y-110874083D01*
X157334119Y-110780901D01*
X157523280Y-110723520D01*
X157720000Y-110704145D01*
X157916719Y-110723520D01*
G37*
G36*
X153643500Y-112811000D02*
G01*
X151636500Y-112811000D01*
X151636500Y-110709000D01*
X153643500Y-110709000D01*
X153643500Y-112811000D01*
G37*
G36*
X173073512Y-110863927D02*
G01*
X173222812Y-110893624D01*
X173386784Y-110961544D01*
X173534354Y-111060147D01*
X173659853Y-111185646D01*
X173758456Y-111333216D01*
X173826376Y-111497188D01*
X173856073Y-111646488D01*
X173861000Y-111671258D01*
X173861000Y-111848742D01*
X173859398Y-111856794D01*
X173826376Y-112022812D01*
X173758456Y-112186784D01*
X173659853Y-112334354D01*
X173534354Y-112459853D01*
X173386784Y-112558456D01*
X173222812Y-112626376D01*
X173073512Y-112656073D01*
X173048742Y-112661000D01*
X172871258Y-112661000D01*
X172846488Y-112656073D01*
X172697188Y-112626376D01*
X172533216Y-112558456D01*
X172385646Y-112459853D01*
X172260147Y-112334354D01*
X172161544Y-112186784D01*
X172093624Y-112022812D01*
X172060602Y-111856794D01*
X172059000Y-111848742D01*
X172059000Y-111671258D01*
X172063927Y-111646488D01*
X172093624Y-111497188D01*
X172161544Y-111333216D01*
X172260147Y-111185646D01*
X172385646Y-111060147D01*
X172533216Y-110961544D01*
X172697188Y-110893624D01*
X172846488Y-110863927D01*
X172871258Y-110859000D01*
X173048742Y-110859000D01*
X173073512Y-110863927D01*
G37*
G36*
X99413512Y-110863927D02*
G01*
X99562812Y-110893624D01*
X99726784Y-110961544D01*
X99874354Y-111060147D01*
X99999853Y-111185646D01*
X100098456Y-111333216D01*
X100166376Y-111497188D01*
X100196073Y-111646488D01*
X100201000Y-111671258D01*
X100201000Y-111848742D01*
X100199398Y-111856794D01*
X100166376Y-112022812D01*
X100098456Y-112186784D01*
X99999853Y-112334354D01*
X99874354Y-112459853D01*
X99726784Y-112558456D01*
X99562812Y-112626376D01*
X99413512Y-112656073D01*
X99388742Y-112661000D01*
X99211258Y-112661000D01*
X99186488Y-112656073D01*
X99037188Y-112626376D01*
X98873216Y-112558456D01*
X98725646Y-112459853D01*
X98600147Y-112334354D01*
X98501544Y-112186784D01*
X98433624Y-112022812D01*
X98400602Y-111856794D01*
X98399000Y-111848742D01*
X98399000Y-111671258D01*
X98403927Y-111646488D01*
X98433624Y-111497188D01*
X98501544Y-111333216D01*
X98600147Y-111185646D01*
X98725646Y-111060147D01*
X98873216Y-110961544D01*
X99037188Y-110893624D01*
X99186488Y-110863927D01*
X99211258Y-110859000D01*
X99388742Y-110859000D01*
X99413512Y-110863927D01*
G37*
G36*
X123011000Y-112611000D02*
G01*
X121309000Y-112611000D01*
X121309000Y-110909000D01*
X123011000Y-110909000D01*
X123011000Y-112611000D01*
G37*
G36*
X145268228Y-110941703D02*
G01*
X145423100Y-111005853D01*
X145562481Y-111098985D01*
X145681015Y-111217519D01*
X145774147Y-111356900D01*
X145838297Y-111511772D01*
X145871000Y-111676184D01*
X145871000Y-111843816D01*
X145838297Y-112008228D01*
X145774147Y-112163100D01*
X145681015Y-112302481D01*
X145562481Y-112421015D01*
X145423100Y-112514147D01*
X145268228Y-112578297D01*
X145103816Y-112611000D01*
X144936184Y-112611000D01*
X144771772Y-112578297D01*
X144616900Y-112514147D01*
X144477519Y-112421015D01*
X144358985Y-112302481D01*
X144265853Y-112163100D01*
X144201703Y-112008228D01*
X144169000Y-111843816D01*
X144169000Y-111676184D01*
X144201703Y-111511772D01*
X144265853Y-111356900D01*
X144358985Y-111217519D01*
X144477519Y-111098985D01*
X144616900Y-111005853D01*
X144771772Y-110941703D01*
X144936184Y-110909000D01*
X145103816Y-110909000D01*
X145268228Y-110941703D01*
G37*
G36*
X107168228Y-110941703D02*
G01*
X107323100Y-111005853D01*
X107462481Y-111098985D01*
X107581015Y-111217519D01*
X107674147Y-111356900D01*
X107738297Y-111511772D01*
X107771000Y-111676184D01*
X107771000Y-111843816D01*
X107738297Y-112008228D01*
X107674147Y-112163100D01*
X107581015Y-112302481D01*
X107462481Y-112421015D01*
X107323100Y-112514147D01*
X107168228Y-112578297D01*
X107003816Y-112611000D01*
X106836184Y-112611000D01*
X106671772Y-112578297D01*
X106516900Y-112514147D01*
X106377519Y-112421015D01*
X106258985Y-112302481D01*
X106165853Y-112163100D01*
X106101703Y-112008228D01*
X106069000Y-111843816D01*
X106069000Y-111676184D01*
X106101703Y-111511772D01*
X106165853Y-111356900D01*
X106258985Y-111217519D01*
X106377519Y-111098985D01*
X106516900Y-111005853D01*
X106671772Y-110941703D01*
X106836184Y-110909000D01*
X107003816Y-110909000D01*
X107168228Y-110941703D01*
G37*
G36*
X117328228Y-110941703D02*
G01*
X117483100Y-111005853D01*
X117622481Y-111098985D01*
X117741015Y-111217519D01*
X117834147Y-111356900D01*
X117898297Y-111511772D01*
X117931000Y-111676184D01*
X117931000Y-111843816D01*
X117898297Y-112008228D01*
X117834147Y-112163100D01*
X117741015Y-112302481D01*
X117622481Y-112421015D01*
X117483100Y-112514147D01*
X117328228Y-112578297D01*
X117163816Y-112611000D01*
X116996184Y-112611000D01*
X116831772Y-112578297D01*
X116676900Y-112514147D01*
X116537519Y-112421015D01*
X116418985Y-112302481D01*
X116325853Y-112163100D01*
X116261703Y-112008228D01*
X116229000Y-111843816D01*
X116229000Y-111676184D01*
X116261703Y-111511772D01*
X116325853Y-111356900D01*
X116418985Y-111217519D01*
X116537519Y-111098985D01*
X116676900Y-111005853D01*
X116831772Y-110941703D01*
X116996184Y-110909000D01*
X117163816Y-110909000D01*
X117328228Y-110941703D01*
G37*
G36*
X135108228Y-110941703D02*
G01*
X135263100Y-111005853D01*
X135402481Y-111098985D01*
X135521015Y-111217519D01*
X135614147Y-111356900D01*
X135678297Y-111511772D01*
X135711000Y-111676184D01*
X135711000Y-111843816D01*
X135678297Y-112008228D01*
X135614147Y-112163100D01*
X135521015Y-112302481D01*
X135402481Y-112421015D01*
X135263100Y-112514147D01*
X135108228Y-112578297D01*
X134943816Y-112611000D01*
X134776184Y-112611000D01*
X134611772Y-112578297D01*
X134456900Y-112514147D01*
X134317519Y-112421015D01*
X134198985Y-112302481D01*
X134105853Y-112163100D01*
X134041703Y-112008228D01*
X134009000Y-111843816D01*
X134009000Y-111676184D01*
X134041703Y-111511772D01*
X134105853Y-111356900D01*
X134198985Y-111217519D01*
X134317519Y-111098985D01*
X134456900Y-111005853D01*
X134611772Y-110941703D01*
X134776184Y-110909000D01*
X134943816Y-110909000D01*
X135108228Y-110941703D01*
G37*
G36*
X130028228Y-110941703D02*
G01*
X130183100Y-111005853D01*
X130322481Y-111098985D01*
X130441015Y-111217519D01*
X130534147Y-111356900D01*
X130598297Y-111511772D01*
X130631000Y-111676184D01*
X130631000Y-111843816D01*
X130598297Y-112008228D01*
X130534147Y-112163100D01*
X130441015Y-112302481D01*
X130322481Y-112421015D01*
X130183100Y-112514147D01*
X130028228Y-112578297D01*
X129863816Y-112611000D01*
X129696184Y-112611000D01*
X129531772Y-112578297D01*
X129376900Y-112514147D01*
X129237519Y-112421015D01*
X129118985Y-112302481D01*
X129025853Y-112163100D01*
X128961703Y-112008228D01*
X128929000Y-111843816D01*
X128929000Y-111676184D01*
X128961703Y-111511772D01*
X129025853Y-111356900D01*
X129118985Y-111217519D01*
X129237519Y-111098985D01*
X129376900Y-111005853D01*
X129531772Y-110941703D01*
X129696184Y-110909000D01*
X129863816Y-110909000D01*
X130028228Y-110941703D01*
G37*
G36*
X115481720Y-94098520D02*
G01*
X115670881Y-94155901D01*
X115845212Y-94249083D01*
X115998015Y-94374485D01*
X116123417Y-94527288D01*
X116158284Y-94592520D01*
X116216598Y-94701617D01*
X116216599Y-94701620D01*
X116273980Y-94890781D01*
X116288500Y-95038207D01*
X116288500Y-95231794D01*
X116273980Y-95379220D01*
X116216599Y-95568381D01*
X116123417Y-95742712D01*
X115998015Y-95895515D01*
X115845212Y-96020917D01*
X115763333Y-96064682D01*
X115670883Y-96114098D01*
X115670880Y-96114099D01*
X115481719Y-96171480D01*
X115285000Y-96190855D01*
X115088280Y-96171480D01*
X114899119Y-96114099D01*
X114724788Y-96020917D01*
X114571985Y-95895515D01*
X114446583Y-95742712D01*
X114402818Y-95660833D01*
X114353402Y-95568383D01*
X114344215Y-95538097D01*
X114296020Y-95379219D01*
X114281500Y-95231793D01*
X114281500Y-95038206D01*
X114296020Y-94890780D01*
X114353401Y-94701619D01*
X114446583Y-94527288D01*
X114571985Y-94374485D01*
X114724788Y-94249083D01*
X114899120Y-94155901D01*
X115088281Y-94098520D01*
X115285000Y-94079145D01*
X115481720Y-94098520D01*
G37*
G36*
X121368500Y-96186000D02*
G01*
X119361500Y-96186000D01*
X119361500Y-94084000D01*
X121368500Y-94084000D01*
X121368500Y-96186000D01*
G37*
G36*
X100158512Y-94238927D02*
G01*
X100307812Y-94268624D01*
X100471784Y-94336544D01*
X100619354Y-94435147D01*
X100744853Y-94560646D01*
X100843456Y-94708216D01*
X100911376Y-94872188D01*
X100941073Y-95021488D01*
X100946000Y-95046258D01*
X100946000Y-95223742D01*
X100944398Y-95231794D01*
X100911376Y-95397812D01*
X100843456Y-95561784D01*
X100744853Y-95709354D01*
X100619354Y-95834853D01*
X100471784Y-95933456D01*
X100307812Y-96001376D01*
X100158512Y-96031073D01*
X100133742Y-96036000D01*
X99956258Y-96036000D01*
X99931488Y-96031073D01*
X99782188Y-96001376D01*
X99618216Y-95933456D01*
X99470646Y-95834853D01*
X99345147Y-95709354D01*
X99246544Y-95561784D01*
X99178624Y-95397812D01*
X99145602Y-95231794D01*
X99144000Y-95223742D01*
X99144000Y-95046258D01*
X99148927Y-95021488D01*
X99178624Y-94872188D01*
X99246544Y-94708216D01*
X99345147Y-94560646D01*
X99470646Y-94435147D01*
X99618216Y-94336544D01*
X99782188Y-94268624D01*
X99931488Y-94238927D01*
X99956258Y-94234000D01*
X100133742Y-94234000D01*
X100158512Y-94238927D01*
G37*
G36*
X173818512Y-94238927D02*
G01*
X173967812Y-94268624D01*
X174131784Y-94336544D01*
X174279354Y-94435147D01*
X174404853Y-94560646D01*
X174503456Y-94708216D01*
X174571376Y-94872188D01*
X174601073Y-95021488D01*
X174606000Y-95046258D01*
X174606000Y-95223742D01*
X174604398Y-95231794D01*
X174571376Y-95397812D01*
X174503456Y-95561784D01*
X174404853Y-95709354D01*
X174279354Y-95834853D01*
X174131784Y-95933456D01*
X173967812Y-96001376D01*
X173818512Y-96031073D01*
X173793742Y-96036000D01*
X173616258Y-96036000D01*
X173591488Y-96031073D01*
X173442188Y-96001376D01*
X173278216Y-95933456D01*
X173130646Y-95834853D01*
X173005147Y-95709354D01*
X172906544Y-95561784D01*
X172838624Y-95397812D01*
X172805602Y-95231794D01*
X172804000Y-95223742D01*
X172804000Y-95046258D01*
X172808927Y-95021488D01*
X172838624Y-94872188D01*
X172906544Y-94708216D01*
X173005147Y-94560646D01*
X173130646Y-94435147D01*
X173278216Y-94336544D01*
X173442188Y-94268624D01*
X173591488Y-94238927D01*
X173616258Y-94234000D01*
X173793742Y-94234000D01*
X173818512Y-94238927D01*
G37*
G36*
X166333228Y-94316703D02*
G01*
X166488100Y-94380853D01*
X166627481Y-94473985D01*
X166746015Y-94592519D01*
X166839147Y-94731900D01*
X166903297Y-94886772D01*
X166936000Y-95051184D01*
X166936000Y-95218816D01*
X166903297Y-95383228D01*
X166839147Y-95538100D01*
X166746015Y-95677481D01*
X166627481Y-95796015D01*
X166488100Y-95889147D01*
X166333228Y-95953297D01*
X166168816Y-95986000D01*
X166001184Y-95986000D01*
X165836772Y-95953297D01*
X165681900Y-95889147D01*
X165542519Y-95796015D01*
X165423985Y-95677481D01*
X165330853Y-95538100D01*
X165266703Y-95383228D01*
X165234000Y-95218816D01*
X165234000Y-95051184D01*
X165266703Y-94886772D01*
X165330853Y-94731900D01*
X165423985Y-94592519D01*
X165542519Y-94473985D01*
X165681900Y-94380853D01*
X165836772Y-94316703D01*
X166001184Y-94284000D01*
X166168816Y-94284000D01*
X166333228Y-94316703D01*
G37*
G36*
X156173228Y-94316703D02*
G01*
X156328100Y-94380853D01*
X156467481Y-94473985D01*
X156586015Y-94592519D01*
X156679147Y-94731900D01*
X156743297Y-94886772D01*
X156776000Y-95051184D01*
X156776000Y-95218816D01*
X156743297Y-95383228D01*
X156679147Y-95538100D01*
X156586015Y-95677481D01*
X156467481Y-95796015D01*
X156328100Y-95889147D01*
X156173228Y-95953297D01*
X156008816Y-95986000D01*
X155841184Y-95986000D01*
X155676772Y-95953297D01*
X155521900Y-95889147D01*
X155382519Y-95796015D01*
X155263985Y-95677481D01*
X155170853Y-95538100D01*
X155106703Y-95383228D01*
X155074000Y-95218816D01*
X155074000Y-95051184D01*
X155106703Y-94886772D01*
X155170853Y-94731900D01*
X155263985Y-94592519D01*
X155382519Y-94473985D01*
X155521900Y-94380853D01*
X155676772Y-94316703D01*
X155841184Y-94284000D01*
X156008816Y-94284000D01*
X156173228Y-94316703D01*
G37*
G36*
X128233228Y-94316703D02*
G01*
X128388100Y-94380853D01*
X128527481Y-94473985D01*
X128646015Y-94592519D01*
X128739147Y-94731900D01*
X128803297Y-94886772D01*
X128836000Y-95051184D01*
X128836000Y-95218816D01*
X128803297Y-95383228D01*
X128739147Y-95538100D01*
X128646015Y-95677481D01*
X128527481Y-95796015D01*
X128388100Y-95889147D01*
X128233228Y-95953297D01*
X128068816Y-95986000D01*
X127901184Y-95986000D01*
X127736772Y-95953297D01*
X127581900Y-95889147D01*
X127442519Y-95796015D01*
X127323985Y-95677481D01*
X127230853Y-95538100D01*
X127166703Y-95383228D01*
X127134000Y-95218816D01*
X127134000Y-95051184D01*
X127166703Y-94886772D01*
X127230853Y-94731900D01*
X127323985Y-94592519D01*
X127442519Y-94473985D01*
X127581900Y-94380853D01*
X127736772Y-94316703D01*
X127901184Y-94284000D01*
X128068816Y-94284000D01*
X128233228Y-94316703D01*
G37*
G36*
X138393228Y-94316703D02*
G01*
X138548100Y-94380853D01*
X138687481Y-94473985D01*
X138806015Y-94592519D01*
X138899147Y-94731900D01*
X138963297Y-94886772D01*
X138996000Y-95051184D01*
X138996000Y-95218816D01*
X138963297Y-95383228D01*
X138899147Y-95538100D01*
X138806015Y-95677481D01*
X138687481Y-95796015D01*
X138548100Y-95889147D01*
X138393228Y-95953297D01*
X138228816Y-95986000D01*
X138061184Y-95986000D01*
X137896772Y-95953297D01*
X137741900Y-95889147D01*
X137602519Y-95796015D01*
X137483985Y-95677481D01*
X137390853Y-95538100D01*
X137326703Y-95383228D01*
X137294000Y-95218816D01*
X137294000Y-95051184D01*
X137326703Y-94886772D01*
X137390853Y-94731900D01*
X137483985Y-94592519D01*
X137602519Y-94473985D01*
X137741900Y-94380853D01*
X137896772Y-94316703D01*
X138061184Y-94284000D01*
X138228816Y-94284000D01*
X138393228Y-94316703D01*
G37*
G36*
X143473228Y-94316703D02*
G01*
X143628100Y-94380853D01*
X143767481Y-94473985D01*
X143886015Y-94592519D01*
X143979147Y-94731900D01*
X144043297Y-94886772D01*
X144076000Y-95051184D01*
X144076000Y-95218816D01*
X144043297Y-95383228D01*
X143979147Y-95538100D01*
X143886015Y-95677481D01*
X143767481Y-95796015D01*
X143628100Y-95889147D01*
X143473228Y-95953297D01*
X143308816Y-95986000D01*
X143141184Y-95986000D01*
X142976772Y-95953297D01*
X142821900Y-95889147D01*
X142682519Y-95796015D01*
X142563985Y-95677481D01*
X142470853Y-95538100D01*
X142406703Y-95383228D01*
X142374000Y-95218816D01*
X142374000Y-95051184D01*
X142406703Y-94886772D01*
X142470853Y-94731900D01*
X142563985Y-94592519D01*
X142682519Y-94473985D01*
X142821900Y-94380853D01*
X142976772Y-94316703D01*
X143141184Y-94284000D01*
X143308816Y-94284000D01*
X143473228Y-94316703D01*
G37*
G36*
X151696000Y-95986000D02*
G01*
X149994000Y-95986000D01*
X149994000Y-94284000D01*
X151696000Y-94284000D01*
X151696000Y-95986000D01*
G37*
G36*
X118021720Y-91598520D02*
G01*
X118210881Y-91655901D01*
X118385212Y-91749083D01*
X118538015Y-91874485D01*
X118663417Y-92027288D01*
X118707182Y-92109167D01*
X118756598Y-92201617D01*
X118756599Y-92201620D01*
X118813980Y-92390781D01*
X118828500Y-92538207D01*
X118828500Y-92731794D01*
X118813980Y-92879220D01*
X118756599Y-93068381D01*
X118663417Y-93242712D01*
X118538015Y-93395515D01*
X118385212Y-93520917D01*
X118303333Y-93564682D01*
X118210883Y-93614098D01*
X118210880Y-93614099D01*
X118021719Y-93671480D01*
X117825000Y-93690855D01*
X117628280Y-93671480D01*
X117439119Y-93614099D01*
X117264788Y-93520917D01*
X117111985Y-93395515D01*
X116986583Y-93242712D01*
X116930336Y-93137481D01*
X116893402Y-93068383D01*
X116872081Y-92998097D01*
X116836020Y-92879219D01*
X116821500Y-92731793D01*
X116821500Y-92538206D01*
X116836020Y-92390780D01*
X116893401Y-92201619D01*
X116986583Y-92027288D01*
X117111985Y-91874485D01*
X117264788Y-91749083D01*
X117439120Y-91655901D01*
X117628281Y-91598520D01*
X117825000Y-91579145D01*
X118021720Y-91598520D01*
G37*
G36*
X100946000Y-93496000D02*
G01*
X99144000Y-93496000D01*
X99144000Y-91694000D01*
X100946000Y-91694000D01*
X100946000Y-93496000D01*
G37*
G36*
X174606000Y-93496000D02*
G01*
X172804000Y-93496000D01*
X172804000Y-91694000D01*
X174606000Y-91694000D01*
X174606000Y-93496000D01*
G37*
G36*
X151093228Y-91776703D02*
G01*
X151248100Y-91840853D01*
X151387481Y-91933985D01*
X151506015Y-92052519D01*
X151599147Y-92191900D01*
X151663297Y-92346772D01*
X151696000Y-92511184D01*
X151696000Y-92678816D01*
X151663297Y-92843228D01*
X151599147Y-92998100D01*
X151506015Y-93137481D01*
X151387481Y-93256015D01*
X151248100Y-93349147D01*
X151093228Y-93413297D01*
X150928816Y-93446000D01*
X150761184Y-93446000D01*
X150596772Y-93413297D01*
X150441900Y-93349147D01*
X150302519Y-93256015D01*
X150183985Y-93137481D01*
X150090853Y-92998100D01*
X150026703Y-92843228D01*
X149994000Y-92678816D01*
X149994000Y-92511184D01*
X150026703Y-92346772D01*
X150090853Y-92191900D01*
X150183985Y-92052519D01*
X150302519Y-91933985D01*
X150441900Y-91840853D01*
X150596772Y-91776703D01*
X150761184Y-91744000D01*
X150928816Y-91744000D01*
X151093228Y-91776703D01*
G37*
G36*
X143473228Y-91776703D02*
G01*
X143628100Y-91840853D01*
X143767481Y-91933985D01*
X143886015Y-92052519D01*
X143979147Y-92191900D01*
X144043297Y-92346772D01*
X144076000Y-92511184D01*
X144076000Y-92678816D01*
X144043297Y-92843228D01*
X143979147Y-92998100D01*
X143886015Y-93137481D01*
X143767481Y-93256015D01*
X143628100Y-93349147D01*
X143473228Y-93413297D01*
X143308816Y-93446000D01*
X143141184Y-93446000D01*
X142976772Y-93413297D01*
X142821900Y-93349147D01*
X142682519Y-93256015D01*
X142563985Y-93137481D01*
X142470853Y-92998100D01*
X142406703Y-92843228D01*
X142374000Y-92678816D01*
X142374000Y-92511184D01*
X142406703Y-92346772D01*
X142470853Y-92191900D01*
X142563985Y-92052519D01*
X142682519Y-91933985D01*
X142821900Y-91840853D01*
X142976772Y-91776703D01*
X143141184Y-91744000D01*
X143308816Y-91744000D01*
X143473228Y-91776703D01*
G37*
G36*
X138393228Y-86696703D02*
G01*
X138548100Y-86760853D01*
X138687481Y-86853985D01*
X138806015Y-86972519D01*
X138899147Y-87111900D01*
X138963297Y-87266772D01*
X138996000Y-87431184D01*
X138996000Y-87598816D01*
X138963297Y-87763228D01*
X138899147Y-87918100D01*
X138806015Y-88057481D01*
X138687481Y-88176015D01*
X138548100Y-88269147D01*
X138393228Y-88333297D01*
X138228816Y-88366000D01*
X138061184Y-88366000D01*
X137896772Y-88333297D01*
X137741900Y-88269147D01*
X137602519Y-88176015D01*
X137483985Y-88057481D01*
X137390853Y-87918100D01*
X137326703Y-87763228D01*
X137294000Y-87598816D01*
X137294000Y-87431184D01*
X137326703Y-87266772D01*
X137390853Y-87111900D01*
X137483985Y-86972519D01*
X137602519Y-86853985D01*
X137741900Y-86760853D01*
X137896772Y-86696703D01*
X138061184Y-86664000D01*
X138228816Y-86664000D01*
X138393228Y-86696703D01*
G37*
G36*
X110453228Y-86696703D02*
G01*
X110608100Y-86760853D01*
X110747481Y-86853985D01*
X110866015Y-86972519D01*
X110959147Y-87111900D01*
X111023297Y-87266772D01*
X111056000Y-87431184D01*
X111056000Y-87598816D01*
X111023297Y-87763228D01*
X110959147Y-87918100D01*
X110866015Y-88057481D01*
X110747481Y-88176015D01*
X110608100Y-88269147D01*
X110453228Y-88333297D01*
X110288816Y-88366000D01*
X110121184Y-88366000D01*
X109956772Y-88333297D01*
X109801900Y-88269147D01*
X109662519Y-88176015D01*
X109543985Y-88057481D01*
X109450853Y-87918100D01*
X109386703Y-87763228D01*
X109354000Y-87598816D01*
X109354000Y-87431184D01*
X109386703Y-87266772D01*
X109450853Y-87111900D01*
X109543985Y-86972519D01*
X109662519Y-86853985D01*
X109801900Y-86760853D01*
X109956772Y-86696703D01*
X110121184Y-86664000D01*
X110288816Y-86664000D01*
X110453228Y-86696703D01*
G37*
G36*
X120613228Y-86696703D02*
G01*
X120768100Y-86760853D01*
X120907481Y-86853985D01*
X121026015Y-86972519D01*
X121119147Y-87111900D01*
X121183297Y-87266772D01*
X121216000Y-87431184D01*
X121216000Y-87598816D01*
X121183297Y-87763228D01*
X121119147Y-87918100D01*
X121026015Y-88057481D01*
X120907481Y-88176015D01*
X120768100Y-88269147D01*
X120613228Y-88333297D01*
X120448816Y-88366000D01*
X120281184Y-88366000D01*
X120116772Y-88333297D01*
X119961900Y-88269147D01*
X119822519Y-88176015D01*
X119703985Y-88057481D01*
X119610853Y-87918100D01*
X119546703Y-87763228D01*
X119514000Y-87598816D01*
X119514000Y-87431184D01*
X119546703Y-87266772D01*
X119610853Y-87111900D01*
X119703985Y-86972519D01*
X119822519Y-86853985D01*
X119961900Y-86760853D01*
X120116772Y-86696703D01*
X120281184Y-86664000D01*
X120448816Y-86664000D01*
X120613228Y-86696703D01*
G37*
G36*
X128233228Y-86696703D02*
G01*
X128388100Y-86760853D01*
X128527481Y-86853985D01*
X128646015Y-86972519D01*
X128739147Y-87111900D01*
X128803297Y-87266772D01*
X128836000Y-87431184D01*
X128836000Y-87598816D01*
X128803297Y-87763228D01*
X128739147Y-87918100D01*
X128646015Y-88057481D01*
X128527481Y-88176015D01*
X128388100Y-88269147D01*
X128233228Y-88333297D01*
X128068816Y-88366000D01*
X127901184Y-88366000D01*
X127736772Y-88333297D01*
X127581900Y-88269147D01*
X127442519Y-88176015D01*
X127323985Y-88057481D01*
X127230853Y-87918100D01*
X127166703Y-87763228D01*
X127134000Y-87598816D01*
X127134000Y-87431184D01*
X127166703Y-87266772D01*
X127230853Y-87111900D01*
X127323985Y-86972519D01*
X127442519Y-86853985D01*
X127581900Y-86760853D01*
X127736772Y-86696703D01*
X127901184Y-86664000D01*
X128068816Y-86664000D01*
X128233228Y-86696703D01*
G37*
G36*
X115481720Y-76318520D02*
G01*
X115670881Y-76375901D01*
X115845212Y-76469083D01*
X115998015Y-76594485D01*
X116123417Y-76747288D01*
X116158284Y-76812520D01*
X116216598Y-76921617D01*
X116216599Y-76921620D01*
X116273980Y-77110781D01*
X116288500Y-77258207D01*
X116288500Y-77451794D01*
X116273980Y-77599220D01*
X116216599Y-77788381D01*
X116123417Y-77962712D01*
X115998015Y-78115515D01*
X115845212Y-78240917D01*
X115763333Y-78284682D01*
X115670883Y-78334098D01*
X115670880Y-78334099D01*
X115481719Y-78391480D01*
X115285000Y-78410855D01*
X115088280Y-78391480D01*
X114899119Y-78334099D01*
X114724788Y-78240917D01*
X114571985Y-78115515D01*
X114446583Y-77962712D01*
X114402818Y-77880833D01*
X114353402Y-77788383D01*
X114344215Y-77758097D01*
X114296020Y-77599219D01*
X114281500Y-77451793D01*
X114281500Y-77258206D01*
X114296020Y-77110780D01*
X114353401Y-76921619D01*
X114446583Y-76747288D01*
X114571985Y-76594485D01*
X114724788Y-76469083D01*
X114899120Y-76375901D01*
X115088281Y-76318520D01*
X115285000Y-76299145D01*
X115481720Y-76318520D01*
G37*
G36*
X121368500Y-78406000D02*
G01*
X119361500Y-78406000D01*
X119361500Y-76304000D01*
X121368500Y-76304000D01*
X121368500Y-78406000D01*
G37*
G36*
X100158512Y-76458927D02*
G01*
X100307812Y-76488624D01*
X100471784Y-76556544D01*
X100619354Y-76655147D01*
X100744853Y-76780646D01*
X100843456Y-76928216D01*
X100911376Y-77092188D01*
X100941073Y-77241488D01*
X100946000Y-77266258D01*
X100946000Y-77443742D01*
X100944398Y-77451794D01*
X100911376Y-77617812D01*
X100843456Y-77781784D01*
X100744853Y-77929354D01*
X100619354Y-78054853D01*
X100471784Y-78153456D01*
X100307812Y-78221376D01*
X100158512Y-78251073D01*
X100133742Y-78256000D01*
X99956258Y-78256000D01*
X99931488Y-78251073D01*
X99782188Y-78221376D01*
X99618216Y-78153456D01*
X99470646Y-78054853D01*
X99345147Y-77929354D01*
X99246544Y-77781784D01*
X99178624Y-77617812D01*
X99145602Y-77451794D01*
X99144000Y-77443742D01*
X99144000Y-77266258D01*
X99148927Y-77241488D01*
X99178624Y-77092188D01*
X99246544Y-76928216D01*
X99345147Y-76780646D01*
X99470646Y-76655147D01*
X99618216Y-76556544D01*
X99782188Y-76488624D01*
X99931488Y-76458927D01*
X99956258Y-76454000D01*
X100133742Y-76454000D01*
X100158512Y-76458927D01*
G37*
G36*
X173818512Y-76458927D02*
G01*
X173967812Y-76488624D01*
X174131784Y-76556544D01*
X174279354Y-76655147D01*
X174404853Y-76780646D01*
X174503456Y-76928216D01*
X174571376Y-77092188D01*
X174601073Y-77241488D01*
X174606000Y-77266258D01*
X174606000Y-77443742D01*
X174604398Y-77451794D01*
X174571376Y-77617812D01*
X174503456Y-77781784D01*
X174404853Y-77929354D01*
X174279354Y-78054853D01*
X174131784Y-78153456D01*
X173967812Y-78221376D01*
X173818512Y-78251073D01*
X173793742Y-78256000D01*
X173616258Y-78256000D01*
X173591488Y-78251073D01*
X173442188Y-78221376D01*
X173278216Y-78153456D01*
X173130646Y-78054853D01*
X173005147Y-77929354D01*
X172906544Y-77781784D01*
X172838624Y-77617812D01*
X172805602Y-77451794D01*
X172804000Y-77443742D01*
X172804000Y-77266258D01*
X172808927Y-77241488D01*
X172838624Y-77092188D01*
X172906544Y-76928216D01*
X173005147Y-76780646D01*
X173130646Y-76655147D01*
X173278216Y-76556544D01*
X173442188Y-76488624D01*
X173591488Y-76458927D01*
X173616258Y-76454000D01*
X173793742Y-76454000D01*
X173818512Y-76458927D01*
G37*
G36*
X156173228Y-76536703D02*
G01*
X156328100Y-76600853D01*
X156467481Y-76693985D01*
X156586015Y-76812519D01*
X156679147Y-76951900D01*
X156743297Y-77106772D01*
X156776000Y-77271184D01*
X156776000Y-77438816D01*
X156743297Y-77603228D01*
X156679147Y-77758100D01*
X156586015Y-77897481D01*
X156467481Y-78016015D01*
X156328100Y-78109147D01*
X156173228Y-78173297D01*
X156008816Y-78206000D01*
X155841184Y-78206000D01*
X155676772Y-78173297D01*
X155521900Y-78109147D01*
X155382519Y-78016015D01*
X155263985Y-77897481D01*
X155170853Y-77758100D01*
X155106703Y-77603228D01*
X155074000Y-77438816D01*
X155074000Y-77271184D01*
X155106703Y-77106772D01*
X155170853Y-76951900D01*
X155263985Y-76812519D01*
X155382519Y-76693985D01*
X155521900Y-76600853D01*
X155676772Y-76536703D01*
X155841184Y-76504000D01*
X156008816Y-76504000D01*
X156173228Y-76536703D01*
G37*
G36*
X166333228Y-76536703D02*
G01*
X166488100Y-76600853D01*
X166627481Y-76693985D01*
X166746015Y-76812519D01*
X166839147Y-76951900D01*
X166903297Y-77106772D01*
X166936000Y-77271184D01*
X166936000Y-77438816D01*
X166903297Y-77603228D01*
X166839147Y-77758100D01*
X166746015Y-77897481D01*
X166627481Y-78016015D01*
X166488100Y-78109147D01*
X166333228Y-78173297D01*
X166168816Y-78206000D01*
X166001184Y-78206000D01*
X165836772Y-78173297D01*
X165681900Y-78109147D01*
X165542519Y-78016015D01*
X165423985Y-77897481D01*
X165330853Y-77758100D01*
X165266703Y-77603228D01*
X165234000Y-77438816D01*
X165234000Y-77271184D01*
X165266703Y-77106772D01*
X165330853Y-76951900D01*
X165423985Y-76812519D01*
X165542519Y-76693985D01*
X165681900Y-76600853D01*
X165836772Y-76536703D01*
X166001184Y-76504000D01*
X166168816Y-76504000D01*
X166333228Y-76536703D01*
G37*
G36*
X151696000Y-78206000D02*
G01*
X149994000Y-78206000D01*
X149994000Y-76504000D01*
X151696000Y-76504000D01*
X151696000Y-78206000D01*
G37*
G36*
X143473228Y-76536703D02*
G01*
X143628100Y-76600853D01*
X143767481Y-76693985D01*
X143886015Y-76812519D01*
X143979147Y-76951900D01*
X144043297Y-77106772D01*
X144076000Y-77271184D01*
X144076000Y-77438816D01*
X144043297Y-77603228D01*
X143979147Y-77758100D01*
X143886015Y-77897481D01*
X143767481Y-78016015D01*
X143628100Y-78109147D01*
X143473228Y-78173297D01*
X143308816Y-78206000D01*
X143141184Y-78206000D01*
X142976772Y-78173297D01*
X142821900Y-78109147D01*
X142682519Y-78016015D01*
X142563985Y-77897481D01*
X142470853Y-77758100D01*
X142406703Y-77603228D01*
X142374000Y-77438816D01*
X142374000Y-77271184D01*
X142406703Y-77106772D01*
X142470853Y-76951900D01*
X142563985Y-76812519D01*
X142682519Y-76693985D01*
X142821900Y-76600853D01*
X142976772Y-76536703D01*
X143141184Y-76504000D01*
X143308816Y-76504000D01*
X143473228Y-76536703D01*
G37*
G36*
X138393228Y-76536703D02*
G01*
X138548100Y-76600853D01*
X138687481Y-76693985D01*
X138806015Y-76812519D01*
X138899147Y-76951900D01*
X138963297Y-77106772D01*
X138996000Y-77271184D01*
X138996000Y-77438816D01*
X138963297Y-77603228D01*
X138899147Y-77758100D01*
X138806015Y-77897481D01*
X138687481Y-78016015D01*
X138548100Y-78109147D01*
X138393228Y-78173297D01*
X138228816Y-78206000D01*
X138061184Y-78206000D01*
X137896772Y-78173297D01*
X137741900Y-78109147D01*
X137602519Y-78016015D01*
X137483985Y-77897481D01*
X137390853Y-77758100D01*
X137326703Y-77603228D01*
X137294000Y-77438816D01*
X137294000Y-77271184D01*
X137326703Y-77106772D01*
X137390853Y-76951900D01*
X137483985Y-76812519D01*
X137602519Y-76693985D01*
X137741900Y-76600853D01*
X137896772Y-76536703D01*
X138061184Y-76504000D01*
X138228816Y-76504000D01*
X138393228Y-76536703D01*
G37*
G36*
X128233228Y-76536703D02*
G01*
X128388100Y-76600853D01*
X128527481Y-76693985D01*
X128646015Y-76812519D01*
X128739147Y-76951900D01*
X128803297Y-77106772D01*
X128836000Y-77271184D01*
X128836000Y-77438816D01*
X128803297Y-77603228D01*
X128739147Y-77758100D01*
X128646015Y-77897481D01*
X128527481Y-78016015D01*
X128388100Y-78109147D01*
X128233228Y-78173297D01*
X128068816Y-78206000D01*
X127901184Y-78206000D01*
X127736772Y-78173297D01*
X127581900Y-78109147D01*
X127442519Y-78016015D01*
X127323985Y-77897481D01*
X127230853Y-77758100D01*
X127166703Y-77603228D01*
X127134000Y-77438816D01*
X127134000Y-77271184D01*
X127166703Y-77106772D01*
X127230853Y-76951900D01*
X127323985Y-76812519D01*
X127442519Y-76693985D01*
X127581900Y-76600853D01*
X127736772Y-76536703D01*
X127901184Y-76504000D01*
X128068816Y-76504000D01*
X128233228Y-76536703D01*
G37*
G36*
X118021720Y-73818520D02*
G01*
X118210881Y-73875901D01*
X118385212Y-73969083D01*
X118538015Y-74094485D01*
X118663417Y-74247288D01*
X118707182Y-74329167D01*
X118756598Y-74421617D01*
X118756599Y-74421620D01*
X118813980Y-74610781D01*
X118828500Y-74758207D01*
X118828500Y-74951794D01*
X118813980Y-75099220D01*
X118756599Y-75288381D01*
X118663417Y-75462712D01*
X118538015Y-75615515D01*
X118385212Y-75740917D01*
X118303333Y-75784682D01*
X118210883Y-75834098D01*
X118210880Y-75834099D01*
X118021719Y-75891480D01*
X117825000Y-75910855D01*
X117628280Y-75891480D01*
X117439119Y-75834099D01*
X117264788Y-75740917D01*
X117111985Y-75615515D01*
X116986583Y-75462712D01*
X116930336Y-75357481D01*
X116893402Y-75288383D01*
X116872081Y-75218097D01*
X116836020Y-75099219D01*
X116821500Y-74951793D01*
X116821500Y-74758206D01*
X116836020Y-74610780D01*
X116893401Y-74421619D01*
X116986583Y-74247288D01*
X117111985Y-74094485D01*
X117264788Y-73969083D01*
X117439120Y-73875901D01*
X117628281Y-73818520D01*
X117825000Y-73799145D01*
X118021720Y-73818520D01*
G37*
G36*
X174606000Y-75716000D02*
G01*
X172804000Y-75716000D01*
X172804000Y-73914000D01*
X174606000Y-73914000D01*
X174606000Y-75716000D01*
G37*
G36*
X100946000Y-75716000D02*
G01*
X99144000Y-75716000D01*
X99144000Y-73914000D01*
X100946000Y-73914000D01*
X100946000Y-75716000D01*
G37*
G36*
X143473228Y-73996703D02*
G01*
X143628100Y-74060853D01*
X143767481Y-74153985D01*
X143886015Y-74272519D01*
X143979147Y-74411900D01*
X144043297Y-74566772D01*
X144076000Y-74731184D01*
X144076000Y-74898816D01*
X144043297Y-75063228D01*
X143979147Y-75218100D01*
X143886015Y-75357481D01*
X143767481Y-75476015D01*
X143628100Y-75569147D01*
X143473228Y-75633297D01*
X143308816Y-75666000D01*
X143141184Y-75666000D01*
X142976772Y-75633297D01*
X142821900Y-75569147D01*
X142682519Y-75476015D01*
X142563985Y-75357481D01*
X142470853Y-75218100D01*
X142406703Y-75063228D01*
X142374000Y-74898816D01*
X142374000Y-74731184D01*
X142406703Y-74566772D01*
X142470853Y-74411900D01*
X142563985Y-74272519D01*
X142682519Y-74153985D01*
X142821900Y-74060853D01*
X142976772Y-73996703D01*
X143141184Y-73964000D01*
X143308816Y-73964000D01*
X143473228Y-73996703D01*
G37*
G36*
X151093228Y-73996703D02*
G01*
X151248100Y-74060853D01*
X151387481Y-74153985D01*
X151506015Y-74272519D01*
X151599147Y-74411900D01*
X151663297Y-74566772D01*
X151696000Y-74731184D01*
X151696000Y-74898816D01*
X151663297Y-75063228D01*
X151599147Y-75218100D01*
X151506015Y-75357481D01*
X151387481Y-75476015D01*
X151248100Y-75569147D01*
X151093228Y-75633297D01*
X150928816Y-75666000D01*
X150761184Y-75666000D01*
X150596772Y-75633297D01*
X150441900Y-75569147D01*
X150302519Y-75476015D01*
X150183985Y-75357481D01*
X150090853Y-75218100D01*
X150026703Y-75063228D01*
X149994000Y-74898816D01*
X149994000Y-74731184D01*
X150026703Y-74566772D01*
X150090853Y-74411900D01*
X150183985Y-74272519D01*
X150302519Y-74153985D01*
X150441900Y-74060853D01*
X150596772Y-73996703D01*
X150761184Y-73964000D01*
X150928816Y-73964000D01*
X151093228Y-73996703D01*
G37*
G36*
X138393228Y-68916703D02*
G01*
X138548100Y-68980853D01*
X138687481Y-69073985D01*
X138806015Y-69192519D01*
X138899147Y-69331900D01*
X138963297Y-69486772D01*
X138996000Y-69651184D01*
X138996000Y-69818816D01*
X138963297Y-69983228D01*
X138899147Y-70138100D01*
X138806015Y-70277481D01*
X138687481Y-70396015D01*
X138548100Y-70489147D01*
X138393228Y-70553297D01*
X138228816Y-70586000D01*
X138061184Y-70586000D01*
X137896772Y-70553297D01*
X137741900Y-70489147D01*
X137602519Y-70396015D01*
X137483985Y-70277481D01*
X137390853Y-70138100D01*
X137326703Y-69983228D01*
X137294000Y-69818816D01*
X137294000Y-69651184D01*
X137326703Y-69486772D01*
X137390853Y-69331900D01*
X137483985Y-69192519D01*
X137602519Y-69073985D01*
X137741900Y-68980853D01*
X137896772Y-68916703D01*
X138061184Y-68884000D01*
X138228816Y-68884000D01*
X138393228Y-68916703D01*
G37*
G36*
X128233228Y-68916703D02*
G01*
X128388100Y-68980853D01*
X128527481Y-69073985D01*
X128646015Y-69192519D01*
X128739147Y-69331900D01*
X128803297Y-69486772D01*
X128836000Y-69651184D01*
X128836000Y-69818816D01*
X128803297Y-69983228D01*
X128739147Y-70138100D01*
X128646015Y-70277481D01*
X128527481Y-70396015D01*
X128388100Y-70489147D01*
X128233228Y-70553297D01*
X128068816Y-70586000D01*
X127901184Y-70586000D01*
X127736772Y-70553297D01*
X127581900Y-70489147D01*
X127442519Y-70396015D01*
X127323985Y-70277481D01*
X127230853Y-70138100D01*
X127166703Y-69983228D01*
X127134000Y-69818816D01*
X127134000Y-69651184D01*
X127166703Y-69486772D01*
X127230853Y-69331900D01*
X127323985Y-69192519D01*
X127442519Y-69073985D01*
X127581900Y-68980853D01*
X127736772Y-68916703D01*
X127901184Y-68884000D01*
X128068816Y-68884000D01*
X128233228Y-68916703D01*
G37*
G36*
X120613228Y-68916703D02*
G01*
X120768100Y-68980853D01*
X120907481Y-69073985D01*
X121026015Y-69192519D01*
X121119147Y-69331900D01*
X121183297Y-69486772D01*
X121216000Y-69651184D01*
X121216000Y-69818816D01*
X121183297Y-69983228D01*
X121119147Y-70138100D01*
X121026015Y-70277481D01*
X120907481Y-70396015D01*
X120768100Y-70489147D01*
X120613228Y-70553297D01*
X120448816Y-70586000D01*
X120281184Y-70586000D01*
X120116772Y-70553297D01*
X119961900Y-70489147D01*
X119822519Y-70396015D01*
X119703985Y-70277481D01*
X119610853Y-70138100D01*
X119546703Y-69983228D01*
X119514000Y-69818816D01*
X119514000Y-69651184D01*
X119546703Y-69486772D01*
X119610853Y-69331900D01*
X119703985Y-69192519D01*
X119822519Y-69073985D01*
X119961900Y-68980853D01*
X120116772Y-68916703D01*
X120281184Y-68884000D01*
X120448816Y-68884000D01*
X120613228Y-68916703D01*
G37*
G36*
X110453228Y-68916703D02*
G01*
X110608100Y-68980853D01*
X110747481Y-69073985D01*
X110866015Y-69192519D01*
X110959147Y-69331900D01*
X111023297Y-69486772D01*
X111056000Y-69651184D01*
X111056000Y-69818816D01*
X111023297Y-69983228D01*
X110959147Y-70138100D01*
X110866015Y-70277481D01*
X110747481Y-70396015D01*
X110608100Y-70489147D01*
X110453228Y-70553297D01*
X110288816Y-70586000D01*
X110121184Y-70586000D01*
X109956772Y-70553297D01*
X109801900Y-70489147D01*
X109662519Y-70396015D01*
X109543985Y-70277481D01*
X109450853Y-70138100D01*
X109386703Y-69983228D01*
X109354000Y-69818816D01*
X109354000Y-69651184D01*
X109386703Y-69486772D01*
X109450853Y-69331900D01*
X109543985Y-69192519D01*
X109662519Y-69073985D01*
X109801900Y-68980853D01*
X109956772Y-68916703D01*
X110121184Y-68884000D01*
X110288816Y-68884000D01*
X110453228Y-68916703D01*
G37*
G36*
X158661720Y-66158520D02*
G01*
X158850881Y-66215901D01*
X159025212Y-66309083D01*
X159178015Y-66434485D01*
X159303417Y-66587288D01*
X159347182Y-66669167D01*
X159396598Y-66761617D01*
X159396599Y-66761620D01*
X159453980Y-66950781D01*
X159468500Y-67098207D01*
X159468500Y-67291794D01*
X159453980Y-67439220D01*
X159396599Y-67628381D01*
X159303417Y-67802712D01*
X159178015Y-67955515D01*
X159025212Y-68080917D01*
X158943333Y-68124682D01*
X158850883Y-68174098D01*
X158850880Y-68174099D01*
X158661719Y-68231480D01*
X158465000Y-68250855D01*
X158268280Y-68231480D01*
X158079119Y-68174099D01*
X157904788Y-68080917D01*
X157751985Y-67955515D01*
X157626583Y-67802712D01*
X157582818Y-67720833D01*
X157533402Y-67628383D01*
X157533401Y-67628380D01*
X157476020Y-67439219D01*
X157461500Y-67291793D01*
X157461500Y-67098206D01*
X157476020Y-66950780D01*
X157533401Y-66761619D01*
X157626583Y-66587288D01*
X157751985Y-66434485D01*
X157904788Y-66309083D01*
X158079120Y-66215901D01*
X158268281Y-66158520D01*
X158465000Y-66139145D01*
X158661720Y-66158520D01*
G37*
G36*
X164548500Y-68246000D02*
G01*
X162541500Y-68246000D01*
X162541500Y-66144000D01*
X164548500Y-66144000D01*
X164548500Y-68246000D01*
G37*
G36*
X161201720Y-63658520D02*
G01*
X161390881Y-63715901D01*
X161565212Y-63809083D01*
X161718015Y-63934485D01*
X161843417Y-64087288D01*
X161887182Y-64169167D01*
X161936598Y-64261617D01*
X161936599Y-64261620D01*
X161993980Y-64450781D01*
X162008500Y-64598207D01*
X162008500Y-64791794D01*
X161993980Y-64939220D01*
X161936599Y-65128381D01*
X161843417Y-65302712D01*
X161718015Y-65455515D01*
X161565212Y-65580917D01*
X161483333Y-65624682D01*
X161390883Y-65674098D01*
X161390880Y-65674099D01*
X161201719Y-65731480D01*
X161005000Y-65750855D01*
X160808280Y-65731480D01*
X160619119Y-65674099D01*
X160444788Y-65580917D01*
X160291985Y-65455515D01*
X160166583Y-65302712D01*
X160122818Y-65220833D01*
X160073402Y-65128383D01*
X160073401Y-65128380D01*
X160016020Y-64939219D01*
X160001500Y-64791793D01*
X160001500Y-64598206D01*
X160016020Y-64450780D01*
X160073401Y-64261619D01*
X160166583Y-64087288D01*
X160291985Y-63934485D01*
X160444788Y-63809083D01*
X160619120Y-63715901D01*
X160808281Y-63658520D01*
X161005000Y-63639145D01*
X161201720Y-63658520D01*
G37*
G36*
X95406000Y-55669001D02*
G01*
X95408402Y-55693387D01*
X95415515Y-55716836D01*
X95427066Y-55738447D01*
X95442611Y-55757389D01*
X95461553Y-55772934D01*
X95483164Y-55784485D01*
X95506613Y-55791598D01*
X95530999Y-55794000D01*
X96479001Y-55794000D01*
X96503387Y-55791598D01*
X96526836Y-55784485D01*
X96548447Y-55772934D01*
X96567389Y-55757389D01*
X96582934Y-55738447D01*
X96594485Y-55716836D01*
X96601598Y-55693387D01*
X96604000Y-55669001D01*
X96604000Y-54694000D01*
X165406000Y-54694000D01*
X165406000Y-59096000D01*
X94604000Y-59096000D01*
X94604000Y-54694000D01*
X95406000Y-54694000D01*
X95406000Y-55669001D01*
G37*
G36*
X178406000Y-59096000D02*
G01*
X167604000Y-59096000D01*
X167604000Y-54694000D01*
X178406000Y-54694000D01*
X178406000Y-59096000D01*
G37*
M02*
