M48
; DRILL file {KiCad (5.1.5)-3} date 2020/02/02 20:29:06
; FORMAT={-:-/ absolute / metric / decimal}
; #@! TF.CreationDate,2020-02-02T20:29:06+09:00
; #@! TF.GenerationSoftware,Kicad,Pcbnew,(5.1.5)-3
FMAT,2
METRIC
T1C0.300
T2C0.400
T3C0.800
T4C1.000
T5C1.100
%
G90
G05
T1
X97.505Y-62.115
X97.505Y-69.735
X97.505Y-77.355
X97.505Y-84.975
X97.505Y-92.595
X97.505Y-100.215
X99.3Y-106.68
X99.3Y-121.92
X99.3Y-137.16
X99.3Y-144.78
X105.125Y-62.115
X105.125Y-69.735
X105.125Y-77.355
X105.125Y-84.975
X105.125Y-100.215
X106.92Y-106.68
X106.92Y-114.3
X106.92Y-121.92
X112.745Y-62.115
X112.745Y-69.735
X112.745Y-77.355
X112.745Y-84.975
X112.745Y-100.215
X114.54Y-106.68
X114.54Y-114.3
X114.54Y-121.92
X114.54Y-129.54
X114.54Y-144.78
X120.365Y-62.115
X120.365Y-84.975
X120.365Y-100.215
X122.16Y-106.68
X122.16Y-121.92
X122.16Y-144.78
X127.985Y-62.115
X127.985Y-84.975
X127.985Y-92.595
X127.985Y-100.215
X129.78Y-106.68
X129.78Y-121.92
X129.78Y-137.16
X129.78Y-144.78
X135.605Y-62.115
X135.605Y-69.735
X135.605Y-77.355
X135.605Y-84.975
X135.605Y-92.595
X135.605Y-100.215
X137.4Y-106.68
X137.4Y-114.3
X137.4Y-121.92
X137.4Y-129.54
X137.4Y-137.16
X137.4Y-144.78
X143.225Y-62.115
X143.225Y-69.735
X143.225Y-84.975
X143.225Y-100.215
X145.02Y-106.68
X145.02Y-114.3
X145.02Y-121.92
X145.02Y-144.78
X150.845Y-62.115
X150.845Y-84.975
X150.845Y-100.215
X152.64Y-106.68
X152.64Y-121.92
X152.64Y-144.78
X158.465Y-62.115
X158.465Y-77.355
X158.465Y-84.975
X158.465Y-92.595
X158.465Y-100.215
X160.26Y-106.68
X160.26Y-121.92
X160.26Y-129.54
X160.26Y-137.16
X160.26Y-144.78
X166.085Y-84.975
X166.085Y-92.595
X166.085Y-100.215
X167.88Y-106.68
X167.88Y-121.92
X167.88Y-129.54
X167.88Y-137.16
X167.88Y-144.78
X173.705Y-62.115
X173.705Y-69.735
X173.705Y-84.975
X173.705Y-100.215
X175.5Y-106.68
X175.5Y-114.3
X175.5Y-121.92
X175.5Y-129.54
X175.5Y-137.16
X175.5Y-144.78
T2
X108.825Y-146.685
X164.18Y-60.21
T3
X155.925Y-95.135
X166.085Y-95.135
X127.985Y-95.135
X138.145Y-95.135
X110.205Y-87.515
X120.365Y-87.515
X134.86Y-111.76
X145.02Y-111.76
X155.925Y-77.355
X166.085Y-77.355
X134.86Y-119.38
X145.02Y-119.38
X127.985Y-77.355
X138.145Y-77.355
X106.92Y-111.76
X117.08Y-111.76
X106.92Y-129.54
X117.08Y-129.54
X127.985Y-69.735
X138.145Y-69.735
X143.225Y-74.815
X143.225Y-77.355
X150.845Y-74.815
X150.845Y-77.355
X127.985Y-87.515
X138.145Y-87.515
X134.86Y-129.54
X145.02Y-129.54
X143.225Y-92.595
X143.225Y-95.135
X150.845Y-92.595
X150.845Y-95.135
X152.64Y-119.38
X162.8Y-119.38
X122.16Y-129.54
X122.16Y-132.08
X129.78Y-129.54
X129.78Y-132.08
X122.16Y-111.76
X122.16Y-114.3
X129.78Y-111.76
X129.78Y-114.3
X152.64Y-137.16
X162.8Y-137.16
X110.205Y-69.735
X120.365Y-69.735
X134.86Y-137.16
X145.02Y-137.16
T4
X172.96Y-111.76
X172.96Y-114.3
X99.3Y-129.54
X99.3Y-132.08
X100.045Y-92.595
X100.045Y-95.135
X173.705Y-74.815
X173.705Y-77.355
X172.96Y-129.54
X172.96Y-132.08
X100.045Y-74.815
X100.045Y-77.355
X173.705Y-92.595
X173.705Y-95.135
X99.3Y-111.76
X99.3Y-114.3
T5
X115.285Y-77.355
X117.825Y-74.855
X120.365Y-77.355
X152.64Y-111.76
X155.18Y-114.26
X157.72Y-111.76
X152.64Y-129.54
X155.18Y-132.04
X157.72Y-129.54
X158.465Y-67.195
X161.005Y-64.695
X163.545Y-67.195
X115.285Y-95.135
X117.825Y-92.635
X120.365Y-95.135
X109.46Y-139.7
X112.0Y-142.2
X114.54Y-139.7
T0
M30
